{
  "asset": {
    "generator": "glTF-Transform v4.0.1",
    "version": "2.0"
  },
  "accessors": [
    {
      "type": "VEC3",
      "componentType": 5126,
      "count": 140,
      "max": [
        3.924820899963379,
        -4.25,
        -1.0749201774597168
      ],
      "min": [
        -3.924820899963379,
        -6.250000953674316,
        -1.2250795364379883
      ],
      "bufferView": 0,
      "byteOffset": 0
    },
    {
      "type": "VEC3",
      "componentType": 5126,
      "count": 140,
      "bufferView": 0,
      "byteOffset": 12
    },
    {
      "type": "VEC2",
      "componentType": 5126,
      "count": 140,
      "bufferView": 0,
      "byteOffset": 24
    },
    {
      "type": "SCALAR",
      "componentType": 5123,
      "count": 396,
      "bufferView": 1,
      "byteOffset": 0
    },
    {
      "type": "SCALAR",
      "componentType": 5123,
      "count": 27504,
      "bufferView": 1,
      "byteOffset": 792
    },
    {
      "type": "SCALAR",
      "componentType": 5123,
      "count": 8064,
      "bufferView": 1,
      "byteOffset": 55800
    },
    {
      "type": "SCALAR",
      "componentType": 5123,
      "count": 2304,
      "bufferView": 1,
      "byteOffset": 71928
    },
    {
      "type": "SCALAR",
      "componentType": 5123,
      "count": 3264,
      "bufferView": 1,
      "byteOffset": 76536
    },
    {
      "type": "SCALAR",
      "componentType": 5123,
      "count": 1512,
      "bufferView": 1,
      "byteOffset": 83064
    },
    {
      "type": "VEC3",
      "componentType": 5126,
      "count": 13416,
      "max": [
        1.999999761581421,
        3.545454502105713,
        3.625
      ],
      "min": [
        -1.999999761581421,
        -3.545454502105713,
        -3.125
      ],
      "bufferView": 2,
      "byteOffset": 0
    },
    {
      "type": "VEC3",
      "componentType": 5126,
      "count": 13416,
      "bufferView": 2,
      "byteOffset": 12
    },
    {
      "type": "VEC2",
      "componentType": 5126,
      "count": 13416,
      "bufferView": 2,
      "byteOffset": 24
    },
    {
      "type": "VEC3",
      "componentType": 5126,
      "count": 3328,
      "max": [
        1.9904214143753052,
        5,
        1.9904214143753052
      ],
      "min": [
        -1.9904214143753052,
        -5,
        -1.9904215335845947
      ],
      "bufferView": 3,
      "byteOffset": 0
    },
    {
      "type": "VEC3",
      "componentType": 5126,
      "count": 3328,
      "bufferView": 3,
      "byteOffset": 12
    },
    {
      "type": "VEC2",
      "componentType": 5126,
      "count": 3328,
      "bufferView": 3,
      "byteOffset": 24
    },
    {
      "type": "VEC3",
      "componentType": 5126,
      "count": 816,
      "max": [
        1.9250798225402832,
        1.9250798225402832,
        0.8000000715255737
      ],
      "min": [
        -1.9250798225402832,
        -1.9250798225402832,
        -0.8000000715255737
      ],
      "bufferView": 4,
      "byteOffset": 0
    },
    {
      "type": "VEC3",
      "componentType": 5126,
      "count": 816,
      "bufferView": 4,
      "byteOffset": 12
    },
    {
      "type": "VEC2",
      "componentType": 5126,
      "count": 816,
      "bufferView": 4,
      "byteOffset": 24
    },
    {
      "type": "VEC3",
      "componentType": 5126,
      "count": 692,
      "max": [
        1.5111743211746216,
        1.5092148780822754,
        0.10050597041845322
      ],
      "min": [
        -1.5111743211746216,
        -1.5092148780822754,
        -0.14246749877929688
      ],
      "bufferView": 5,
      "byteOffset": 0
    },
    {
      "type": "VEC3",
      "componentType": 5126,
      "count": 692,
      "bufferView": 5,
      "byteOffset": 12
    },
    {
      "type": "VEC2",
      "componentType": 5126,
      "count": 692,
      "bufferView": 5,
      "byteOffset": 24
    },
    {
      "type": "VEC3",
      "componentType": 5126,
      "count": 772,
      "max": [
        1.4511823654174805,
        -6.100000381469727,
        1.448747158050537
      ],
      "min": [
        -1.4511823654174805,
        -7.800000190734863,
        -1.448747158050537
      ],
      "bufferView": 6,
      "byteOffset": 0
    },
    {
      "type": "VEC3",
      "componentType": 5126,
      "count": 772,
      "bufferView": 6,
      "byteOffset": 12
    },
    {
      "type": "VEC2",
      "componentType": 5126,
      "count": 772,
      "bufferView": 6,
      "byteOffset": 24
    }
  ],
  "bufferViews": [
    {
      "buffer": 0,
      "byteOffset": 0,
      "byteLength": 4480,
      "byteStride": 32,
      "target": 34962
    },
    {
      "buffer": 0,
      "byteOffset": 4480,
      "byteLength": 86088,
      "target": 34963
    },
    {
      "buffer": 0,
      "byteOffset": 90568,
      "byteLength": 429312,
      "byteStride": 32,
      "target": 34962
    },
    {
      "buffer": 0,
      "byteOffset": 519880,
      "byteLength": 106496,
      "byteStride": 32,
      "target": 34962
    },
    {
      "buffer": 0,
      "byteOffset": 626376,
      "byteLength": 26112,
      "byteStride": 32,
      "target": 34962
    },
    {
      "buffer": 0,
      "byteOffset": 652488,
      "byteLength": 22144,
      "byteStride": 32,
      "target": 34962
    },
    {
      "buffer": 0,
      "byteOffset": 674632,
      "byteLength": 24704,
      "byteStride": 32,
      "target": 34962
    }
  ],
  "samplers": [
    {
      "magFilter": 9729,
      "minFilter": 9987,
      "wrapS": 10497,
      "wrapT": 10497
    }
  ],
  "textures": [
    {
      "sampler": 0,
      "extensions": {
        "EXT_texture_webp": {
          "source": 0
        }
      }
    },
    {
      "sampler": 0,
      "extensions": {
        "EXT_texture_webp": {
          "source": 1
        }
      }
    },
    {
      "sampler": 0,
      "extensions": {
        "EXT_texture_webp": {
          "source": 4
        }
      }
    },
    {
      "sampler": 0,
      "extensions": {
        "EXT_texture_webp": {
          "source": 2
        }
      }
    },
    {
      "sampler": 0,
      "extensions": {
        "EXT_texture_webp": {
          "source": 3
        }
      }
    },
    {
      "sampler": 0,
      "extensions": {
        "EXT_texture_webp": {
          "source": 5
        }
      }
    },
    {
      "sampler": 0,
      "extensions": {
        "EXT_texture_webp": {
          "source": 8
        }
      }
    },
    {
      "sampler": 0,
      "extensions": {
        "EXT_texture_webp": {
          "source": 6
        }
      }
    },
    {
      "sampler": 0,
      "extensions": {
        "EXT_texture_webp": {
          "source": 7
        }
      }
    },
    {
      "sampler": 0,
      "extensions": {
        "EXT_texture_webp": {
          "source": 9
        }
      }
    },
    {
      "sampler": 0,
      "extensions": {
        "EXT_texture_webp": {
          "source": 10
        }
      }
    },
    {
      "sampler": 0,
      "extensions": {
        "EXT_texture_webp": {
          "source": 11
        }
      }
    }
  ],
  "images": [
    {
      "name": "unnamedmetal04",
      "mimeType": "image/webp",
      "uri": "unnamedmetal04.webp"
    },
    {
      "name": "unnamedmetal04_s",
      "mimeType": "image/webp",
      "uri": "unnamedmetal04_s.webp"
    },
    {
      "name": "zebra_emission",
      "mimeType": "image/webp",
      "uri": "zebra_emission.webp"
    },
    {
      "name": "zebra_normal",
      "mimeType": "image/webp",
      "uri": "zebra_normal.webp"
    },
    {
      "name": "zebra_diffuse",
      "mimeType": "image/webp",
      "uri": "zebra_diffuse.webp"
    },
    {
      "name": "zebra_metallic-zebra_roughness",
      "mimeType": "image/webp",
      "uri": "zebra_metallic-zebra_roughness.webp"
    },
    {
      "name": "zebra_barrel_emission",
      "mimeType": "image/webp",
      "uri": "zebra_barrel_emission.webp"
    },
    {
      "name": "zebra_barrel_normal",
      "mimeType": "image/webp",
      "uri": "zebra_barrel_normal.webp"
    },
    {
      "name": "zebra_barrel_diffuse",
      "mimeType": "image/webp",
      "uri": "zebra_barrel_diffuse.webp"
    },
    {
      "name": "zebra_barrel_metallic-zebra_barrel_roughness",
      "mimeType": "image/webp",
      "uri": "zebra_barrel_metallic-zebra_barrel_roughness.webp"
    },
    {
      "name": "gradient_cyan",
      "mimeType": "image/webp",
      "uri": "../textures/gradient_cyan.webp"
    },
    {
      "name": "gradient_blue_orange",
      "mimeType": "image/webp",
      "uri": "../textures/gradient_blue_orange.webp"
    }
  ],
  "buffers": [
    {
      "uri": "zebra.bin",
      "byteLength": 699336
    }
  ],
  "materials": [
    {
      "name": "metal",
      "pbrMetallicRoughness": {
        "roughnessFactor": 0.33329999446868896,
        "baseColorTexture": {
          "index": 0
        },
        "metallicRoughnessTexture": {
          "index": 1
        }
      }
    },
    {
      "name": "Material",
      "pbrMetallicRoughness": {
        "baseColorTexture": {
          "index": 2
        },
        "metallicRoughnessTexture": {
          "index": 5
        }
      },
      "emissiveFactor": [
        1,
        1,
        1
      ],
      "emissiveTexture": {
        "index": 3
      },
      "normalTexture": {
        "index": 4,
        "scale": 0.10000000149011612
      }
    },
    {
      "name": "Material.001",
      "pbrMetallicRoughness": {
        "baseColorTexture": {
          "index": 6
        },
        "metallicRoughnessTexture": {
          "index": 9
        }
      },
      "emissiveFactor": [
        1,
        1,
        1
      ],
      "emissiveTexture": {
        "index": 7
      },
      "normalTexture": {
        "index": 8
      }
    },
    {
      "name": "engine glow.001",
      "alphaMode": "BLEND",
      "pbrMetallicRoughness": {
        "roughnessFactor": 0.5,
        "metallicFactor": 0,
        "baseColorTexture": {
          "index": 10
        }
      },
      "emissiveFactor": [
        0.09084168076515198,
        0.41254284977912903,
        0.8962695002555847
      ]
    },
    {
      "name": "engine_glow_melendez",
      "alphaMode": "BLEND",
      "pbrMetallicRoughness": {
        "roughnessFactor": 0.75,
        "metallicFactor": 0,
        "baseColorTexture": {
          "index": 11
        }
      },
      "emissiveFactor": [
        1,
        1,
        1
      ],
      "emissiveTexture": {
        "index": 11
      }
    }
  ],
  "meshes": [
    {
      "name": "Cylinder.018",
      "primitives": [
        {
          "attributes": {
            "POSITION": 0,
            "NORMAL": 1,
            "TEXCOORD_0": 2
          },
          "mode": 4,
          "material": 0,
          "indices": 3
        }
      ]
    },
    {
      "name": "Cylinder.013",
      "primitives": [
        {
          "attributes": {
            "POSITION": 9,
            "NORMAL": 10,
            "TEXCOORD_0": 11
          },
          "mode": 4,
          "material": 1,
          "indices": 4
        }
      ]
    },
    {
      "name": "Cylinder.001",
      "primitives": [
        {
          "attributes": {
            "POSITION": 12,
            "NORMAL": 13,
            "TEXCOORD_0": 14
          },
          "mode": 4,
          "material": 2,
          "indices": 5
        }
      ]
    },
    {
      "name": "Cylinder.017",
      "primitives": [
        {
          "attributes": {
            "POSITION": 15,
            "NORMAL": 16,
            "TEXCOORD_0": 17
          },
          "mode": 4,
          "material": 0,
          "indices": 6
        }
      ]
    },
    {
      "name": "Sphere.001",
      "primitives": [
        {
          "attributes": {
            "POSITION": 18,
            "NORMAL": 19,
            "TEXCOORD_0": 20
          },
          "mode": 4,
          "material": 3,
          "indices": 7
        }
      ]
    },
    {
      "name": "Cylinder.002",
      "primitives": [
        {
          "attributes": {
            "POSITION": 21,
            "NORMAL": 22,
            "TEXCOORD_0": 23
          },
          "mode": 4,
          "material": 4,
          "indices": 8
        }
      ]
    }
  ],
  "nodes": [
    {
      "name": "Cylinder.001",
      "translation": [
        0,
        0,
        8
      ],
      "rotation": [
        0,
        -0.7071068286895752,
        0.7071068286895752,
        3.090862321641907e-8
      ],
      "scale": [
        -1,
        -1,
        -1
      ],
      "mesh": 0
    },
    {
      "name": "Cylinder.005",
      "translation": [
        0,
        0,
        2
      ],
      "rotation": [
        0.7071068286895752,
        0,
        0,
        0.7071068286895752
      ],
      "mesh": 0
    },
    {
      "name": "base",
      "rotation": [
        0,
        0,
        -0.7071068286895752,
        0.7071068286895752
      ],
      "scale": [
        1.100000023841858,
        1.100000023841858,
        2
      ],
      "mesh": 1
    },
    {
      "name": "BarrelLP",
      "rotation": [
        0.23603712022304535,
        0.6665481925010681,
        0.6665481925010681,
        0.23603712022304535
      ],
      "mesh": 2
    },
    {
      "name": "CylindersLP",
      "rotation": [
        0,
        0,
        0.94264155626297,
        0.33380693197250366
      ],
      "mesh": 3
    },
    {
      "name": "EngineGlow",
      "translation": [
        0,
        0,
        -6.309999942779541
      ],
      "scale": [
        1,
        1,
        1.5
      ],
      "mesh": 4
    },
    {
      "name": "EngineBeam",
      "translation": [
        0,
        0,
        -0.11701447516679764
      ],
      "rotation": [
        0.7071068286895752,
        0,
        0,
        0.7071068286895752
      ],
      "mesh": 5
    },
    {
      "name": "base",
      "rotation": [
        0,
        0,
        -0.7071068286895752,
        0.7071068286895752
      ],
      "scale": [
        1.100000023841858,
        1.100000023841858,
        2
      ],
      "mesh": 1
    },
    {
      "name": "Cylinder.001",
      "translation": [
        0,
        0,
        8
      ],
      "rotation": [
        0,
        -0.7071068286895752,
        0.7071068286895752,
        3.090862321641907e-8
      ],
      "scale": [
        -1,
        -1,
        -1
      ],
      "mesh": 0
    },
    {
      "name": "Cylinder.005",
      "translation": [
        0,
        0,
        2
      ],
      "rotation": [
        0.7071068286895752,
        0,
        0,
        0.7071068286895752
      ],
      "mesh": 0
    },
    {
      "name": "BarrelLP",
      "rotation": [
        0.23603712022304535,
        0.6665481925010681,
        0.6665481925010681,
        0.23603712022304535
      ],
      "mesh": 2
    },
    {
      "name": "CylindersLP",
      "rotation": [
        0,
        0,
        0.94264155626297,
        0.33380693197250366
      ],
      "mesh": 3
    },
    {
      "name": "mount_fb0",
      "extras": {
        "NAEV_weapon_mount": "0"
      },
      "translation": [
        1.8172743320465088,
        -1.8249269723892212,
        0.9372072219848633
      ]
    },
    {
      "name": "trail_bottom_left",
      "extras": {
        "NAEV_trail_generator": "default"
      },
      "translation": [
        1.2734899520874023,
        -1.282594919204712,
        -6.170660972595215
      ],
      "scale": [
        0.5768187046051025,
        0.5768187046051025,
        0.5768187046051025
      ]
    },
    {
      "name": "trail_bottom_right",
      "extras": {
        "NAEV_trail_generator": "default"
      },
      "translation": [
        -1.2734899520874023,
        -1.282594919204712,
        -6.170660972595215
      ],
      "scale": [
        0.5768187046051025,
        0.5768187046051025,
        0.5768187046051025
      ]
    },
    {
      "name": "trail_top_left",
      "extras": {
        "NAEV_trail_generator": "default"
      },
      "translation": [
        1.2734899520874023,
        1.2503306865692139,
        -6.170660972595215
      ],
      "scale": [
        0.5768187046051025,
        0.5768187046051025,
        0.5768187046051025
      ]
    },
    {
      "name": "trail_top_right",
      "extras": {
        "NAEV_trail_generator": "default"
      },
      "translation": [
        -1.2734899520874023,
        1.2503306865692139,
        -6.170660972595215
      ],
      "scale": [
        0.5768187046051025,
        0.5768187046051025,
        0.5768187046051025
      ]
    },
    {
      "name": "trail_nebula_bottom_left",
      "extras": {
        "NAEV_trail_generator": "nebula"
      },
      "translation": [
        3.8836371898651123,
        -1.164622187614441,
        1.8126411437988281
      ],
      "scale": [
        0.5768187046051025,
        0.5768187046051025,
        0.5768187046051025
      ]
    },
    {
      "name": "trail_nebula_bottom_right",
      "extras": {
        "NAEV_trail_generator": "nebula"
      },
      "translation": [
        -3.8836400508880615,
        -1.164622187614441,
        1.8126411437988281
      ],
      "scale": [
        0.5768187046051025,
        0.5768187046051025,
        0.5768187046051025
      ]
    },
    {
      "name": "trail_nebula_top_left",
      "extras": {
        "NAEV_trail_generator": "nebula"
      },
      "translation": [
        3.8836371898651123,
        1.135846734046936,
        -4.208082675933838
      ],
      "scale": [
        0.5768187046051025,
        0.5768187046051025,
        0.5768187046051025
      ]
    },
    {
      "name": "trail_nebula_top_right",
      "extras": {
        "NAEV_trail_generator": "nebula"
      },
      "translation": [
        -3.8836400508880615,
        1.135846734046936,
        -4.208082675933838
      ],
      "scale": [
        0.5768187046051025,
        0.5768187046051025,
        0.5768187046051025
      ]
    },
    {
      "name": "mount_fb1",
      "extras": {
        "NAEV_weapon_mount": "1"
      },
      "translation": [
        -1.817270040512085,
        -1.8249269723892212,
        -0.6996650695800781
      ]
    },
    {
      "name": "mount_2",
      "extras": {
        "NAEV_weapon_mount": "2"
      },
      "translation": [
        0,
        -1.490791916847229,
        6.245983600616455
      ]
    }
  ],
  "scenes": [
    {
      "name": "base",
      "nodes": [
        0,
        1,
        2,
        3,
        4
      ]
    },
    {
      "name": "engine",
      "nodes": [
        5,
        6,
        7,
        8,
        9,
        10,
        11
      ]
    },
    {
      "name": "meta",
      "nodes": [
        12,
        13,
        14,
        15,
        16,
        17,
        18,
        19,
        20,
        21,
        22
      ]
    }
  ],
  "scene": 0,
  "extensionsUsed": [
    "EXT_texture_webp"
  ],
  "extensionsRequired": [
    "EXT_texture_webp"
  ]
}
