{
  "asset": {
    "generator": "glTF-Transform v4.0.1",
    "version": "2.0"
  },
  "accessors": [
    {
      "type": "VEC3",
      "componentType": 5126,
      "count": 5792,
      "max": [
        13.06375789642334,
        117.87889099121094,
        4.084151268005371
      ],
      "min": [
        -3.591815710067749,
        -116.77281951904297,
        -6.236946105957031
      ],
      "bufferView": 0,
      "byteOffset": 0
    },
    {
      "type": "VEC3",
      "componentType": 5126,
      "count": 5792,
      "bufferView": 0,
      "byteOffset": 12
    },
    {
      "type": "VEC2",
      "componentType": 5126,
      "count": 5792,
      "bufferView": 0,
      "byteOffset": 24
    },
    {
      "type": "SCALAR",
      "componentType": 5123,
      "count": 8232,
      "bufferView": 1,
      "byteOffset": 0
    },
    {
      "type": "SCALAR",
      "componentType": 5123,
      "count": 2064,
      "bufferView": 1,
      "byteOffset": 16464
    },
    {
      "type": "SCALAR",
      "componentType": 5123,
      "count": 3672,
      "bufferView": 1,
      "byteOffset": 20592
    },
    {
      "type": "SCALAR",
      "componentType": 5123,
      "count": 2064,
      "bufferView": 1,
      "byteOffset": 27936
    },
    {
      "type": "SCALAR",
      "componentType": 5123,
      "count": 864,
      "bufferView": 1,
      "byteOffset": 32064
    },
    {
      "type": "VEC3",
      "componentType": 5126,
      "count": 1408,
      "max": [
        9.397185325622559,
        80.33036804199219,
        6.305254936218262
      ],
      "min": [
        -7.1280131340026855,
        -79.62882995605469,
        -5.357352256774902
      ],
      "bufferView": 2,
      "byteOffset": 0
    },
    {
      "type": "VEC3",
      "componentType": 5126,
      "count": 1408,
      "bufferView": 2,
      "byteOffset": 12
    },
    {
      "type": "VEC2",
      "componentType": 5126,
      "count": 1408,
      "bufferView": 2,
      "byteOffset": 24
    },
    {
      "type": "VEC3",
      "componentType": 5126,
      "count": 2736,
      "max": [
        6.989804267883301,
        70.84691619873047,
        2.2416470050811768
      ],
      "min": [
        -3.070671558380127,
        -70.27259063720703,
        -3.3017594814300537
      ],
      "bufferView": 3,
      "byteOffset": 0
    },
    {
      "type": "VEC3",
      "componentType": 5126,
      "count": 2736,
      "bufferView": 3,
      "byteOffset": 12
    },
    {
      "type": "VEC2",
      "componentType": 5126,
      "count": 2736,
      "bufferView": 3,
      "byteOffset": 24
    },
    {
      "type": "VEC3",
      "componentType": 5126,
      "count": 1408,
      "max": [
        11.629776000976562,
        79.83934020996094,
        2.0236494541168213
      ],
      "min": [
        -2.1902594566345215,
        -79.22699737548828,
        -4.8454155921936035
      ],
      "bufferView": 4,
      "byteOffset": 0
    },
    {
      "type": "VEC3",
      "componentType": 5126,
      "count": 1408,
      "bufferView": 4,
      "byteOffset": 12
    },
    {
      "type": "VEC2",
      "componentType": 5126,
      "count": 1408,
      "bufferView": 4,
      "byteOffset": 24
    },
    {
      "type": "VEC3",
      "componentType": 5126,
      "count": 150,
      "max": [
        2.723417282104492,
        7.839353561401367,
        3.0011649131774902
      ],
      "min": [
        -1.0329029560089111,
        5.343663692474365,
        -3.125095844268799
      ],
      "bufferView": 5,
      "byteOffset": 0
    },
    {
      "type": "VEC3",
      "componentType": 5126,
      "count": 150,
      "bufferView": 5,
      "byteOffset": 12
    },
    {
      "type": "VEC2",
      "componentType": 5126,
      "count": 150,
      "bufferView": 5,
      "byteOffset": 24
    }
  ],
  "bufferViews": [
    {
      "buffer": 0,
      "byteOffset": 0,
      "byteLength": 185344,
      "byteStride": 32,
      "target": 34962
    },
    {
      "buffer": 0,
      "byteOffset": 185344,
      "byteLength": 33792,
      "target": 34963
    },
    {
      "buffer": 0,
      "byteOffset": 219136,
      "byteLength": 45056,
      "byteStride": 32,
      "target": 34962
    },
    {
      "buffer": 0,
      "byteOffset": 264192,
      "byteLength": 87552,
      "byteStride": 32,
      "target": 34962
    },
    {
      "buffer": 0,
      "byteOffset": 351744,
      "byteLength": 45056,
      "byteStride": 32,
      "target": 34962
    },
    {
      "buffer": 0,
      "byteOffset": 396800,
      "byteLength": 4800,
      "byteStride": 32,
      "target": 34962
    }
  ],
  "samplers": [
    {
      "magFilter": 9729,
      "minFilter": 9987,
      "wrapS": 10497,
      "wrapT": 10497
    }
  ],
  "textures": [
    {
      "sampler": 0,
      "extensions": {
        "EXT_texture_webp": {
          "source": 0
        }
      }
    },
    {
      "sampler": 0,
      "extensions": {
        "EXT_texture_webp": {
          "source": 1
        }
      }
    },
    {
      "sampler": 0,
      "extensions": {
        "EXT_texture_webp": {
          "source": 2
        }
      }
    },
    {
      "sampler": 0,
      "extensions": {
        "EXT_texture_webp": {
          "source": 4
        }
      }
    },
    {
      "sampler": 0,
      "extensions": {
        "EXT_texture_webp": {
          "source": 3
        }
      }
    },
    {
      "sampler": 0,
      "extensions": {
        "EXT_texture_webp": {
          "source": 5
        }
      }
    }
  ],
  "images": [
    {
      "name": "hull_VDarkGray",
      "mimeType": "image/webp",
      "uri": "../textures/hull_VDarkGray.webp"
    },
    {
      "name": "Cracked_Flesh_DarkRed",
      "mimeType": "image/webp",
      "uri": "../textures/Cracked_Flesh_DarkRed.webp"
    },
    {
      "name": "OrangeExaust",
      "mimeType": "image/webp",
      "uri": "../textures/OrangeExaust.webp"
    },
    {
      "name": "RedBrownVeinedFlesh_glow",
      "mimeType": "image/webp",
      "uri": "../textures/RedBrownVeinedFlesh_glow.webp"
    },
    {
      "name": "RedBrownVeinedFlesh",
      "mimeType": "image/webp",
      "uri": "../textures/RedBrownVeinedFlesh.webp"
    },
    {
      "name": "gradient_soromid",
      "mimeType": "image/webp",
      "uri": "../textures/gradient_soromid.webp"
    }
  ],
  "buffers": [
    {
      "uri": "reaver.bin",
      "byteLength": 401600
    }
  ],
  "materials": [
    {
      "name": "soromid_hull",
      "pbrMetallicRoughness": {
        "roughnessFactor": 0.6000000238418579,
        "metallicFactor": 0.20000000298023224,
        "baseColorTexture": {
          "index": 0
        }
      }
    },
    {
      "name": "soromid_carapace",
      "pbrMetallicRoughness": {
        "roughnessFactor": 0.75,
        "metallicFactor": 0,
        "baseColorTexture": {
          "index": 1
        }
      }
    },
    {
      "name": "soromid_glow",
      "alphaMode": "BLEND",
      "pbrMetallicRoughness": {
        "baseColorFactor": [
          0.4171862304210663,
          0.28630998730659485,
          0.013797817751765251,
          1
        ],
        "roughnessFactor": 0.5,
        "metallicFactor": 0,
        "baseColorTexture": {
          "index": 2
        }
      },
      "emissiveFactor": [
        1,
        1,
        1
      ],
      "emissiveTexture": {
        "index": 2
      },
      "extensions": {
        "KHR_materials_emissive_strength": {
          "emissiveStrength": 2
        }
      }
    },
    {
      "name": "soromid_flesh",
      "pbrMetallicRoughness": {
        "roughnessFactor": 0.8999999761581421,
        "metallicFactor": 0,
        "baseColorTexture": {
          "index": 3
        }
      },
      "emissiveFactor": [
        1,
        1,
        1
      ],
      "emissiveTexture": {
        "index": 4
      }
    },
    {
      "name": "soromid_engine_glow",
      "alphaMode": "BLEND",
      "pbrMetallicRoughness": {
        "roughnessFactor": 0.75,
        "metallicFactor": 0,
        "baseColorTexture": {
          "index": 5
        }
      },
      "emissiveFactor": [
        1,
        1,
        1
      ],
      "emissiveTexture": {
        "index": 5
      },
      "extensions": {
        "KHR_materials_emissive_strength": {
          "emissiveStrength": 2
        }
      }
    }
  ],
  "meshes": [
    {
      "name": "body",
      "primitives": [
        {
          "attributes": {
            "POSITION": 0,
            "NORMAL": 1,
            "TEXCOORD_0": 2
          },
          "mode": 4,
          "material": 0,
          "indices": 3
        },
        {
          "attributes": {
            "POSITION": 8,
            "NORMAL": 9,
            "TEXCOORD_0": 10
          },
          "mode": 4,
          "material": 1,
          "indices": 4
        },
        {
          "attributes": {
            "POSITION": 11,
            "NORMAL": 12,
            "TEXCOORD_0": 13
          },
          "mode": 4,
          "material": 2,
          "indices": 5
        },
        {
          "attributes": {
            "POSITION": 14,
            "NORMAL": 15,
            "TEXCOORD_0": 16
          },
          "mode": 4,
          "material": 3,
          "indices": 6
        }
      ]
    },
    {
      "name": "engine",
      "primitives": [
        {
          "attributes": {
            "POSITION": 17,
            "NORMAL": 18,
            "TEXCOORD_0": 19
          },
          "mode": 4,
          "material": 4,
          "indices": 7
        }
      ]
    }
  ],
  "nodes": [
    {
      "name": "body",
      "rotation": [
        0.14944282174110413,
        0.15047161281108856,
        -0.688648521900177,
        0.6933890581130981
      ],
      "scale": [
        0.151651993393898,
        0.023449815809726715,
        0.7267007827758789
      ],
      "mesh": 0
    },
    {
      "name": "engine",
      "rotation": [
        -0.5008711814880371,
        0.49912741780281067,
        -0.4991273880004883,
        0.5008711814880371
      ],
      "scale": [
        0.19846795499324799,
        0.5762587785720825,
        0.19846795499324799
      ],
      "mesh": 1
    },
    {
      "name": "body",
      "rotation": [
        0.14944282174110413,
        0.15047161281108856,
        -0.688648521900177,
        0.6933890581130981
      ],
      "scale": [
        0.151651993393898,
        0.023449815809726715,
        0.7267007827758789
      ],
      "mesh": 0
    },
    {
      "name": "mount_small_left",
      "extras": {
        "NAEV_weapon_mount": "0"
      },
      "translation": [
        1.4654285907745361,
        0.12341737747192383,
        -0.6222286224365234
      ],
      "scale": [
        0.3682247996330261,
        0.3682247996330261,
        0.3682247996330261
      ]
    },
    {
      "name": "trail_center",
      "extras": {
        "NAEV_trail_generator": "soromid"
      },
      "translation": [
        0,
        0.007088363170623779,
        -3.298429489135742
      ],
      "scale": [
        0.3682247996330261,
        0.3682247996330261,
        0.3682247996330261
      ]
    },
    {
      "name": "trail_left",
      "extras": {
        "NAEV_trail_generator": "soromidS"
      },
      "translation": [
        0.4580382704734802,
        -0.3683529198169708,
        -3.298429489135742
      ],
      "scale": [
        0.3682247996330261,
        0.3682247996330261,
        0.3682247996330261
      ]
    },
    {
      "name": "trail_right",
      "extras": {
        "NAEV_trail_generator": "soromidS"
      },
      "translation": [
        -0.45803800225257874,
        -0.3683529198169708,
        -3.298429489135742
      ],
      "scale": [
        0.3682247996330261,
        0.3682247996330261,
        0.3682247996330261
      ]
    },
    {
      "name": "trail_nebula_left",
      "extras": {
        "NAEV_trail_generator": "nebula"
      },
      "translation": [
        2.7088277339935303,
        0.3301679790019989,
        -3.860903739929199
      ],
      "scale": [
        0.3682247996330261,
        0.3682247996330261,
        0.3682247996330261
      ]
    },
    {
      "name": "trail_nebula_right",
      "extras": {
        "NAEV_trail_generator": "nebula"
      },
      "translation": [
        -2.7088301181793213,
        0.3301679790019989,
        -3.860903739929199
      ],
      "scale": [
        0.3682247996330261,
        0.3682247996330261,
        0.3682247996330261
      ]
    },
    {
      "name": "mount_small_right",
      "extras": {
        "NAEV_weapon_mount": "1"
      },
      "translation": [
        -1.4654300212860107,
        0.12341737747192383,
        -0.6222286224365234
      ],
      "scale": [
        0.3682247996330261,
        0.3682247996330261,
        0.3682247996330261
      ]
    },
    {
      "name": "mount_medium2",
      "extras": {
        "NAEV_weapon_mount": "2"
      },
      "translation": [
        -0.2877277135848999,
        0.5884121656417847,
        -0.3278120756149292
      ],
      "scale": [
        0.3682247996330261,
        0.3682247996330261,
        0.3682247996330261
      ]
    },
    {
      "name": "mount_medium3",
      "extras": {
        "NAEV_weapon_mount": "3"
      },
      "translation": [
        0,
        -0.5552237033843994,
        1.5127613544464111
      ],
      "scale": [
        0.3682247996330261,
        0.3682247996330261,
        0.3682247996330261
      ]
    }
  ],
  "scenes": [
    {
      "name": "base",
      "nodes": [
        0
      ]
    },
    {
      "name": "engine",
      "nodes": [
        1,
        2
      ]
    },
    {
      "name": "meta",
      "nodes": [
        3,
        4,
        5,
        6,
        7,
        8,
        9,
        10,
        11
      ]
    }
  ],
  "scene": 0,
  "extensionsUsed": [
    "EXT_texture_webp",
    "KHR_materials_emissive_strength"
  ],
  "extensionsRequired": [
    "EXT_texture_webp"
  ]
}
