{
  "asset": {
    "generator": "glTF-Transform v4.0.1",
    "version": "2.0"
  },
  "accessors": [
    {
      "type": "VEC3",
      "componentType": 5126,
      "count": 1884,
      "max": [
        3.4582715034484863,
        7.1666669845581055,
        7.157464027404785
      ],
      "min": [
        -3.4582715034484863,
        -4.8333330154418945,
        -6.157464027404785
      ],
      "bufferView": 0,
      "byteOffset": 0
    },
    {
      "type": "VEC3",
      "componentType": 5126,
      "count": 1884,
      "bufferView": 0,
      "byteOffset": 12
    },
    {
      "type": "VEC2",
      "componentType": 5126,
      "count": 1884,
      "bufferView": 0,
      "byteOffset": 24
    },
    {
      "type": "SCALAR",
      "componentType": 5123,
      "count": 7266,
      "bufferView": 1,
      "byteOffset": 0
    },
    {
      "type": "SCALAR",
      "componentType": 5123,
      "count": 480,
      "bufferView": 1,
      "byteOffset": 14532
    },
    {
      "type": "VEC3",
      "componentType": 5126,
      "count": 112,
      "max": [
        1.2187319993972778,
        -1.8702738285064697,
        0.4082334339618683
      ],
      "min": [
        -1.2187317609786987,
        -4.008161544799805,
        -0.4082334339618683
      ],
      "bufferView": 2,
      "byteOffset": 0
    },
    {
      "type": "VEC3",
      "componentType": 5126,
      "count": 112,
      "bufferView": 2,
      "byteOffset": 12
    },
    {
      "type": "VEC2",
      "componentType": 5126,
      "count": 112,
      "bufferView": 2,
      "byteOffset": 24
    }
  ],
  "bufferViews": [
    {
      "buffer": 0,
      "byteOffset": 0,
      "byteLength": 60288,
      "byteStride": 32,
      "target": 34962
    },
    {
      "buffer": 0,
      "byteOffset": 60288,
      "byteLength": 15492,
      "target": 34963
    },
    {
      "buffer": 0,
      "byteOffset": 75780,
      "byteLength": 3584,
      "byteStride": 32,
      "target": 34962
    }
  ],
  "samplers": [
    {
      "magFilter": 9729,
      "minFilter": 9987,
      "wrapS": 10497,
      "wrapT": 10497
    }
  ],
  "textures": [
    {
      "sampler": 0,
      "extensions": {
        "EXT_texture_webp": {
          "source": 3
        }
      }
    },
    {
      "sampler": 0,
      "extensions": {
        "EXT_texture_webp": {
          "source": 0
        }
      }
    },
    {
      "sampler": 0,
      "extensions": {
        "EXT_texture_webp": {
          "source": 1
        }
      }
    },
    {
      "sampler": 0,
      "extensions": {
        "EXT_texture_webp": {
          "source": 2
        }
      }
    },
    {
      "sampler": 0,
      "extensions": {
        "EXT_texture_webp": {
          "source": 4
        }
      }
    },
    {
      "sampler": 0,
      "extensions": {
        "EXT_texture_webp": {
          "source": 5
        }
      }
    }
  ],
  "images": [
    {
      "name": "fighter05_emission",
      "mimeType": "image/webp",
      "uri": "fighter05_emission.webp"
    },
    {
      "name": "fighter05_normal",
      "mimeType": "image/webp",
      "uri": "fighter05_normal.webp"
    },
    {
      "name": "AO_bake",
      "mimeType": "image/webp",
      "uri": "AO_bake.webp"
    },
    {
      "name": "fighter05_diffuse",
      "mimeType": "image/webp",
      "uri": "fighter05_diffuse.webp"
    },
    {
      "name": "GLO_bake",
      "mimeType": "image/webp",
      "uri": "GLO_bake.webp"
    },
    {
      "name": "gradient_pale",
      "mimeType": "image/webp",
      "uri": "../textures/gradient_pale.webp"
    }
  ],
  "buffers": [
    {
      "uri": "perspicacity.bin",
      "byteLength": 79364
    }
  ],
  "materials": [
    {
      "name": "base",
      "pbrMetallicRoughness": {
        "roughnessFactor": 0.699999988079071,
        "metallicFactor": 0.699999988079071,
        "baseColorTexture": {
          "index": 0
        }
      },
      "emissiveFactor": [
        1,
        1,
        1
      ],
      "emissiveTexture": {
        "index": 1
      },
      "normalTexture": {
        "index": 2
      },
      "occlusionTexture": {
        "index": 3
      }
    },
    {
      "name": "base_glow",
      "pbrMetallicRoughness": {
        "roughnessFactor": 0.699999988079071,
        "metallicFactor": 0.699999988079071,
        "baseColorTexture": {
          "index": 0
        }
      },
      "emissiveFactor": [
        1,
        1,
        1
      ],
      "emissiveTexture": {
        "index": 4
      },
      "normalTexture": {
        "index": 2
      },
      "occlusionTexture": {
        "index": 3
      }
    },
    {
      "name": "engine_glow_thurion_solid",
      "alphaMode": "BLEND",
      "pbrMetallicRoughness": {
        "roughnessFactor": 0.75,
        "metallicFactor": 0,
        "baseColorTexture": {
          "index": 5
        }
      },
      "emissiveFactor": [
        1,
        1,
        1
      ],
      "emissiveTexture": {
        "index": 5
      }
    }
  ],
  "meshes": [
    {
      "name": "base",
      "primitives": [
        {
          "attributes": {
            "POSITION": 0,
            "NORMAL": 1,
            "TEXCOORD_0": 2
          },
          "mode": 4,
          "material": 0,
          "indices": 3
        }
      ]
    },
    {
      "name": "base",
      "primitives": [
        {
          "attributes": {
            "POSITION": 0,
            "NORMAL": 1,
            "TEXCOORD_0": 2
          },
          "mode": 4,
          "material": 1,
          "indices": 3
        }
      ]
    },
    {
      "name": "glow",
      "primitives": [
        {
          "attributes": {
            "POSITION": 5,
            "NORMAL": 6,
            "TEXCOORD_0": 7
          },
          "mode": 4,
          "material": 2,
          "indices": 4
        }
      ]
    }
  ],
  "nodes": [
    {
      "name": "base",
      "rotation": [
        0.7071068286895752,
        0,
        0,
        0.7071068286895752
      ],
      "scale": [
        0.550000011920929,
        0.550000011920929,
        0.550000011920929
      ],
      "mesh": 0
    },
    {
      "name": "base_glow",
      "rotation": [
        0.7071068286895752,
        0,
        0,
        0.7071068286895752
      ],
      "scale": [
        0.550000011920929,
        0.550000011920929,
        0.550000011920929
      ],
      "mesh": 1
    },
    {
      "name": "glow",
      "rotation": [
        0.5,
        -0.5,
        -0.5,
        0.5
      ],
      "scale": [
        0.550000011920929,
        1.149999976158142,
        0.550000011920929
      ],
      "mesh": 2
    },
    {
      "name": "mount_small",
      "extras": {
        "NAEV_weapon_mount": "0"
      },
      "translation": [
        0,
        -0.7366770505905151,
        3.085796356201172
      ],
      "scale": [
        0.5957980155944824,
        0.5957980155944824,
        0.5957980155944824
      ]
    },
    {
      "name": "trail_top",
      "extras": {
        "NAEV_trail_generator": "thurionS"
      },
      "translation": [
        0,
        0.4345163106918335,
        -2.301445484161377
      ],
      "scale": [
        0.4522148072719574,
        0.4522148072719574,
        0.4522148072719574
      ]
    },
    {
      "name": "trail_bottom",
      "extras": {
        "NAEV_trail_generator": "thurionS"
      },
      "translation": [
        0,
        -0.41851574182510376,
        -2.301445484161377
      ],
      "scale": [
        0.4522148072719574,
        0.4522148072719574,
        0.4522148072719574
      ]
    },
    {
      "name": "trail_nebula_top",
      "extras": {
        "NAEV_trail_generator": "nebulaS"
      },
      "translation": [
        0,
        3.3999342918395996,
        -1.3497529029846191
      ],
      "scale": [
        0.4522148072719574,
        0.4522148072719574,
        0.4522148072719574
      ]
    },
    {
      "name": "trail_nebula_bottom",
      "extras": {
        "NAEV_trail_generator": "nebulaS"
      },
      "translation": [
        0,
        -3.9102578163146973,
        -1.3083750009536743
      ],
      "scale": [
        0.4522148072719574,
        0.4522148072719574,
        0.4522148072719574
      ]
    }
  ],
  "scenes": [
    {
      "name": "base",
      "extras": {
        "BBB_props": {
          "image_settings": {}
        }
      },
      "nodes": [
        0
      ]
    },
    {
      "name": "engine",
      "nodes": [
        1,
        2
      ]
    },
    {
      "name": "meta",
      "nodes": [
        3,
        4,
        5,
        6,
        7
      ]
    }
  ],
  "scene": 0,
  "extensionsUsed": [
    "EXT_texture_webp"
  ],
  "extensionsRequired": [
    "EXT_texture_webp"
  ]
}
