{
  "asset": {
    "generator": "glTF-Transform v4.0.1",
    "version": "2.0"
  },
  "accessors": [
    {
      "type": "VEC3",
      "componentType": 5126,
      "count": 4968,
      "max": [
        3.250007152557373,
        3.056298017501831,
        1.3436753749847412
      ],
      "min": [
        -3.249995231628418,
        -5.143754005432129,
        -1.1312800645828247
      ],
      "bufferView": 0,
      "byteOffset": 0
    },
    {
      "type": "VEC3",
      "componentType": 5126,
      "count": 4968,
      "bufferView": 0,
      "byteOffset": 12
    },
    {
      "type": "VEC2",
      "componentType": 5126,
      "count": 4968,
      "bufferView": 0,
      "byteOffset": 24
    },
    {
      "type": "SCALAR",
      "componentType": 5123,
      "count": 16632,
      "bufferView": 1,
      "byteOffset": 0
    },
    {
      "type": "SCALAR",
      "componentType": 5123,
      "count": 2376,
      "bufferView": 1,
      "byteOffset": 33264
    },
    {
      "type": "SCALAR",
      "componentType": 5123,
      "count": 276,
      "bufferView": 1,
      "byteOffset": 38016
    },
    {
      "type": "VEC3",
      "componentType": 5126,
      "count": 450,
      "max": [
        2.661982774734497,
        0.9375832676887512,
        6.333353042602539
      ],
      "min": [
        -2.661982774734497,
        -0.05758314207196236,
        4.333333492279053
      ],
      "bufferView": 2,
      "byteOffset": 0
    },
    {
      "type": "VEC3",
      "componentType": 5126,
      "count": 450,
      "bufferView": 2,
      "byteOffset": 12
    },
    {
      "type": "VEC2",
      "componentType": 5126,
      "count": 450,
      "bufferView": 2,
      "byteOffset": 24
    },
    {
      "type": "VEC3",
      "componentType": 5126,
      "count": 92,
      "max": [
        1.660605788230896,
        1.8663687705993652,
        8.679542541503906
      ],
      "min": [
        -1.660605788230896,
        0.38363128900527954,
        6.154544830322266
      ],
      "bufferView": 3,
      "byteOffset": 0
    },
    {
      "type": "VEC3",
      "componentType": 5126,
      "count": 92,
      "bufferView": 3,
      "byteOffset": 12
    },
    {
      "type": "VEC2",
      "componentType": 5126,
      "count": 92,
      "bufferView": 3,
      "byteOffset": 24
    }
  ],
  "bufferViews": [
    {
      "buffer": 0,
      "byteOffset": 0,
      "byteLength": 158976,
      "byteStride": 32,
      "target": 34962
    },
    {
      "buffer": 0,
      "byteOffset": 158976,
      "byteLength": 38568,
      "target": 34963
    },
    {
      "buffer": 0,
      "byteOffset": 197544,
      "byteLength": 14400,
      "byteStride": 32,
      "target": 34962
    },
    {
      "buffer": 0,
      "byteOffset": 211944,
      "byteLength": 2944,
      "byteStride": 32,
      "target": 34962
    }
  ],
  "samplers": [
    {
      "magFilter": 9729,
      "minFilter": 9987,
      "wrapS": 10497,
      "wrapT": 10497
    }
  ],
  "textures": [
    {
      "sampler": 0,
      "extensions": {
        "EXT_texture_webp": {
          "source": 3
        }
      }
    },
    {
      "sampler": 0,
      "extensions": {
        "EXT_texture_webp": {
          "source": 0
        }
      }
    },
    {
      "sampler": 0,
      "extensions": {
        "EXT_texture_webp": {
          "source": 1
        }
      }
    },
    {
      "sampler": 0,
      "extensions": {
        "EXT_texture_webp": {
          "source": 2
        }
      }
    },
    {
      "sampler": 0,
      "extensions": {
        "EXT_texture_webp": {
          "source": 5
        }
      }
    },
    {
      "sampler": 0,
      "extensions": {
        "EXT_texture_webp": {
          "source": 4
        }
      }
    },
    {
      "sampler": 0,
      "extensions": {
        "EXT_texture_webp": {
          "source": 6
        }
      }
    }
  ],
  "images": [
    {
      "name": "starbridge_pirate_emit",
      "mimeType": "image/webp",
      "uri": "starbridge_pirate_emit.webp"
    },
    {
      "name": "starbridge_pirate_normal",
      "mimeType": "image/webp",
      "uri": "starbridge_pirate_normal.webp"
    },
    {
      "name": "AO_bake_pirate-starbridge_pirate_roughness-starbridge_pirate_metallic",
      "mimeType": "image/webp",
      "uri": "AO_bake_pirate-starbridge_pirate_roughness-starbridge_pirate_metallic.webp"
    },
    {
      "name": "starbridge_pirate_diffuse",
      "mimeType": "image/webp",
      "uri": "starbridge_pirate_diffuse.webp"
    },
    {
      "name": "gradient_red",
      "mimeType": "image/webp",
      "uri": "gradient_red.webp"
    },
    {
      "name": "gradient_cyan",
      "mimeType": "image/webp",
      "uri": "../textures/gradient_cyan.webp"
    },
    {
      "name": "GLO_bake_pirate",
      "mimeType": "image/webp",
      "uri": "GLO_bake_pirate.webp"
    }
  ],
  "buffers": [
    {
      "uri": "starbridge_pirate.bin",
      "byteLength": 214888
    }
  ],
  "materials": [
    {
      "name": "base",
      "pbrMetallicRoughness": {
        "baseColorTexture": {
          "index": 0
        },
        "metallicRoughnessTexture": {
          "index": 3
        }
      },
      "emissiveFactor": [
        1,
        1,
        1
      ],
      "emissiveTexture": {
        "index": 1
      },
      "normalTexture": {
        "index": 2
      },
      "occlusionTexture": {
        "index": 3
      }
    },
    {
      "name": "engine glow.001",
      "alphaMode": "BLEND",
      "pbrMetallicRoughness": {
        "baseColorFactor": [
          1,
          0.07421362400054932,
          0.04970657825469971,
          1
        ],
        "roughnessFactor": 0.75,
        "metallicFactor": 0,
        "baseColorTexture": {
          "index": 4
        }
      },
      "emissiveFactor": [
        1,
        1,
        1
      ],
      "emissiveTexture": {
        "index": 5
      }
    },
    {
      "name": "base_glow",
      "pbrMetallicRoughness": {
        "baseColorTexture": {
          "index": 0
        },
        "metallicRoughnessTexture": {
          "index": 3
        }
      },
      "emissiveFactor": [
        1,
        1,
        1
      ],
      "emissiveTexture": {
        "index": 6
      },
      "normalTexture": {
        "index": 2
      },
      "occlusionTexture": {
        "index": 3
      }
    }
  ],
  "meshes": [
    {
      "name": "Base",
      "primitives": [
        {
          "attributes": {
            "POSITION": 0,
            "NORMAL": 1,
            "TEXCOORD_0": 2
          },
          "mode": 4,
          "material": 0,
          "indices": 3
        }
      ]
    },
    {
      "name": "Sphere.003",
      "primitives": [
        {
          "attributes": {
            "POSITION": 6,
            "NORMAL": 7,
            "TEXCOORD_0": 8
          },
          "mode": 4,
          "material": 1,
          "indices": 4
        }
      ]
    },
    {
      "name": "Cube.003",
      "primitives": [
        {
          "attributes": {
            "POSITION": 9,
            "NORMAL": 10,
            "TEXCOORD_0": 11
          },
          "mode": 4,
          "material": 1,
          "indices": 5
        }
      ]
    },
    {
      "name": "Base",
      "primitives": [
        {
          "attributes": {
            "POSITION": 0,
            "NORMAL": 1,
            "TEXCOORD_0": 2
          },
          "mode": 4,
          "material": 2,
          "indices": 3
        }
      ]
    }
  ],
  "nodes": [
    {
      "name": "Base",
      "rotation": [
        0,
        -0.7933533787727356,
        0.6087613701820374,
        3.467857112582351e-8
      ],
      "scale": [
        2,
        2,
        2
      ],
      "mesh": 0
    },
    {
      "name": "glow2.001",
      "translation": [
        0,
        -0.6190646290779114,
        1.8660008907318115
      ],
      "rotation": [
        0,
        1,
        0,
        7.549790836947068e-8
      ],
      "scale": [
        0.75,
        2.5,
        1.5
      ],
      "mesh": 1
    },
    {
      "name": "EngineGlow.001",
      "translation": [
        0,
        -0.6190646290779114,
        1.8660008907318115
      ],
      "rotation": [
        0,
        1,
        0,
        7.549790126404332e-8
      ],
      "scale": [
        1,
        1,
        1.100000023841858
      ],
      "mesh": 2
    },
    {
      "name": "Base Glow",
      "rotation": [
        0,
        -0.7933533787727356,
        0.6087613701820374,
        3.467857112582351e-8
      ],
      "scale": [
        2,
        2,
        2
      ],
      "mesh": 3
    },
    {
      "name": "mount_large0",
      "extras": {
        "NAEV_weapon_mount": "0"
      },
      "translation": [
        2.4323158264160156,
        -0.44648680090904236,
        2.5141210556030273
      ]
    },
    {
      "name": "mount_large1",
      "extras": {
        "NAEV_weapon_mount": "1"
      },
      "translation": [
        -2.4323201179504395,
        -0.44648680090904236,
        2.5141210556030273
      ]
    },
    {
      "name": "mount_medium2",
      "extras": {
        "NAEV_weapon_mount": "2"
      },
      "translation": [
        4.464580535888672,
        -1.4775086641311646,
        -1.9754571914672852
      ]
    },
    {
      "name": "mount_medium3",
      "extras": {
        "NAEV_weapon_mount": "3"
      },
      "translation": [
        -4.464580059051514,
        -1.4775086641311646,
        -1.9754571914672852
      ]
    },
    {
      "name": "mount_small4",
      "extras": {
        "NAEV_weapon_mount": "4"
      },
      "translation": [
        1.4211616516113281,
        -1.060339331626892,
        7.776811599731445
      ]
    },
    {
      "name": "mount_small5",
      "extras": {
        "NAEV_weapon_mount": "5"
      },
      "translation": [
        -1.4211599826812744,
        -1.060339331626892,
        7.776811599731445
      ]
    },
    {
      "name": "trail_nebula_left",
      "extras": {
        "NAEV_trail_generator": "nebula"
      },
      "translation": [
        6.415747165679932,
        -1.3758063316345215,
        -5.394205570220947
      ]
    },
    {
      "name": "trail_nebula_right",
      "extras": {
        "NAEV_trail_generator": "nebula"
      },
      "translation": [
        -6.415750026702881,
        -1.3758063316345215,
        -5.394205570220947
      ]
    },
    {
      "name": "trail_left",
      "extras": {
        "NAEV_trail_generator": "pirate"
      },
      "translation": [
        1.216817021369934,
        0.5194562077522278,
        -4.959512710571289
      ]
    },
    {
      "name": "trail_right",
      "extras": {
        "NAEV_trail_generator": "pirate"
      },
      "translation": [
        -1.2168200016021729,
        0.5194562077522278,
        -4.959512710571289
      ]
    }
  ],
  "scenes": [
    {
      "name": "base",
      "nodes": [
        0
      ]
    },
    {
      "name": "engine",
      "nodes": [
        1,
        2,
        3
      ]
    },
    {
      "name": "meta",
      "nodes": [
        4,
        5,
        6,
        7,
        8,
        9,
        10,
        11,
        12,
        13
      ]
    }
  ],
  "scene": 0,
  "extensionsUsed": [
    "EXT_texture_webp"
  ],
  "extensionsRequired": [
    "EXT_texture_webp"
  ]
}
