{
  "asset": {
    "generator": "glTF-Transform v4.0.1",
    "version": "2.0"
  },
  "accessors": [
    {
      "type": "VEC3",
      "componentType": 5126,
      "count": 4863,
      "max": [
        4.3567118644714355,
        4.880187034606934,
        1.369791030883789
      ],
      "min": [
        -4.3567118644714355,
        -3.7621874809265137,
        -0.8468334674835205
      ],
      "bufferView": 0,
      "byteOffset": 0
    },
    {
      "type": "VEC3",
      "componentType": 5126,
      "count": 4863,
      "bufferView": 0,
      "byteOffset": 12
    },
    {
      "type": "VEC2",
      "componentType": 5126,
      "count": 4863,
      "bufferView": 0,
      "byteOffset": 24
    },
    {
      "type": "SCALAR",
      "componentType": 5123,
      "count": 10005,
      "bufferView": 1,
      "byteOffset": 0
    },
    {
      "type": "SCALAR",
      "componentType": 5123,
      "count": 120,
      "bufferView": 1,
      "byteOffset": 20012
    },
    {
      "type": "VEC3",
      "componentType": 5126,
      "count": 38,
      "max": [
        0.25698399543762207,
        -3.579694986343384,
        0.46457499265670776
      ],
      "min": [
        -0.2561970055103302,
        -4.900341987609863,
        -0.04860600084066391
      ],
      "bufferView": 2,
      "byteOffset": 0
    },
    {
      "type": "VEC3",
      "componentType": 5126,
      "count": 38,
      "bufferView": 2,
      "byteOffset": 12
    },
    {
      "type": "VEC2",
      "componentType": 5126,
      "count": 38,
      "bufferView": 2,
      "byteOffset": 24
    }
  ],
  "bufferViews": [
    {
      "buffer": 0,
      "byteOffset": 0,
      "byteLength": 155616,
      "byteStride": 32,
      "target": 34962
    },
    {
      "buffer": 0,
      "byteOffset": 155616,
      "byteLength": 20252,
      "target": 34963
    },
    {
      "buffer": 0,
      "byteOffset": 175868,
      "byteLength": 1216,
      "byteStride": 32,
      "target": 34962
    }
  ],
  "samplers": [
    {
      "magFilter": 9729,
      "minFilter": 9987,
      "wrapS": 10497,
      "wrapT": 10497
    }
  ],
  "textures": [
    {
      "sampler": 0,
      "extensions": {
        "EXT_texture_webp": {
          "source": 1
        }
      }
    },
    {
      "sampler": 0,
      "extensions": {
        "EXT_texture_webp": {
          "source": 0
        }
      }
    },
    {
      "sampler": 0,
      "extensions": {
        "EXT_texture_webp": {
          "source": 2
        }
      }
    },
    {
      "sampler": 0,
      "extensions": {
        "EXT_texture_webp": {
          "source": 3
        }
      }
    }
  ],
  "images": [
    {
      "name": "preacher_normal",
      "mimeType": "image/webp",
      "uri": "preacher_normal.webp"
    },
    {
      "name": "preacher_diffuse",
      "mimeType": "image/webp",
      "uri": "preacher_diffuse.webp"
    },
    {
      "name": "preacher_metallic-preacher_roughness",
      "mimeType": "image/webp",
      "uri": "preacher_metallic-preacher_roughness.webp"
    },
    {
      "name": "gradient_yellow",
      "mimeType": "image/webp",
      "uri": "../textures/gradient_yellow.webp"
    }
  ],
  "buffers": [
    {
      "uri": "preacher.bin",
      "byteLength": 177084
    }
  ],
  "materials": [
    {
      "name": "baked",
      "pbrMetallicRoughness": {
        "baseColorTexture": {
          "index": 0
        },
        "metallicRoughnessTexture": {
          "index": 2
        }
      },
      "normalTexture": {
        "index": 1
      }
    },
    {
      "name": "engine_glow_sirius",
      "alphaMode": "BLEND",
      "pbrMetallicRoughness": {
        "roughnessFactor": 0.75,
        "metallicFactor": 0,
        "baseColorTexture": {
          "index": 3
        }
      },
      "emissiveFactor": [
        1,
        1,
        1
      ],
      "emissiveTexture": {
        "index": 3
      }
    }
  ],
  "meshes": [
    {
      "name": "Cube.003",
      "primitives": [
        {
          "attributes": {
            "POSITION": 0,
            "NORMAL": 1,
            "TEXCOORD_0": 2
          },
          "mode": 4,
          "material": 0,
          "indices": 3
        }
      ]
    },
    {
      "name": "Cube.002",
      "primitives": [
        {
          "attributes": {
            "POSITION": 5,
            "NORMAL": 6,
            "TEXCOORD_0": 7
          },
          "mode": 4,
          "material": 1,
          "indices": 4
        }
      ]
    }
  ],
  "nodes": [
    {
      "name": "base_baked",
      "translation": [
        0,
        0,
        0.5
      ],
      "rotation": [
        0.7071068286895752,
        0,
        0,
        0.7071068286895752
      ],
      "mesh": 0
    },
    {
      "name": "engine_glow",
      "translation": [
        0,
        0,
        0.8383585214614868
      ],
      "rotation": [
        0.7071068286895752,
        0,
        0,
        0.7071068286895752
      ],
      "scale": [
        1,
        1.1390019655227661,
        1
      ],
      "mesh": 1
    },
    {
      "name": "base_baked",
      "translation": [
        0,
        0,
        0.5
      ],
      "rotation": [
        0.7071068286895752,
        0,
        0,
        0.7071068286895752
      ],
      "mesh": 0
    },
    {
      "name": "trail_center",
      "extras": {
        "NAEV_trail_generator": "sirius"
      },
      "translation": [
        0,
        -0.17862804234027863,
        -3.1831912994384766
      ],
      "scale": [
        0.5,
        0.5,
        0.5
      ]
    },
    {
      "name": "mount_med0",
      "extras": {
        "NAEV_weapon_mount": "0"
      },
      "translation": [
        2.633645534515381,
        -0.5794252157211304,
        -0.3523696959018707
      ],
      "scale": [
        0.5,
        0.5,
        0.5
      ]
    },
    {
      "name": "trail_nebula_left",
      "extras": {
        "NAEV_trail_generator": "nebula"
      },
      "translation": [
        4.303097248077393,
        -0.49372899532318115,
        -1.5978394746780396
      ],
      "scale": [
        0.5,
        0.5,
        0.5
      ]
    },
    {
      "name": "trail_nebula_right",
      "extras": {
        "NAEV_trail_generator": "nebula"
      },
      "translation": [
        -4.303100109100342,
        -0.49372899532318115,
        -1.5978394746780396
      ],
      "scale": [
        0.5,
        0.5,
        0.5
      ]
    },
    {
      "name": "mount_med2",
      "extras": {
        "NAEV_weapon_mount": "2"
      },
      "translation": [
        1.6489551067352295,
        -0.4120278060436249,
        -0.007727933116257191
      ],
      "scale": [
        0.5,
        0.5,
        0.5
      ]
    },
    {
      "name": "mount_med1",
      "extras": {
        "NAEV_weapon_mount": "1"
      },
      "translation": [
        -2.633650064468384,
        -0.5794252157211304,
        -0.3523696959018707
      ],
      "scale": [
        0.5,
        0.5,
        0.5
      ]
    },
    {
      "name": "mount_med3",
      "extras": {
        "NAEV_weapon_mount": "3"
      },
      "translation": [
        -1.648959994316101,
        -0.4120278060436249,
        -0.007727933116257191
      ],
      "scale": [
        0.5,
        0.5,
        0.5
      ]
    },
    {
      "name": "mount_small\\",
      "extras": {
        "NAEV_weapon_mount": "4"
      },
      "translation": [
        0,
        -0.343099445104599,
        5.378529071807861
      ],
      "scale": [
        0.5,
        0.5,
        0.5
      ]
    }
  ],
  "scenes": [
    {
      "name": "base",
      "extras": {
        "BBB_props": {}
      },
      "nodes": [
        0
      ]
    },
    {
      "name": "engine",
      "extras": {
        "BBB_props": {}
      },
      "nodes": [
        1,
        2
      ]
    },
    {
      "name": "meta",
      "nodes": [
        3,
        4,
        5,
        6,
        7,
        8,
        9,
        10
      ]
    }
  ],
  "scene": 0,
  "extensionsUsed": [
    "EXT_texture_webp"
  ],
  "extensionsRequired": [
    "EXT_texture_webp"
  ]
}
