{
  "asset": {
    "generator": "glTF-Transform v4.0.1",
    "version": "2.0"
  },
  "accessors": [
    {
      "type": "VEC3",
      "componentType": 5126,
      "count": 10397,
      "max": [
        29.328838348388672,
        22.400001525878906,
        17.9820556640625
      ],
      "min": [
        -29.328842163085938,
        -28.629623413085938,
        -33
      ],
      "bufferView": 0,
      "byteOffset": 0
    },
    {
      "type": "VEC3",
      "componentType": 5126,
      "count": 10397,
      "bufferView": 0,
      "byteOffset": 12
    },
    {
      "type": "VEC2",
      "componentType": 5126,
      "count": 10397,
      "bufferView": 0,
      "byteOffset": 24
    },
    {
      "type": "SCALAR",
      "componentType": 5123,
      "count": 13944,
      "bufferView": 1,
      "byteOffset": 0
    },
    {
      "type": "SCALAR",
      "componentType": 5123,
      "count": 621,
      "bufferView": 1,
      "byteOffset": 27888
    },
    {
      "type": "VEC3",
      "componentType": 5126,
      "count": 483,
      "max": [
        27.85376739501953,
        31.94000244140625,
        26.570640563964844
      ],
      "min": [
        -27.853782653808594,
        -16.690006256103516,
        9.770631790161133
      ],
      "bufferView": 2,
      "byteOffset": 0
    },
    {
      "type": "VEC3",
      "componentType": 5126,
      "count": 483,
      "bufferView": 2,
      "byteOffset": 12
    },
    {
      "type": "VEC2",
      "componentType": 5126,
      "count": 483,
      "bufferView": 2,
      "byteOffset": 24
    }
  ],
  "bufferViews": [
    {
      "buffer": 0,
      "byteOffset": 0,
      "byteLength": 332704,
      "byteStride": 32,
      "target": 34962
    },
    {
      "buffer": 0,
      "byteOffset": 332704,
      "byteLength": 29132,
      "target": 34963
    },
    {
      "buffer": 0,
      "byteOffset": 361836,
      "byteLength": 15456,
      "byteStride": 32,
      "target": 34962
    }
  ],
  "samplers": [
    {
      "magFilter": 9729,
      "minFilter": 9987,
      "wrapS": 10497,
      "wrapT": 10497
    }
  ],
  "textures": [
    {
      "sampler": 0,
      "extensions": {
        "EXT_texture_webp": {
          "source": 3
        }
      }
    },
    {
      "sampler": 0,
      "extensions": {
        "EXT_texture_webp": {
          "source": 0
        }
      }
    },
    {
      "sampler": 0,
      "extensions": {
        "EXT_texture_webp": {
          "source": 1
        }
      }
    },
    {
      "sampler": 0,
      "extensions": {
        "EXT_texture_webp": {
          "source": 2
        }
      }
    },
    {
      "sampler": 0,
      "extensions": {
        "EXT_texture_webp": {
          "source": 4
        }
      }
    },
    {
      "sampler": 0,
      "extensions": {
        "EXT_texture_webp": {
          "source": 5
        }
      }
    }
  ],
  "images": [
    {
      "name": "derivative_glow",
      "mimeType": "image/webp",
      "uri": "derivative_glow.webp"
    },
    {
      "name": "derivative_normal",
      "mimeType": "image/webp",
      "uri": "derivative_normal.webp"
    },
    {
      "name": "AO_bake-derivative_shininess",
      "mimeType": "image/webp",
      "uri": "AO_bake-derivative_shininess.webp"
    },
    {
      "name": "derivative_diffuse",
      "mimeType": "image/webp",
      "uri": "derivative_diffuse.webp"
    },
    {
      "name": "gradient_purple",
      "mimeType": "image/webp",
      "uri": "../textures/gradient_purple.webp"
    },
    {
      "name": "GLO_bake",
      "mimeType": "image/webp",
      "uri": "GLO_bake.webp"
    }
  ],
  "buffers": [
    {
      "uri": "euler.bin",
      "byteLength": 377292
    }
  ],
  "materials": [
    {
      "name": "Base",
      "pbrMetallicRoughness": {
        "roughnessFactor": 0.5,
        "baseColorTexture": {
          "index": 0
        },
        "metallicRoughnessTexture": {
          "index": 3
        }
      },
      "emissiveFactor": [
        1,
        1,
        1
      ],
      "emissiveTexture": {
        "index": 1
      },
      "normalTexture": {
        "index": 2
      },
      "occlusionTexture": {
        "index": 3
      }
    },
    {
      "name": "engine_glow_proteron",
      "alphaMode": "BLEND",
      "pbrMetallicRoughness": {
        "roughnessFactor": 0.75,
        "metallicFactor": 0,
        "baseColorTexture": {
          "index": 4
        }
      },
      "emissiveFactor": [
        1,
        1,
        1
      ],
      "emissiveTexture": {
        "index": 4
      }
    },
    {
      "name": "Base Glow",
      "pbrMetallicRoughness": {
        "roughnessFactor": 0.5,
        "baseColorTexture": {
          "index": 0
        },
        "metallicRoughnessTexture": {
          "index": 3
        }
      },
      "emissiveFactor": [
        1,
        1,
        1
      ],
      "emissiveTexture": {
        "index": 5
      },
      "normalTexture": {
        "index": 2
      },
      "occlusionTexture": {
        "index": 3
      }
    }
  ],
  "meshes": [
    {
      "name": "base",
      "primitives": [
        {
          "attributes": {
            "POSITION": 0,
            "NORMAL": 1,
            "TEXCOORD_0": 2
          },
          "mode": 4,
          "material": 0,
          "indices": 3
        }
      ]
    },
    {
      "name": "engine",
      "primitives": [
        {
          "attributes": {
            "POSITION": 5,
            "NORMAL": 6,
            "TEXCOORD_0": 7
          },
          "mode": 4,
          "material": 1,
          "indices": 4
        }
      ]
    },
    {
      "name": "base",
      "primitives": [
        {
          "attributes": {
            "POSITION": 0,
            "NORMAL": 1,
            "TEXCOORD_0": 2
          },
          "mode": 4,
          "material": 2,
          "indices": 3
        }
      ]
    }
  ],
  "nodes": [
    {
      "name": "body",
      "rotation": [
        0,
        -0.7071068286895752,
        0.7071068286895752,
        1.1520235432271875e-7
      ],
      "scale": [
        0.09977661073207855,
        0.09977661073207855,
        0.09977661073207855
      ],
      "mesh": 0
    },
    {
      "name": "glow",
      "rotation": [
        0,
        1,
        0,
        3.1391647326017846e-7
      ],
      "scale": [
        0.09975001960992813,
        0.09975001960992813,
        0.1496250182390213
      ],
      "mesh": 1
    },
    {
      "name": "base glow",
      "rotation": [
        0,
        -0.7071068286895752,
        0.7071068286895752,
        1.1520235432271875e-7
      ],
      "scale": [
        0.09977661073207855,
        0.09977661073207855,
        0.09977661073207855
      ],
      "mesh": 2
    },
    {
      "name": "mount_small_left",
      "extras": {
        "NAEV_weapon_mount": "0"
      },
      "translation": [
        0,
        -0.9451847672462463,
        2.626887321472168
      ]
    },
    {
      "name": "trail_bottom_left",
      "extras": {
        "NAEV_trail_generator": "proteron"
      },
      "translation": [
        2.622403621673584,
        -1.5424612760543823,
        -1.9925868511199951
      ]
    },
    {
      "name": "trail_bottom_right",
      "extras": {
        "NAEV_trail_generator": "proteron"
      },
      "translation": [
        -2.622403621673584,
        -1.5424612760543823,
        -1.9925868511199951
      ]
    },
    {
      "name": "trail_bottom_center",
      "extras": {
        "NAEV_trail_generator": "proteron"
      },
      "translation": [
        -0.005566193722188473,
        3.045466661453247,
        -1.9925874471664429
      ]
    }
  ],
  "scenes": [
    {
      "name": "base",
      "nodes": [
        0
      ]
    },
    {
      "name": "engine",
      "nodes": [
        1,
        2
      ]
    },
    {
      "name": "meta",
      "nodes": [
        3,
        4,
        5,
        6
      ]
    }
  ],
  "scene": 0,
  "extensionsUsed": [
    "EXT_texture_webp"
  ],
  "extensionsRequired": [
    "EXT_texture_webp"
  ]
}
