{
  "asset": {
    "generator": "glTF-Transform v4.0.1",
    "version": "2.0"
  },
  "accessors": [
    {
      "type": "VEC3",
      "componentType": 5126,
      "count": 3890,
      "max": [
        8.13798713684082,
        8.670421600341797,
        2.9792897701263428
      ],
      "min": [
        -8.13798713684082,
        -6.5,
        -2.2151715755462646
      ],
      "bufferView": 0,
      "byteOffset": 0
    },
    {
      "type": "VEC3",
      "componentType": 5126,
      "count": 3890,
      "bufferView": 0,
      "byteOffset": 12
    },
    {
      "type": "VEC2",
      "componentType": 5126,
      "count": 3890,
      "bufferView": 0,
      "byteOffset": 24
    },
    {
      "type": "SCALAR",
      "componentType": 5123,
      "count": 8166,
      "bufferView": 1,
      "byteOffset": 0
    },
    {
      "type": "SCALAR",
      "componentType": 5123,
      "count": 1152,
      "bufferView": 1,
      "byteOffset": 16332
    },
    {
      "type": "VEC3",
      "componentType": 5126,
      "count": 328,
      "max": [
        1.7187318801879883,
        -4.2101240158081055,
        0.7082334756851196
      ],
      "min": [
        -1.7187325954437256,
        -6.882483005523682,
        -0.7082331776618958
      ],
      "bufferView": 2,
      "byteOffset": 0
    },
    {
      "type": "VEC3",
      "componentType": 5126,
      "count": 328,
      "bufferView": 2,
      "byteOffset": 12
    },
    {
      "type": "VEC2",
      "componentType": 5126,
      "count": 328,
      "bufferView": 2,
      "byteOffset": 24
    }
  ],
  "bufferViews": [
    {
      "buffer": 0,
      "byteOffset": 0,
      "byteLength": 124480,
      "byteStride": 32,
      "target": 34962
    },
    {
      "buffer": 0,
      "byteOffset": 124480,
      "byteLength": 18636,
      "target": 34963
    },
    {
      "buffer": 0,
      "byteOffset": 143116,
      "byteLength": 10496,
      "byteStride": 32,
      "target": 34962
    }
  ],
  "samplers": [
    {
      "magFilter": 9729,
      "minFilter": 9987,
      "wrapS": 10497,
      "wrapT": 10497
    }
  ],
  "textures": [
    {
      "sampler": 0,
      "extensions": {
        "EXT_texture_webp": {
          "source": 3
        }
      }
    },
    {
      "sampler": 0,
      "extensions": {
        "EXT_texture_webp": {
          "source": 0
        }
      }
    },
    {
      "sampler": 0,
      "extensions": {
        "EXT_texture_webp": {
          "source": 1
        }
      }
    },
    {
      "sampler": 0,
      "extensions": {
        "EXT_texture_webp": {
          "source": 2
        }
      }
    },
    {
      "sampler": 0,
      "extensions": {
        "EXT_texture_webp": {
          "source": 4
        }
      }
    },
    {
      "sampler": 0,
      "extensions": {
        "EXT_texture_webp": {
          "source": 5
        }
      }
    }
  ],
  "images": [
    {
      "name": "corvette05_emission",
      "mimeType": "image/webp",
      "uri": "corvette05_emission.webp"
    },
    {
      "name": "corvette05_normal",
      "mimeType": "image/webp",
      "uri": "corvette05_normal.webp"
    },
    {
      "name": "AO_bake",
      "mimeType": "image/webp",
      "uri": "AO_bake.webp"
    },
    {
      "name": "corvette05_diffuse",
      "mimeType": "image/webp",
      "uri": "corvette05_diffuse.webp"
    },
    {
      "name": "gradient_pale",
      "mimeType": "image/webp",
      "uri": "../textures/gradient_pale.webp"
    },
    {
      "name": "GLO_bake",
      "mimeType": "image/webp",
      "uri": "GLO_bake.webp"
    }
  ],
  "buffers": [
    {
      "uri": "virtuosity.bin",
      "byteLength": 153612
    }
  ],
  "materials": [
    {
      "name": "base",
      "pbrMetallicRoughness": {
        "roughnessFactor": 0.699999988079071,
        "metallicFactor": 0.699999988079071,
        "baseColorTexture": {
          "index": 0
        }
      },
      "emissiveFactor": [
        1,
        1,
        1
      ],
      "emissiveTexture": {
        "index": 1
      },
      "normalTexture": {
        "index": 2
      },
      "occlusionTexture": {
        "index": 3
      }
    },
    {
      "name": "engine_glow_thurion_solid",
      "alphaMode": "BLEND",
      "pbrMetallicRoughness": {
        "roughnessFactor": 0.75,
        "metallicFactor": 0,
        "baseColorTexture": {
          "index": 4
        }
      },
      "emissiveFactor": [
        1,
        1,
        1
      ],
      "emissiveTexture": {
        "index": 4
      }
    },
    {
      "name": "base_glow",
      "pbrMetallicRoughness": {
        "roughnessFactor": 0.699999988079071,
        "metallicFactor": 0.699999988079071,
        "baseColorTexture": {
          "index": 0
        }
      },
      "emissiveFactor": [
        1,
        1,
        1
      ],
      "emissiveTexture": {
        "index": 5
      },
      "normalTexture": {
        "index": 2
      },
      "occlusionTexture": {
        "index": 3
      }
    }
  ],
  "meshes": [
    {
      "name": "base",
      "primitives": [
        {
          "attributes": {
            "POSITION": 0,
            "NORMAL": 1,
            "TEXCOORD_0": 2
          },
          "mode": 4,
          "material": 0,
          "indices": 3
        }
      ]
    },
    {
      "name": "admonisher.002",
      "primitives": [
        {
          "attributes": {
            "POSITION": 5,
            "NORMAL": 6,
            "TEXCOORD_0": 7
          },
          "mode": 4,
          "material": 1,
          "indices": 4
        }
      ]
    },
    {
      "name": "base",
      "primitives": [
        {
          "attributes": {
            "POSITION": 0,
            "NORMAL": 1,
            "TEXCOORD_0": 2
          },
          "mode": 4,
          "material": 2,
          "indices": 3
        }
      ]
    }
  ],
  "nodes": [
    {
      "name": "base",
      "rotation": [
        0.7071068286895752,
        0,
        0,
        0.7071068286895752
      ],
      "scale": [
        0.5,
        0.5,
        0.5
      ],
      "mesh": 0
    },
    {
      "name": "Engine.001",
      "rotation": [
        0.7071068286895752,
        0,
        0,
        0.7071068286895752
      ],
      "scale": [
        0.5,
        0.5,
        0.5
      ],
      "mesh": 1
    },
    {
      "name": "base_glow",
      "rotation": [
        0.7071068286895752,
        0,
        0,
        0.7071068286895752
      ],
      "scale": [
        0.5,
        0.5,
        0.5
      ],
      "mesh": 2
    },
    {
      "name": "mount_medium0",
      "extras": {
        "NAEV_weapon_mount": "0"
      },
      "translation": [
        1.6503582000732422,
        -0.4807034432888031,
        -0.3237115740776062
      ],
      "scale": [
        0.5118011236190796,
        0.5118011236190796,
        0.5118011236190796
      ]
    },
    {
      "name": "trail_left",
      "extras": {
        "NAEV_trail_generator": "thurion"
      },
      "translation": [
        0.6626160144805908,
        0.0009662508964538574,
        -2.1996657848358154
      ],
      "scale": [
        0.5118011236190796,
        0.5118011236190796,
        0.5118011236190796
      ]
    },
    {
      "name": "trail_right",
      "extras": {
        "NAEV_trail_generator": "thurion"
      },
      "translation": [
        -0.6626160144805908,
        0.0009662508964538574,
        -2.1996657848358154
      ],
      "scale": [
        0.5118011236190796,
        0.5118011236190796,
        0.5118011236190796
      ]
    },
    {
      "name": "trail_nebula_left",
      "extras": {
        "NAEV_trail_generator": "nebula"
      },
      "translation": [
        4.024799823760986,
        -1.2550950050354004,
        -1.1234045028686523
      ],
      "scale": [
        0.5118011236190796,
        0.5118011236190796,
        0.5118011236190796
      ]
    },
    {
      "name": "trail_nebula_right",
      "extras": {
        "NAEV_trail_generator": "nebula"
      },
      "translation": [
        -4.024799823760986,
        -1.2550950050354004,
        -1.1234045028686523
      ],
      "scale": [
        0.5118011236190796,
        0.5118011236190796,
        0.5118011236190796
      ]
    },
    {
      "name": "mount_medium1",
      "extras": {
        "NAEV_weapon_mount": "1"
      },
      "translation": [
        -1.6503599882125854,
        -0.4807034432888031,
        -0.3237115740776062
      ],
      "scale": [
        0.5118011236190796,
        0.5118011236190796,
        0.5118011236190796
      ]
    },
    {
      "name": "mount_medium2",
      "extras": {
        "NAEV_weapon_mount": "2"
      },
      "translation": [
        0,
        -0.5321598052978516,
        1.5251963138580322
      ],
      "scale": [
        0.5118011236190796,
        0.5118011236190796,
        0.5118011236190796
      ]
    },
    {
      "name": "mount_small3",
      "extras": {
        "NAEV_weapon_mount": "3"
      },
      "translation": [
        0,
        0.6100990772247314,
        1.959974765777588
      ],
      "scale": [
        0.5118011236190796,
        0.5118011236190796,
        0.5118011236190796
      ]
    }
  ],
  "scenes": [
    {
      "name": "base",
      "nodes": [
        0
      ]
    },
    {
      "name": "engine",
      "nodes": [
        1,
        2
      ]
    },
    {
      "name": "meta",
      "nodes": [
        3,
        4,
        5,
        6,
        7,
        8,
        9,
        10
      ]
    }
  ],
  "scene": 0,
  "extensionsUsed": [
    "EXT_texture_webp"
  ],
  "extensionsRequired": [
    "EXT_texture_webp"
  ]
}
