{
  "asset": {
    "generator": "glTF-Transform v4.0.1",
    "version": "2.0"
  },
  "accessors": [
    {
      "type": "VEC3",
      "componentType": 5126,
      "count": 14319,
      "max": [
        8.725122451782227,
        21.633405685424805,
        3.367912530899048
      ],
      "min": [
        -8.818498611450195,
        -34.48411178588867,
        -3.894167900085449
      ],
      "bufferView": 0,
      "byteOffset": 0
    },
    {
      "type": "VEC3",
      "componentType": 5126,
      "count": 14319,
      "bufferView": 0,
      "byteOffset": 12
    },
    {
      "type": "VEC2",
      "componentType": 5126,
      "count": 14319,
      "bufferView": 0,
      "byteOffset": 24
    },
    {
      "type": "SCALAR",
      "componentType": 5123,
      "count": 22104,
      "bufferView": 1,
      "byteOffset": 0
    },
    {
      "type": "SCALAR",
      "componentType": 5123,
      "count": 9696,
      "bufferView": 1,
      "byteOffset": 44208
    },
    {
      "type": "SCALAR",
      "componentType": 5123,
      "count": 5760,
      "bufferView": 1,
      "byteOffset": 63600
    },
    {
      "type": "SCALAR",
      "componentType": 5123,
      "count": 3456,
      "bufferView": 1,
      "byteOffset": 75120
    },
    {
      "type": "SCALAR",
      "componentType": 5123,
      "count": 6336,
      "bufferView": 1,
      "byteOffset": 82032
    },
    {
      "type": "SCALAR",
      "componentType": 5123,
      "count": 4992,
      "bufferView": 1,
      "byteOffset": 94704
    },
    {
      "type": "SCALAR",
      "componentType": 5123,
      "count": 2304,
      "bufferView": 1,
      "byteOffset": 104688
    },
    {
      "type": "VEC3",
      "componentType": 5126,
      "count": 5940,
      "max": [
        8.180824279785156,
        19.177955627441406,
        3.5088143348693848
      ],
      "min": [
        -6.492542743682861,
        -29.62136459350586,
        -3.3663523197174072
      ],
      "bufferView": 2,
      "byteOffset": 0
    },
    {
      "type": "VEC3",
      "componentType": 5126,
      "count": 5940,
      "bufferView": 2,
      "byteOffset": 12
    },
    {
      "type": "VEC2",
      "componentType": 5126,
      "count": 5940,
      "bufferView": 2,
      "byteOffset": 24
    },
    {
      "type": "VEC3",
      "componentType": 5126,
      "count": 3550,
      "max": [
        5.585564613342285,
        8.894133567810059,
        2.4329473972320557
      ],
      "min": [
        -5.086690902709961,
        -25.228300094604492,
        -3.0335545539855957
      ],
      "bufferView": 3,
      "byteOffset": 0
    },
    {
      "type": "VEC3",
      "componentType": 5126,
      "count": 3550,
      "bufferView": 3,
      "byteOffset": 12
    },
    {
      "type": "VEC3",
      "componentType": 5126,
      "count": 2091,
      "max": [
        5.590159893035889,
        8.716529846191406,
        2.4286534786224365
      ],
      "min": [
        -5.072049140930176,
        -25.125164031982422,
        -3.0264506340026855
      ],
      "bufferView": 4,
      "byteOffset": 0
    },
    {
      "type": "VEC3",
      "componentType": 5126,
      "count": 2091,
      "bufferView": 4,
      "byteOffset": 12
    },
    {
      "type": "VEC3",
      "componentType": 5126,
      "count": 3892,
      "max": [
        7.873157501220703,
        4.825447082519531,
        2.3249313831329346
      ],
      "min": [
        -3.8522932529449463,
        -33.63593292236328,
        -3.837015151977539
      ],
      "bufferView": 5,
      "byteOffset": 0
    },
    {
      "type": "VEC3",
      "componentType": 5126,
      "count": 3892,
      "bufferView": 5,
      "byteOffset": 12
    },
    {
      "type": "VEC2",
      "componentType": 5126,
      "count": 3892,
      "bufferView": 5,
      "byteOffset": 24
    },
    {
      "type": "VEC3",
      "componentType": 5126,
      "count": 3197,
      "max": [
        8.127412796020508,
        19.300825119018555,
        3.780669689178467
      ],
      "min": [
        -5.876667022705078,
        -35.928131103515625,
        -3.9843993186950684
      ],
      "bufferView": 6,
      "byteOffset": 0
    },
    {
      "type": "VEC3",
      "componentType": 5126,
      "count": 3197,
      "bufferView": 6,
      "byteOffset": 12
    },
    {
      "type": "VEC2",
      "componentType": 5126,
      "count": 3197,
      "bufferView": 6,
      "byteOffset": 24
    },
    {
      "type": "VEC3",
      "componentType": 5126,
      "count": 1536,
      "max": [
        1.25,
        0.25,
        1.25
      ],
      "min": [
        -1.25,
        -0.25,
        -1.25
      ],
      "bufferView": 7,
      "byteOffset": 0
    },
    {
      "type": "VEC3",
      "componentType": 5126,
      "count": 1536,
      "bufferView": 7,
      "byteOffset": 12
    },
    {
      "type": "VEC2",
      "componentType": 5126,
      "count": 1536,
      "bufferView": 7,
      "byteOffset": 24
    }
  ],
  "bufferViews": [
    {
      "buffer": 0,
      "byteOffset": 0,
      "byteLength": 458208,
      "byteStride": 32,
      "target": 34962
    },
    {
      "buffer": 0,
      "byteOffset": 458208,
      "byteLength": 109296,
      "target": 34963
    },
    {
      "buffer": 0,
      "byteOffset": 567504,
      "byteLength": 190080,
      "byteStride": 32,
      "target": 34962
    },
    {
      "buffer": 0,
      "byteOffset": 757584,
      "byteLength": 85200,
      "byteStride": 24,
      "target": 34962
    },
    {
      "buffer": 0,
      "byteOffset": 842784,
      "byteLength": 50184,
      "byteStride": 24,
      "target": 34962
    },
    {
      "buffer": 0,
      "byteOffset": 892968,
      "byteLength": 124544,
      "byteStride": 32,
      "target": 34962
    },
    {
      "buffer": 0,
      "byteOffset": 1017512,
      "byteLength": 102304,
      "byteStride": 32,
      "target": 34962
    },
    {
      "buffer": 0,
      "byteOffset": 1119816,
      "byteLength": 49152,
      "byteStride": 32,
      "target": 34962
    }
  ],
  "samplers": [
    {
      "magFilter": 9729,
      "minFilter": 9987,
      "wrapS": 10497,
      "wrapT": 10497
    },
    {
      "magFilter": 9729,
      "minFilter": 9987,
      "wrapS": 33648,
      "wrapT": 33648
    }
  ],
  "textures": [
    {
      "sampler": 0,
      "extensions": {
        "EXT_texture_webp": {
          "source": 0
        }
      }
    },
    {
      "sampler": 0,
      "extensions": {
        "EXT_texture_webp": {
          "source": 1
        }
      }
    },
    {
      "sampler": 0,
      "extensions": {
        "EXT_texture_webp": {
          "source": 2
        }
      }
    },
    {
      "sampler": 0,
      "extensions": {
        "EXT_texture_webp": {
          "source": 3
        }
      }
    },
    {
      "sampler": 1,
      "extensions": {
        "EXT_texture_webp": {
          "source": 4
        }
      }
    }
  ],
  "images": [
    {
      "name": "hull_lightGray",
      "mimeType": "image/webp",
      "uri": "hull_lightGray.webp"
    },
    {
      "name": "hull_RED",
      "mimeType": "image/webp",
      "uri": "hull_RED.webp"
    },
    {
      "name": "hexagonalLayerSteel_Ash",
      "mimeType": "image/webp",
      "uri": "hexagonalLayerSteel_Ash.webp"
    },
    {
      "name": "hexagonalLayerSteel_Red",
      "mimeType": "image/webp",
      "uri": "hexagonalLayerSteel_Red.webp"
    },
    {
      "name": "zalek_glow",
      "mimeType": "image/webp",
      "uri": "../textures/zalek_glow.webp"
    }
  ],
  "buffers": [
    {
      "uri": "diablo.bin",
      "byteLength": 1168968
    }
  ],
  "materials": [
    {
      "name": "hull_grey",
      "pbrMetallicRoughness": {
        "roughnessFactor": 0.699999988079071,
        "metallicFactor": 0.30000001192092896,
        "baseColorTexture": {
          "index": 0
        }
      }
    },
    {
      "name": "hull_red",
      "pbrMetallicRoughness": {
        "roughnessFactor": 0.699999988079071,
        "metallicFactor": 0.30000001192092896,
        "baseColorTexture": {
          "index": 1
        }
      }
    },
    {
      "name": "black",
      "pbrMetallicRoughness": {
        "baseColorFactor": [
          0,
          0,
          0,
          1
        ],
        "metallicFactor": 0
      }
    },
    {
      "name": "bloodred",
      "pbrMetallicRoughness": {
        "baseColorFactor": [
          0.5,
          0,
          0,
          1
        ],
        "metallicFactor": 0
      }
    },
    {
      "name": "steel_hex_grey",
      "pbrMetallicRoughness": {
        "roughnessFactor": 0.699999988079071,
        "metallicFactor": 0.30000001192092896,
        "baseColorTexture": {
          "index": 2
        }
      }
    },
    {
      "name": "steel_hex_red",
      "pbrMetallicRoughness": {
        "roughnessFactor": 0.699999988079071,
        "metallicFactor": 0.30000001192092896,
        "baseColorTexture": {
          "index": 3
        }
      }
    },
    {
      "name": "engine_glow_zalek_drone",
      "alphaMode": "BLEND",
      "pbrMetallicRoughness": {
        "metallicFactor": 0,
        "baseColorTexture": {
          "index": 4
        }
      },
      "emissiveFactor": [
        1,
        1,
        1
      ],
      "emissiveTexture": {
        "index": 4
      },
      "extensions": {
        "KHR_materials_emissive_strength": {
          "emissiveStrength": 2
        }
      }
    }
  ],
  "meshes": [
    {
      "name": "base_multi_materials",
      "primitives": [
        {
          "attributes": {
            "POSITION": 0,
            "NORMAL": 1,
            "TEXCOORD_0": 2
          },
          "mode": 4,
          "material": 0,
          "indices": 3
        },
        {
          "attributes": {
            "POSITION": 10,
            "NORMAL": 11,
            "TEXCOORD_0": 12
          },
          "mode": 4,
          "material": 1,
          "indices": 4
        },
        {
          "attributes": {
            "POSITION": 13,
            "NORMAL": 14
          },
          "mode": 4,
          "material": 2,
          "indices": 5
        },
        {
          "attributes": {
            "POSITION": 15,
            "NORMAL": 16
          },
          "mode": 4,
          "material": 3,
          "indices": 6
        },
        {
          "attributes": {
            "POSITION": 17,
            "NORMAL": 18,
            "TEXCOORD_0": 19
          },
          "mode": 4,
          "material": 4,
          "indices": 7
        },
        {
          "attributes": {
            "POSITION": 20,
            "NORMAL": 21,
            "TEXCOORD_0": 22
          },
          "mode": 4,
          "material": 5,
          "indices": 8
        }
      ]
    },
    {
      "name": "glow.003",
      "primitives": [
        {
          "attributes": {
            "POSITION": 23,
            "NORMAL": 24,
            "TEXCOORD_0": 25
          },
          "mode": 4,
          "material": 6,
          "indices": 9
        }
      ]
    }
  ],
  "nodes": [
    {
      "name": "base_multi_materials",
      "scale": [
        0.2237417995929718,
        0.038158681243658066,
        1.2345702648162842
      ],
      "mesh": 0
    },
    {
      "name": "engine01",
      "translation": [
        -0.4218986928462982,
        -0.7041007280349731,
        -4.357454299926758
      ],
      "rotation": [
        0.3269619047641754,
        0.09929266571998596,
        -0.20667047798633575,
        0.9168010950088501
      ],
      "scale": [
        0.45183220505714417,
        0.2125961184501648,
        0.4899841547012329
      ],
      "mesh": 1
    },
    {
      "name": "engine02",
      "translation": [
        0.9976893663406372,
        -1.11954927444458,
        -3.2699499130249023
      ],
      "rotation": [
        -0.8738805651664734,
        -0.18180137872695923,
        -0.3826143741607666,
        0.23851047456264496
      ],
      "scale": [
        0.2198166847229004,
        0.10342816263437271,
        0.238377645611763
      ],
      "mesh": 1
    },
    {
      "name": "engine03",
      "translation": [
        -0.222611665725708,
        -0.8753098845481873,
        -3.1868221759796143
      ],
      "rotation": [
        -0.09114634245634079,
        0.35492727160453796,
        -0.16947737336158752,
        0.9148750901222229
      ],
      "scale": [
        0.3786100447177887,
        0.17814362049102783,
        0.41057923436164856
      ],
      "mesh": 1
    },
    {
      "name": "engine04",
      "translation": [
        1.6482014656066895,
        -0.19947242736816406,
        0.09974093735218048
      ],
      "rotation": [
        -0.8844694495201111,
        -0.36840811371803284,
        -0.188843235373497,
        0.21523822844028473
      ],
      "scale": [
        0.15822842717170715,
        0.07444965094327927,
        0.1715889722108841
      ],
      "mesh": 1
    },
    {
      "name": "engine05",
      "translation": [
        1.0066947937011719,
        -1.11671781539917,
        -2.558410406112671
      ],
      "rotation": [
        0.9302707314491272,
        0.2920142114162445,
        0.21771849691867828,
        0.04384922981262207
      ],
      "scale": [
        0.2198166847229004,
        0.10342816263437271,
        0.2383776605129242
      ],
      "mesh": 1
    },
    {
      "name": "engine06",
      "translation": [
        1.6451023817062378,
        -0.2075026035308838,
        0.593238890171051
      ],
      "rotation": [
        0.9021822214126587,
        0.4128026068210602,
        0.029196850955486298,
        0.12169129401445389
      ],
      "scale": [
        0.15822842717170715,
        0.07444965094327927,
        0.1715889573097229
      ],
      "mesh": 1
    },
    {
      "name": "engine07",
      "translation": [
        -0.5438022017478943,
        -0.8910418152809143,
        1.9586478471755981
      ],
      "rotation": [
        0.2884482145309448,
        0.28988736867904663,
        -0.3590889573097229,
        0.8389386534690857
      ],
      "scale": [
        0.22323943674564362,
        0.10503862798213959,
        0.2420894056558609
      ],
      "mesh": 1
    },
    {
      "name": "engine08",
      "translation": [
        -0.5406439304351807,
        -0.8998383283615112,
        2.6644859313964844
      ],
      "rotation": [
        0.06946803629398346,
        0.34918636083602905,
        -0.45098772644996643,
        0.8184455633163452
      ],
      "scale": [
        0.22323942184448242,
        0.10503862798213959,
        0.2420894056558609
      ],
      "mesh": 1
    },
    {
      "name": "engine08.001",
      "translation": [
        -0.7113884091377258,
        -1.0166865587234497,
        2.705019235610962
      ],
      "rotation": [
        0.06946804374456406,
        0.34918636083602905,
        -0.45098772644996643,
        0.8184455633163452
      ],
      "scale": [
        0.16440342366695404,
        0.07735510170459747,
        0.1782853603363037
      ],
      "mesh": 1
    },
    {
      "name": "engine07.001",
      "translation": [
        -0.7123891711235046,
        -1.0124990940093994,
        1.8969086408615112
      ],
      "rotation": [
        0.2884482145309448,
        0.28988736867904663,
        -0.3590889573097229,
        0.8389386534690857
      ],
      "scale": [
        0.16732855141162872,
        0.07873144745826721,
        0.1814575046300888
      ],
      "mesh": 1
    },
    {
      "name": "engine05.001",
      "translation": [
        1.132799744606018,
        -1.293989658355713,
        -2.5085079669952393
      ],
      "rotation": [
        0.9302707314491272,
        0.2920142114162445,
        0.21771851181983948,
        0.04384922981262207
      ],
      "scale": [
        0.1535724550485611,
        0.07225891947746277,
        0.16653983294963837
      ],
      "mesh": 1
    },
    {
      "name": "engine02.001",
      "translation": [
        1.0820982456207275,
        -1.2978655099868774,
        -3.3261420726776123
      ],
      "rotation": [
        -0.8738805651664734,
        -0.18180137872695923,
        -0.3826143741607666,
        0.23851048946380615
      ],
      "scale": [
        0.15510450303554535,
        0.07297977060079575,
        0.16820122301578522
      ],
      "mesh": 1
    },
    {
      "name": "engine03.001",
      "translation": [
        -0.34041622281074524,
        -1.2018234729766846,
        -3.1002798080444336
      ],
      "rotation": [
        -0.09114634245634079,
        0.35492727160453796,
        -0.16947737336158752,
        0.9148750901222229
      ],
      "scale": [
        0.2742043733596802,
        0.129018634557724,
        0.2973577082157135
      ],
      "mesh": 1
    },
    {
      "name": "engine01.002",
      "translation": [
        -0.5567900538444519,
        -0.9368410706520081,
        -4.650449275970459
      ],
      "rotation": [
        0.3269619047641754,
        0.09929266571998596,
        -0.20667044818401337,
        0.9168010950088501
      ],
      "scale": [
        0.2974821925163269,
        0.13997133076190948,
        0.3226010799407959
      ],
      "mesh": 1
    },
    {
      "name": "engine04.001",
      "translation": [
        1.7490755319595337,
        -0.28512027859687805,
        0.07479693740606308
      ],
      "rotation": [
        -0.8844694495201111,
        -0.36840811371803284,
        -0.188843235373497,
        0.21523822844028473
      ],
      "scale": [
        0.11067766696214676,
        0.0520760603249073,
        0.12002310156822205
      ],
      "mesh": 1
    },
    {
      "name": "engine06.001",
      "translation": [
        1.7504993677139282,
        -0.2886238396167755,
        0.6321332454681396
      ],
      "rotation": [
        0.9021822214126587,
        0.4128025770187378,
        0.0291968435049057,
        0.12169129401445389
      ],
      "scale": [
        0.11747818440198898,
        0.05527583509683609,
        0.12739785015583038
      ],
      "mesh": 1
    },
    {
      "name": "base_multi_materials",
      "scale": [
        0.2237417995929718,
        0.038158681243658066,
        1.2345702648162842
      ],
      "mesh": 0
    },
    {
      "name": "mount_fb0",
      "extras": {
        "NAEV_weapon_mount": "0"
      },
      "translation": [
        0.21011757850646973,
        -0.2896881103515625,
        0.6496607065200806
      ],
      "scale": [
        0.20912359654903412,
        0.20912359654903412,
        0.20912359654903412
      ]
    },
    {
      "name": "trail_primary",
      "extras": {
        "NAEV_trail_generator": "zalekL"
      },
      "translation": [
        -0.45598751306533813,
        -0.8084554672241211,
        -4.565880298614502
      ],
      "scale": [
        0.32317793369293213,
        0.32317793369293213,
        0.32317793369293213
      ]
    },
    {
      "name": "trail_rearleft",
      "extras": {
        "NAEV_trail_generator": "zalek"
      },
      "translation": [
        1.0438928604125977,
        -1.197265386581421,
        -3.3086090087890625
      ],
      "scale": [
        0.32317793369293213,
        0.32317793369293213,
        0.32317793369293213
      ]
    },
    {
      "name": "trail_frontleft",
      "extras": {
        "NAEV_trail_generator": "zalek"
      },
      "translation": [
        1.720884919166565,
        -0.24087946116924286,
        0.1300818920135498
      ],
      "scale": [
        0.32317793369293213,
        0.32317793369293213,
        0.32317793369293213
      ]
    },
    {
      "name": "trail_frontright",
      "extras": {
        "NAEV_trail_generator": "zalek"
      },
      "translation": [
        -0.5894848108291626,
        -0.9608554244041443,
        1.9246487617492676
      ],
      "scale": [
        0.32317793369293213,
        0.32317793369293213,
        0.32317793369293213
      ]
    },
    {
      "name": "trail_nebula_left",
      "extras": {
        "NAEV_trail_generator": "nebula"
      },
      "translation": [
        1.5210998058319092,
        0.2770921587944031,
        -2.1826999187469482
      ],
      "scale": [
        0.32317793369293213,
        0.32317793369293213,
        0.32317793369293213
      ]
    },
    {
      "name": "trail_nebula_right",
      "extras": {
        "NAEV_trail_generator": "nebula"
      },
      "translation": [
        -1.2434072494506836,
        0.2770921587944031,
        -1.864793300628662
      ],
      "scale": [
        0.32317793369293213,
        0.32317793369293213,
        0.32317793369293213
      ]
    },
    {
      "name": "mount_fb1",
      "extras": {
        "NAEV_weapon_mount": "1"
      },
      "translation": [
        0.21011757850646973,
        -0.2896881103515625,
        0.25635650753974915
      ],
      "scale": [
        0.20912359654903412,
        0.20912359654903412,
        0.20912359654903412
      ]
    },
    {
      "name": "mount_fb4",
      "extras": {
        "NAEV_weapon_mount": "4"
      },
      "translation": [
        0.21011757850646973,
        -0.2896881103515625,
        -0.14812594652175903
      ],
      "scale": [
        0.20912359654903412,
        0.20912359654903412,
        0.20912359654903412
      ]
    },
    {
      "name": "mount_fb5",
      "extras": {
        "NAEV_weapon_mount": "5"
      },
      "translation": [
        -0.7246339321136475,
        -0.2896881103515625,
        1.3733922243118286
      ],
      "scale": [
        0.20912359654903412,
        0.20912359654903412,
        0.20912359654903412
      ]
    },
    {
      "name": "mount_large2",
      "extras": {
        "NAEV_weapon_mount": "2"
      },
      "translation": [
        0.9892704486846924,
        -0.3352566957473755,
        3.3265738487243652
      ],
      "scale": [
        0.20912359654903412,
        0.20912359654903412,
        0.20912359654903412
      ]
    },
    {
      "name": "mount_large3",
      "extras": {
        "NAEV_weapon_mount": "3"
      },
      "translation": [
        -1.1359044313430786,
        0.25631678104400635,
        -0.5001300573348999
      ],
      "scale": [
        0.20912359654903412,
        0.20912359654903412,
        0.20912359654903412
      ]
    }
  ],
  "scenes": [
    {
      "name": "base",
      "nodes": [
        0
      ]
    },
    {
      "name": "engine",
      "nodes": [
        1,
        2,
        3,
        4,
        5,
        6,
        7,
        8,
        9,
        10,
        11,
        12,
        13,
        14,
        15,
        16,
        17
      ]
    },
    {
      "name": "meta",
      "nodes": [
        18,
        19,
        20,
        21,
        22,
        23,
        24,
        25,
        26,
        27,
        28,
        29
      ]
    }
  ],
  "scene": 0,
  "extensionsUsed": [
    "EXT_texture_webp",
    "KHR_materials_emissive_strength"
  ],
  "extensionsRequired": [
    "EXT_texture_webp"
  ]
}
