{
  "asset": {
    "generator": "glTF-Transform v4.0.1",
    "version": "2.0"
  },
  "accessors": [
    {
      "type": "VEC3",
      "componentType": 5126,
      "count": 1353,
      "max": [
        0.6268889904022217,
        4.815246105194092,
        0.5930079817771912
      ],
      "min": [
        -0.6268889904022217,
        -3.5862410068511963,
        -0.5353909730911255
      ],
      "bufferView": 0,
      "byteOffset": 0
    },
    {
      "type": "VEC3",
      "componentType": 5126,
      "count": 1353,
      "bufferView": 0,
      "byteOffset": 12
    },
    {
      "type": "VEC2",
      "componentType": 5126,
      "count": 1353,
      "bufferView": 0,
      "byteOffset": 24
    },
    {
      "type": "SCALAR",
      "componentType": 5123,
      "count": 4122,
      "bufferView": 1,
      "byteOffset": 0
    },
    {
      "type": "SCALAR",
      "componentType": 5123,
      "count": 1536,
      "bufferView": 1,
      "byteOffset": 8244
    },
    {
      "type": "SCALAR",
      "componentType": 5123,
      "count": 288,
      "bufferView": 1,
      "byteOffset": 11316
    },
    {
      "type": "VEC3",
      "componentType": 5126,
      "count": 492,
      "max": [
        0.369001567363739,
        -3.3508076667785645,
        0.22053727507591248
      ],
      "min": [
        -0.369001567363739,
        -3.664966106414795,
        -0.05199597775936127
      ],
      "bufferView": 2,
      "byteOffset": 0
    },
    {
      "type": "VEC3",
      "componentType": 5126,
      "count": 492,
      "bufferView": 2,
      "byteOffset": 12
    },
    {
      "type": "VEC3",
      "componentType": 5126,
      "count": 112,
      "max": [
        0.32048800587654114,
        -3.664341926574707,
        0.18931199610233307
      ],
      "min": [
        -0.32048800587654114,
        -4.944534778594971,
        -0.01980699971318245
      ],
      "bufferView": 3,
      "byteOffset": 0
    },
    {
      "type": "VEC3",
      "componentType": 5126,
      "count": 112,
      "bufferView": 3,
      "byteOffset": 12
    },
    {
      "type": "VEC2",
      "componentType": 5126,
      "count": 112,
      "bufferView": 3,
      "byteOffset": 24
    }
  ],
  "bufferViews": [
    {
      "buffer": 0,
      "byteOffset": 0,
      "byteLength": 43296,
      "byteStride": 32,
      "target": 34962
    },
    {
      "buffer": 0,
      "byteOffset": 43296,
      "byteLength": 11892,
      "target": 34963
    },
    {
      "buffer": 0,
      "byteOffset": 55188,
      "byteLength": 11808,
      "byteStride": 24,
      "target": 34962
    },
    {
      "buffer": 0,
      "byteOffset": 66996,
      "byteLength": 3584,
      "byteStride": 32,
      "target": 34962
    }
  ],
  "samplers": [
    {
      "magFilter": 9729,
      "minFilter": 9987,
      "wrapS": 10497,
      "wrapT": 10497
    }
  ],
  "textures": [
    {
      "sampler": 0,
      "extensions": {
        "EXT_texture_webp": {
          "source": 1
        }
      }
    },
    {
      "sampler": 0,
      "extensions": {
        "EXT_texture_webp": {
          "source": 0
        }
      }
    },
    {
      "sampler": 0,
      "extensions": {
        "EXT_texture_webp": {
          "source": 2
        }
      }
    },
    {
      "sampler": 0,
      "extensions": {
        "EXT_texture_webp": {
          "source": 3
        }
      }
    }
  ],
  "images": [
    {
      "name": "divinity_normal",
      "mimeType": "image/webp",
      "uri": "divinity_normal.webp"
    },
    {
      "name": "divinity_diffuse",
      "mimeType": "image/webp",
      "uri": "divinity_diffuse.webp"
    },
    {
      "name": "divinity_metallic-divinity_roughness",
      "mimeType": "image/webp",
      "uri": "divinity_metallic-divinity_roughness.webp"
    },
    {
      "name": "gradient_yellow",
      "mimeType": "image/webp",
      "uri": "../textures/gradient_yellow.webp"
    }
  ],
  "buffers": [
    {
      "uri": "divinity.bin",
      "byteLength": 70580
    }
  ],
  "materials": [
    {
      "name": "Material",
      "pbrMetallicRoughness": {
        "baseColorTexture": {
          "index": 0
        },
        "metallicRoughnessTexture": {
          "index": 2
        }
      },
      "normalTexture": {
        "index": 1
      }
    },
    {
      "name": "rakausgang",
      "pbrMetallicRoughness": {
        "baseColorFactor": [
          0.11404799669981003,
          0.11404799669981003,
          0.11404799669981003,
          1
        ],
        "roughnessFactor": 0.5,
        "metallicFactor": 0.5
      }
    },
    {
      "name": "engine_glow_sirius",
      "alphaMode": "BLEND",
      "pbrMetallicRoughness": {
        "roughnessFactor": 0.75,
        "metallicFactor": 0,
        "baseColorTexture": {
          "index": 3
        }
      },
      "emissiveFactor": [
        1,
        1,
        1
      ],
      "emissiveTexture": {
        "index": 3
      }
    }
  ],
  "meshes": [
    {
      "name": "Cube_Cube.003",
      "primitives": [
        {
          "attributes": {
            "POSITION": 0,
            "NORMAL": 1,
            "TEXCOORD_0": 2
          },
          "mode": 4,
          "material": 0,
          "indices": 3
        }
      ]
    },
    {
      "name": "Cube.004_Cube.005",
      "primitives": [
        {
          "attributes": {
            "POSITION": 6,
            "NORMAL": 7
          },
          "mode": 4,
          "material": 1,
          "indices": 4
        }
      ]
    },
    {
      "name": "Cube.002_Cube.003",
      "primitives": [
        {
          "attributes": {
            "POSITION": 8,
            "NORMAL": 9,
            "TEXCOORD_0": 10
          },
          "mode": 4,
          "material": 2,
          "indices": 5
        }
      ]
    }
  ],
  "nodes": [
    {
      "name": "body_baked",
      "rotation": [
        0.7071068286895752,
        0,
        0,
        0.7071068286895752
      ],
      "scale": [
        5,
        5,
        5
      ],
      "mesh": 0
    },
    {
      "name": "engine",
      "rotation": [
        0.7071068286895752,
        0,
        0,
        0.7071068286895752
      ],
      "scale": [
        5,
        5,
        5
      ],
      "mesh": 1
    },
    {
      "name": "body_baked",
      "rotation": [
        0.7071068286895752,
        0,
        0,
        0.7071068286895752
      ],
      "scale": [
        5,
        5,
        5
      ],
      "mesh": 0
    },
    {
      "name": "engine",
      "rotation": [
        0.7071068286895752,
        0,
        0,
        0.7071068286895752
      ],
      "scale": [
        5,
        5,
        5
      ],
      "mesh": 1
    },
    {
      "name": "glo",
      "rotation": [
        0.7071068286895752,
        0,
        0,
        0.7071068286895752
      ],
      "scale": [
        5,
        5,
        5
      ],
      "mesh": 2
    },
    {
      "name": "trail_left",
      "extras": {
        "NAEV_trail_generator": "sirius"
      },
      "translation": [
        1.1431522369384766,
        -0.39315176010131836,
        -18.001197814941406
      ]
    },
    {
      "name": "mount_fb0",
      "extras": {
        "NAEV_weapon_mount": "0"
      },
      "translation": [
        1.8963314294815063,
        -0.24764013290405273,
        7.040431499481201
      ]
    },
    {
      "name": "trail_right",
      "extras": {
        "NAEV_trail_generator": "sirius"
      },
      "translation": [
        -1.143149971961975,
        -0.39315176010131836,
        -18.001197814941406
      ]
    },
    {
      "name": "mount_fb1",
      "extras": {
        "NAEV_weapon_mount": "1"
      },
      "translation": [
        -1.8963299989700317,
        -0.24764013290405273,
        7.040431499481201
      ]
    },
    {
      "name": "mount_fb4",
      "extras": {
        "NAEV_weapon_mount": "4"
      },
      "translation": [
        1.8963314294815063,
        -0.24764013290405273,
        -0.33647966384887695
      ]
    },
    {
      "name": "mount_fb5",
      "extras": {
        "NAEV_weapon_mount": "5"
      },
      "translation": [
        -1.8963299989700317,
        -0.24764013290405273,
        -0.33647966384887695
      ]
    },
    {
      "name": "mount_main2",
      "extras": {
        "NAEV_weapon_mount": "2"
      },
      "translation": [
        0,
        0.9341004490852356,
        9.397807121276855
      ]
    },
    {
      "name": "mount_main3",
      "extras": {
        "NAEV_weapon_mount": "3"
      },
      "translation": [
        0,
        0.9341004490852356,
        -3.560338020324707
      ]
    }
  ],
  "scenes": [
    {
      "name": "base",
      "extras": {
        "BBB_props": {}
      },
      "nodes": [
        0,
        1
      ]
    },
    {
      "name": "engine",
      "extras": {
        "BBB_props": {}
      },
      "nodes": [
        2,
        3,
        4
      ]
    },
    {
      "name": "meta",
      "nodes": [
        5,
        6,
        7,
        8,
        9,
        10,
        11,
        12
      ]
    }
  ],
  "scene": 0,
  "extensionsUsed": [
    "EXT_texture_webp"
  ],
  "extensionsRequired": [
    "EXT_texture_webp"
  ]
}
