{
  "asset": {
    "generator": "glTF-Transform v4.0.1",
    "version": "2.0"
  },
  "accessors": [
    {
      "type": "VEC3",
      "componentType": 5126,
      "count": 1470,
      "max": [
        4.856200218200684,
        9.401983261108398,
        2.7481963634490967
      ],
      "min": [
        -4.856200218200684,
        -6.629956245422363,
        -1.2460099458694458
      ],
      "bufferView": 0,
      "byteOffset": 0
    },
    {
      "type": "VEC3",
      "componentType": 5126,
      "count": 1470,
      "bufferView": 0,
      "byteOffset": 12
    },
    {
      "type": "VEC2",
      "componentType": 5126,
      "count": 1470,
      "bufferView": 0,
      "byteOffset": 24
    },
    {
      "type": "SCALAR",
      "componentType": 5123,
      "count": 5049,
      "bufferView": 1,
      "byteOffset": 0
    },
    {
      "type": "SCALAR",
      "componentType": 5123,
      "count": 336,
      "bufferView": 1,
      "byteOffset": 10100
    },
    {
      "type": "VEC3",
      "componentType": 5126,
      "count": 104,
      "max": [
        1.230370044708252,
        1.3570619821548462,
        -3.303617000579834
      ],
      "min": [
        -1.230370044708252,
        0.8484790325164795,
        -7.003683567047119
      ],
      "bufferView": 2,
      "byteOffset": 0
    },
    {
      "type": "VEC3",
      "componentType": 5126,
      "count": 104,
      "bufferView": 2,
      "byteOffset": 12
    },
    {
      "type": "VEC2",
      "componentType": 5126,
      "count": 104,
      "bufferView": 2,
      "byteOffset": 24
    }
  ],
  "bufferViews": [
    {
      "buffer": 0,
      "byteOffset": 0,
      "byteLength": 47040,
      "byteStride": 32,
      "target": 34962
    },
    {
      "buffer": 0,
      "byteOffset": 47040,
      "byteLength": 10772,
      "target": 34963
    },
    {
      "buffer": 0,
      "byteOffset": 57812,
      "byteLength": 3328,
      "byteStride": 32,
      "target": 34962
    }
  ],
  "samplers": [
    {
      "magFilter": 9729,
      "minFilter": 9987,
      "wrapS": 10497,
      "wrapT": 10497
    }
  ],
  "textures": [
    {
      "sampler": 0,
      "extensions": {
        "EXT_texture_webp": {
          "source": 1
        }
      }
    },
    {
      "sampler": 0,
      "extensions": {
        "EXT_texture_webp": {
          "source": 0
        }
      }
    },
    {
      "sampler": 0,
      "extensions": {
        "EXT_texture_webp": {
          "source": 2
        }
      }
    },
    {
      "sampler": 0,
      "extensions": {
        "EXT_texture_webp": {
          "source": 3
        }
      }
    }
  ],
  "images": [
    {
      "name": "AO_bake",
      "mimeType": "image/webp",
      "uri": "AO_bake.webp"
    },
    {
      "name": "quicksilver",
      "mimeType": "image/webp",
      "uri": "quicksilver.webp"
    },
    {
      "name": "GLO_bake",
      "mimeType": "image/webp",
      "uri": "GLO_bake.webp"
    },
    {
      "name": "gradient_blue_orange",
      "mimeType": "image/webp",
      "uri": "../textures/gradient_blue_orange.webp"
    }
  ],
  "buffers": [
    {
      "uri": "quicksilver.bin",
      "byteLength": 61140
    }
  ],
  "materials": [
    {
      "name": "base",
      "pbrMetallicRoughness": {
        "roughnessFactor": 0.20000000298023224,
        "metallicFactor": 0.699999988079071,
        "baseColorTexture": {
          "index": 0
        }
      },
      "occlusionTexture": {
        "index": 1
      }
    },
    {
      "name": "base_glow",
      "pbrMetallicRoughness": {
        "roughnessFactor": 0.20000000298023224,
        "metallicFactor": 0.699999988079071,
        "baseColorTexture": {
          "index": 0
        }
      },
      "emissiveFactor": [
        1,
        1,
        1
      ],
      "emissiveTexture": {
        "index": 2
      },
      "occlusionTexture": {
        "index": 1
      }
    },
    {
      "name": "engine_glow_melendez",
      "alphaMode": "BLEND",
      "pbrMetallicRoughness": {
        "roughnessFactor": 0.75,
        "metallicFactor": 0,
        "baseColorTexture": {
          "index": 3
        }
      },
      "emissiveFactor": [
        1,
        1,
        1
      ],
      "emissiveTexture": {
        "index": 3
      }
    }
  ],
  "meshes": [
    {
      "name": "base",
      "primitives": [
        {
          "attributes": {
            "POSITION": 0,
            "NORMAL": 1,
            "TEXCOORD_0": 2
          },
          "mode": 4,
          "material": 0,
          "indices": 3
        }
      ]
    },
    {
      "name": "base",
      "primitives": [
        {
          "attributes": {
            "POSITION": 0,
            "NORMAL": 1,
            "TEXCOORD_0": 2
          },
          "mode": 4,
          "material": 1,
          "indices": 3
        }
      ]
    },
    {
      "name": "glow",
      "primitives": [
        {
          "attributes": {
            "POSITION": 5,
            "NORMAL": 6,
            "TEXCOORD_0": 7
          },
          "mode": 4,
          "material": 2,
          "indices": 4
        }
      ]
    }
  ],
  "nodes": [
    {
      "name": "quicksilver",
      "translation": [
        0.00011996710964012891,
        -0.38544175028800964,
        -0.0004169214516878128
      ],
      "rotation": [
        0.7071068286895752,
        0,
        0,
        0.7071068286895752
      ],
      "mesh": 0
    },
    {
      "name": "base_glow",
      "translation": [
        0.00011996710964012891,
        -0.38544175028800964,
        -0.0004169214516878128
      ],
      "rotation": [
        0.7071068286895752,
        0,
        0,
        0.7071068286895752
      ],
      "mesh": 1
    },
    {
      "name": "glow",
      "translation": [
        0,
        -1.1706513166427612,
        1.2255257368087769
      ],
      "scale": [
        0.9848701357841492,
        0.9848701357841492,
        0.9848701357841492
      ],
      "mesh": 2
    },
    {
      "name": "mount_small_left",
      "extras": {
        "NAEV_weapon_mount": "0"
      },
      "translation": [
        1.2340290546417236,
        -1.3736217021942139,
        -0.05361056327819824
      ],
      "scale": [
        0.6616091132164001,
        0.6616091132164001,
        0.6616091132164001
      ]
    },
    {
      "name": "trail_left",
      "extras": {
        "NAEV_trail_generator": "thin"
      },
      "translation": [
        0.9225196838378906,
        -0.0010060667991638184,
        -2.0757863521575928
      ],
      "scale": [
        0.6616091132164001,
        0.6616091132164001,
        0.6616091132164001
      ]
    },
    {
      "name": "trail_right",
      "extras": {
        "NAEV_trail_generator": "thin"
      },
      "translation": [
        -0.9225199818611145,
        -0.0010060667991638184,
        -2.0757863521575928
      ],
      "scale": [
        0.6616091132164001,
        0.6616091132164001,
        0.6616091132164001
      ]
    },
    {
      "name": "mount_small_right",
      "extras": {
        "NAEV_weapon_mount": "1"
      },
      "translation": [
        -1.23403000831604,
        -1.3736217021942139,
        -0.05361056327819824
      ],
      "scale": [
        0.6616091132164001,
        0.6616091132164001,
        0.6616091132164001
      ]
    },
    {
      "name": "trail_nebula_left",
      "extras": {
        "NAEV_trail_generator": "nebulaS"
      },
      "translation": [
        4.857562065124512,
        -3.0882554054260254,
        -0.4281865358352661
      ],
      "scale": [
        0.6616091132164001,
        0.6616091132164001,
        0.6616091132164001
      ]
    },
    {
      "name": "trail_nebula_right",
      "extras": {
        "NAEV_trail_generator": "nebulaS"
      },
      "translation": [
        -4.857560157775879,
        -3.0882554054260254,
        -0.4281865358352661
      ],
      "scale": [
        0.6616091132164001,
        0.6616091132164001,
        0.6616091132164001
      ]
    }
  ],
  "scenes": [
    {
      "name": "base",
      "extras": {
        "BBB_props": {}
      },
      "nodes": [
        0
      ]
    },
    {
      "name": "engine",
      "extras": {
        "BBB_props": {}
      },
      "nodes": [
        1,
        2
      ]
    },
    {
      "name": "meta",
      "nodes": [
        3,
        4,
        5,
        6,
        7,
        8
      ]
    }
  ],
  "scene": 0,
  "extensionsUsed": [
    "EXT_texture_webp"
  ],
  "extensionsRequired": [
    "EXT_texture_webp"
  ]
}
