{
  "asset": {
    "generator": "glTF-Transform v4.0.1",
    "version": "2.0"
  },
  "accessors": [
    {
      "type": "VEC3",
      "componentType": 5126,
      "count": 1900,
      "max": [
        12.807182312011719,
        18.272024154663086,
        9.417962074279785
      ],
      "min": [
        -12.807182312011719,
        -9.20315170288086,
        -6.351443767547607
      ],
      "bufferView": 0,
      "byteOffset": 0
    },
    {
      "type": "VEC3",
      "componentType": 5126,
      "count": 1900,
      "bufferView": 0,
      "byteOffset": 12
    },
    {
      "type": "VEC2",
      "componentType": 5126,
      "count": 1900,
      "bufferView": 0,
      "byteOffset": 24
    },
    {
      "type": "VEC2",
      "componentType": 5126,
      "count": 1900,
      "bufferView": 0,
      "byteOffset": 32
    },
    {
      "type": "SCALAR",
      "componentType": 5123,
      "count": 4998,
      "bufferView": 1,
      "byteOffset": 0
    },
    {
      "type": "SCALAR",
      "componentType": 5123,
      "count": 4998,
      "bufferView": 1,
      "byteOffset": 9996
    },
    {
      "type": "SCALAR",
      "componentType": 5123,
      "count": 480,
      "bufferView": 1,
      "byteOffset": 19992
    },
    {
      "type": "VEC3",
      "componentType": 5126,
      "count": 4918,
      "max": [
        12.807182312011719,
        18.272024154663086,
        9.417962074279785
      ],
      "min": [
        -12.807182312011719,
        -9.20315170288086,
        -6.351443767547607
      ],
      "bufferView": 2,
      "byteOffset": 0
    },
    {
      "type": "VEC3",
      "componentType": 5126,
      "count": 4918,
      "bufferView": 2,
      "byteOffset": 12
    },
    {
      "type": "VEC2",
      "componentType": 5126,
      "count": 4918,
      "bufferView": 2,
      "byteOffset": 24
    },
    {
      "type": "VEC2",
      "componentType": 5126,
      "count": 4918,
      "bufferView": 2,
      "byteOffset": 32
    },
    {
      "type": "VEC3",
      "componentType": 5126,
      "count": 352,
      "max": [
        4.365092754364014,
        -13.554018020629883,
        -0.025599032640457153
      ],
      "min": [
        -4.365092754364014,
        -19.07244873046875,
        -4.037194728851318
      ],
      "bufferView": 3,
      "byteOffset": 0
    },
    {
      "type": "VEC3",
      "componentType": 5126,
      "count": 352,
      "bufferView": 3,
      "byteOffset": 12
    },
    {
      "type": "VEC2",
      "componentType": 5126,
      "count": 352,
      "bufferView": 3,
      "byteOffset": 24
    }
  ],
  "bufferViews": [
    {
      "buffer": 0,
      "byteOffset": 0,
      "byteLength": 76000,
      "byteStride": 40,
      "target": 34962
    },
    {
      "buffer": 0,
      "byteOffset": 76000,
      "byteLength": 20952,
      "target": 34963
    },
    {
      "buffer": 0,
      "byteOffset": 96952,
      "byteLength": 196720,
      "byteStride": 40,
      "target": 34962
    },
    {
      "buffer": 0,
      "byteOffset": 293672,
      "byteLength": 11264,
      "byteStride": 32,
      "target": 34962
    }
  ],
  "samplers": [
    {
      "magFilter": 9729,
      "minFilter": 9987,
      "wrapS": 10497,
      "wrapT": 10497
    }
  ],
  "textures": [
    {
      "sampler": 0,
      "extensions": {
        "EXT_texture_webp": {
          "source": 2
        }
      }
    },
    {
      "sampler": 0,
      "extensions": {
        "EXT_texture_webp": {
          "source": 0
        }
      }
    },
    {
      "sampler": 0,
      "extensions": {
        "EXT_texture_webp": {
          "source": 1
        }
      }
    },
    {
      "sampler": 0,
      "extensions": {
        "EXT_texture_webp": {
          "source": 3
        }
      }
    },
    {
      "sampler": 0,
      "extensions": {
        "EXT_texture_webp": {
          "source": 5
        }
      }
    },
    {
      "sampler": 0,
      "extensions": {
        "EXT_texture_webp": {
          "source": 4
        }
      }
    }
  ],
  "images": [
    {
      "name": "lancelotGLO",
      "mimeType": "image/webp",
      "uri": "lancelotGLO.webp"
    },
    {
      "name": "AO_bake",
      "mimeType": "image/webp",
      "uri": "AO_bake.webp"
    },
    {
      "name": "lancelot",
      "mimeType": "image/webp",
      "uri": "lancelot.webp"
    },
    {
      "name": "GLO_bake",
      "mimeType": "image/webp",
      "uri": "GLO_bake.webp"
    },
    {
      "name": "gradient_cyan2",
      "mimeType": "image/webp",
      "uri": "../textures/gradient_cyan2.webp"
    },
    {
      "name": "gradient_cyan",
      "mimeType": "image/webp",
      "uri": "../textures/gradient_cyan.webp"
    }
  ],
  "buffers": [
    {
      "uri": "lancelot.bin",
      "byteLength": 304936
    }
  ],
  "materials": [
    {
      "name": "base",
      "pbrMetallicRoughness": {
        "roughnessFactor": 0.20000000298023224,
        "metallicFactor": 0.699999988079071,
        "baseColorTexture": {
          "index": 0
        }
      },
      "emissiveFactor": [
        1,
        1,
        1
      ],
      "emissiveTexture": {
        "index": 1
      },
      "occlusionTexture": {
        "index": 2,
        "texCoord": 1
      }
    },
    {
      "name": "base_glow",
      "pbrMetallicRoughness": {
        "roughnessFactor": 0.20000000298023224,
        "metallicFactor": 0.699999988079071,
        "baseColorTexture": {
          "index": 0
        }
      },
      "emissiveFactor": [
        1,
        1,
        1
      ],
      "emissiveTexture": {
        "index": 3,
        "texCoord": 1
      },
      "occlusionTexture": {
        "index": 2,
        "texCoord": 1
      }
    },
    {
      "name": "engine_glow_nexus",
      "alphaMode": "BLEND",
      "pbrMetallicRoughness": {
        "baseColorFactor": [
          0,
          0.3277781903743744,
          1,
          1
        ],
        "roughnessFactor": 0.75,
        "metallicFactor": 0,
        "baseColorTexture": {
          "index": 4
        }
      },
      "emissiveFactor": [
        1,
        1,
        1
      ],
      "emissiveTexture": {
        "index": 5
      }
    }
  ],
  "meshes": [
    {
      "name": "base",
      "primitives": [
        {
          "attributes": {
            "POSITION": 0,
            "NORMAL": 1,
            "TEXCOORD_0": 2,
            "TEXCOORD_1": 3
          },
          "mode": 4,
          "material": 0,
          "indices": 4
        }
      ]
    },
    {
      "name": "base",
      "primitives": [
        {
          "attributes": {
            "POSITION": 7,
            "NORMAL": 8,
            "TEXCOORD_0": 9,
            "TEXCOORD_1": 10
          },
          "mode": 4,
          "material": 1,
          "indices": 5
        }
      ]
    },
    {
      "name": "glow",
      "primitives": [
        {
          "attributes": {
            "POSITION": 11,
            "NORMAL": 12,
            "TEXCOORD_0": 13
          },
          "mode": 4,
          "material": 2,
          "indices": 6
        }
      ]
    }
  ],
  "nodes": [
    {
      "name": "base",
      "rotation": [
        0.7071068286895752,
        0,
        0,
        0.7071068286895752
      ],
      "mesh": 0
    },
    {
      "name": "base_glow",
      "rotation": [
        0.7071068286895752,
        0,
        0,
        0.7071068286895752
      ],
      "mesh": 1
    },
    {
      "name": "glow",
      "translation": [
        0.04785333573818207,
        -1.5033587217330933,
        4.284426212310791
      ],
      "rotation": [
        0.7071068286895752,
        0,
        0,
        0.7071068286895752
      ],
      "scale": [
        0.992125928401947,
        0.992125928401947,
        0.992125928401947
      ],
      "mesh": 2
    },
    {
      "name": "mount_medium",
      "extras": {
        "NAEV_weapon_mount": "0"
      },
      "translation": [
        0,
        -2.696561098098755,
        7.798274993896484
      ]
    },
    {
      "name": "trail_left",
      "extras": {
        "NAEV_trail_generator": "default"
      },
      "translation": [
        3.209099769592285,
        0.5199885368347168,
        -9.358925819396973
      ],
      "scale": [
        1.4456725120544434,
        1.4456725120544434,
        1.4456725120544434
      ]
    },
    {
      "name": "trail_right",
      "extras": {
        "NAEV_trail_generator": "default"
      },
      "translation": [
        -3.2091000080108643,
        0.5199885368347168,
        -9.358925819396973
      ],
      "scale": [
        1.4456725120544434,
        1.4456725120544434,
        1.4456725120544434
      ]
    },
    {
      "name": "trail_nebula_left",
      "extras": {
        "NAEV_trail_generator": "nebulaS"
      },
      "translation": [
        12.59465217590332,
        -6.867648601531982,
        -4.999969482421875
      ],
      "scale": [
        1.4456725120544434,
        1.4456725120544434,
        1.4456725120544434
      ]
    },
    {
      "name": "trail_nebula_right",
      "extras": {
        "NAEV_trail_generator": "nebulaS"
      },
      "translation": [
        -12.59469985961914,
        -6.867648601531982,
        -4.999969482421875
      ],
      "scale": [
        1.4456725120544434,
        1.4456725120544434,
        1.4456725120544434
      ]
    },
    {
      "name": "trail_nebula_center",
      "extras": {
        "NAEV_trail_generator": "nebulaS"
      },
      "translation": [
        0,
        -9.144341468811035,
        -3.327296257019043
      ],
      "scale": [
        1.4456725120544434,
        1.4456725120544434,
        1.4456725120544434
      ]
    },
    {
      "name": "mount_small_center",
      "extras": {
        "NAEV_weapon_mount": "1"
      },
      "translation": [
        0,
        -4.462160110473633,
        0.8752679824829102
      ]
    },
    {
      "name": "mount_small_right",
      "extras": {
        "NAEV_weapon_mount": "3"
      },
      "translation": [
        -2.8342509269714355,
        -0.04816389083862305,
        11.747641563415527
      ]
    },
    {
      "name": "mount_small_left",
      "extras": {
        "NAEV_weapon_mount": "2"
      },
      "translation": [
        2.834249973297119,
        -0.04816389083862305,
        11.747641563415527
      ]
    }
  ],
  "scenes": [
    {
      "name": "base",
      "nodes": [
        0
      ]
    },
    {
      "name": "engine",
      "nodes": [
        1,
        2
      ]
    },
    {
      "name": "meta",
      "nodes": [
        3,
        4,
        5,
        6,
        7,
        8,
        9,
        10,
        11
      ]
    }
  ],
  "scene": 0,
  "extensionsUsed": [
    "EXT_texture_webp"
  ],
  "extensionsRequired": [
    "EXT_texture_webp"
  ]
}
