{
  "asset": {
    "generator": "glTF-Transform v4.0.1",
    "version": "2.0"
  },
  "accessors": [
    {
      "type": "VEC3",
      "componentType": 5126,
      "count": 17773,
      "max": [
        5.482969284057617,
        2.5681982040405273,
        14.218793869018555
      ],
      "min": [
        -5.482969284057617,
        -3.37347412109375,
        -15.51037883758545
      ],
      "bufferView": 0,
      "byteOffset": 0
    },
    {
      "type": "VEC3",
      "componentType": 5126,
      "count": 17773,
      "bufferView": 0,
      "byteOffset": 12
    },
    {
      "type": "VEC2",
      "componentType": 5126,
      "count": 17773,
      "bufferView": 0,
      "byteOffset": 24
    },
    {
      "type": "SCALAR",
      "componentType": 5123,
      "count": 39396,
      "bufferView": 1,
      "byteOffset": 0
    },
    {
      "type": "SCALAR",
      "componentType": 5123,
      "count": 528,
      "bufferView": 1,
      "byteOffset": 78792
    },
    {
      "type": "VEC3",
      "componentType": 5126,
      "count": 416,
      "max": [
        2.6375842094421387,
        -0.48373597860336304,
        16.768783569335938
      ],
      "min": [
        -2.6375842094421387,
        -2.637584686279297,
        13.749984741210938
      ],
      "bufferView": 2,
      "byteOffset": 0
    },
    {
      "type": "VEC3",
      "componentType": 5126,
      "count": 416,
      "bufferView": 2,
      "byteOffset": 12
    },
    {
      "type": "VEC2",
      "componentType": 5126,
      "count": 416,
      "bufferView": 2,
      "byteOffset": 24
    }
  ],
  "bufferViews": [
    {
      "buffer": 0,
      "byteOffset": 0,
      "byteLength": 568736,
      "byteStride": 32,
      "target": 34962
    },
    {
      "buffer": 0,
      "byteOffset": 568736,
      "byteLength": 79848,
      "target": 34963
    },
    {
      "buffer": 0,
      "byteOffset": 648584,
      "byteLength": 13312,
      "byteStride": 32,
      "target": 34962
    }
  ],
  "samplers": [
    {
      "magFilter": 9729,
      "minFilter": 9987,
      "wrapS": 10497,
      "wrapT": 10497
    }
  ],
  "textures": [
    {
      "sampler": 0,
      "extensions": {
        "EXT_texture_webp": {
          "source": 3
        }
      }
    },
    {
      "sampler": 0,
      "extensions": {
        "EXT_texture_webp": {
          "source": 0
        }
      }
    },
    {
      "sampler": 0,
      "extensions": {
        "EXT_texture_webp": {
          "source": 1
        }
      }
    },
    {
      "sampler": 0,
      "extensions": {
        "EXT_texture_webp": {
          "source": 2
        }
      }
    },
    {
      "sampler": 0,
      "extensions": {
        "EXT_texture_webp": {
          "source": 5
        }
      }
    },
    {
      "sampler": 0,
      "extensions": {
        "EXT_texture_webp": {
          "source": 4
        }
      }
    },
    {
      "sampler": 0,
      "extensions": {
        "EXT_texture_webp": {
          "source": 6
        }
      }
    }
  ],
  "images": [
    {
      "name": "transporter_empire_emit",
      "mimeType": "image/webp",
      "uri": "transporter_empire_emit.webp"
    },
    {
      "name": "transporter_empire_normal",
      "mimeType": "image/webp",
      "uri": "transporter_empire_normal.webp"
    },
    {
      "name": "AO_bake-transporter_empire_roughness-transporter_empire_metallic",
      "mimeType": "image/webp",
      "uri": "AO_bake-transporter_empire_roughness-transporter_empire_metallic.webp"
    },
    {
      "name": "transporter_empire_diffuse",
      "mimeType": "image/webp",
      "uri": "transporter_empire_diffuse.webp"
    },
    {
      "name": "gradient_cyan2",
      "mimeType": "image/webp",
      "uri": "../textures/gradient_cyan2.webp"
    },
    {
      "name": "gradient_cyan",
      "mimeType": "image/webp",
      "uri": "../textures/gradient_cyan.webp"
    },
    {
      "name": "GLO_bake",
      "mimeType": "image/webp",
      "uri": "GLO_bake.webp"
    }
  ],
  "buffers": [
    {
      "uri": "rainmaker_empire.bin",
      "byteLength": 661896
    }
  ],
  "materials": [
    {
      "name": "base",
      "pbrMetallicRoughness": {
        "baseColorTexture": {
          "index": 0
        },
        "metallicRoughnessTexture": {
          "index": 3
        }
      },
      "emissiveFactor": [
        1,
        1,
        1
      ],
      "emissiveTexture": {
        "index": 1
      },
      "normalTexture": {
        "index": 2
      },
      "occlusionTexture": {
        "index": 3
      }
    },
    {
      "name": "engine_glow_nexus",
      "alphaMode": "BLEND",
      "pbrMetallicRoughness": {
        "baseColorFactor": [
          0,
          0.3277781903743744,
          1,
          1
        ],
        "roughnessFactor": 0.75,
        "metallicFactor": 0,
        "baseColorTexture": {
          "index": 4
        }
      },
      "emissiveFactor": [
        1,
        1,
        1
      ],
      "emissiveTexture": {
        "index": 5
      }
    },
    {
      "name": "base_glow",
      "pbrMetallicRoughness": {
        "baseColorTexture": {
          "index": 0
        },
        "metallicRoughnessTexture": {
          "index": 3
        }
      },
      "emissiveFactor": [
        1,
        1,
        1
      ],
      "emissiveTexture": {
        "index": 6
      },
      "normalTexture": {
        "index": 2
      },
      "occlusionTexture": {
        "index": 3
      }
    }
  ],
  "meshes": [
    {
      "name": "Base",
      "primitives": [
        {
          "attributes": {
            "POSITION": 0,
            "NORMAL": 1,
            "TEXCOORD_0": 2
          },
          "mode": 4,
          "material": 0,
          "indices": 3
        }
      ]
    },
    {
      "name": "Cube.001",
      "primitives": [
        {
          "attributes": {
            "POSITION": 5,
            "NORMAL": 6,
            "TEXCOORD_0": 7
          },
          "mode": 4,
          "material": 1,
          "indices": 4
        }
      ]
    },
    {
      "name": "Base",
      "primitives": [
        {
          "attributes": {
            "POSITION": 0,
            "NORMAL": 1,
            "TEXCOORD_0": 2
          },
          "mode": 4,
          "material": 2,
          "indices": 3
        }
      ]
    }
  ],
  "nodes": [
    {
      "name": "Base",
      "rotation": [
        0,
        -1,
        0,
        4.371138828673793e-8
      ],
      "mesh": 0
    },
    {
      "name": "Engines",
      "rotation": [
        0,
        -1,
        0,
        4.371138828673793e-8
      ],
      "mesh": 1
    },
    {
      "name": "Base Glow",
      "rotation": [
        0,
        -1,
        0,
        4.371138828673793e-8
      ],
      "mesh": 2
    },
    {
      "name": "mount_fb0",
      "extras": {
        "NAEV_weapon_mount": "0"
      },
      "translation": [
        0,
        -2.599903106689453,
        2.948162078857422
      ]
    },
    {
      "name": "trail_bottom_left",
      "extras": {
        "NAEV_trail_generator": "default"
      },
      "translation": [
        2,
        -2.0328173637390137,
        -13.93469524383545
      ],
      "scale": [
        0.9358285069465637,
        0.9358285069465637,
        0.9358285069465637
      ]
    },
    {
      "name": "trail_bottom_right",
      "extras": {
        "NAEV_trail_generator": "default"
      },
      "translation": [
        -2,
        -2.0328173637390137,
        -13.93469524383545
      ],
      "scale": [
        0.9358285069465637,
        0.9358285069465637,
        0.9358285069465637
      ]
    },
    {
      "name": "trail_top_left",
      "extras": {
        "NAEV_trail_generator": "default"
      },
      "translation": [
        1.1550599336624146,
        -1.125288963317871,
        -13.93469524383545
      ],
      "scale": [
        0.9358285069465637,
        0.9358285069465637,
        0.9358285069465637
      ]
    },
    {
      "name": "trail_top_right",
      "extras": {
        "NAEV_trail_generator": "default"
      },
      "translation": [
        -1.155060052871704,
        -1.125288963317871,
        -13.93469524383545
      ],
      "scale": [
        0.9358285069465637,
        0.9358285069465637,
        0.9358285069465637
      ]
    },
    {
      "name": "trail_nebula_top_left",
      "extras": {
        "NAEV_trail_generator": "nebulaS"
      },
      "translation": [
        1.2495338916778564,
        2.398020029067993,
        -9.79898738861084
      ],
      "scale": [
        0.9358285069465637,
        0.9358285069465637,
        0.9358285069465637
      ]
    },
    {
      "name": "trail_nebula_top_right",
      "extras": {
        "NAEV_trail_generator": "nebulaS"
      },
      "translation": [
        -1.2495299577713013,
        2.398020029067993,
        -9.79898738861084
      ],
      "scale": [
        0.9358285069465637,
        0.9358285069465637,
        0.9358285069465637
      ]
    },
    {
      "name": "trail_nebula_left",
      "extras": {
        "NAEV_trail_generator": "nebula"
      },
      "translation": [
        5.354145050048828,
        -2.9504146575927734,
        -12.970733642578125
      ],
      "scale": [
        0.9358285069465637,
        0.9358285069465637,
        0.9358285069465637
      ]
    },
    {
      "name": "trail_nebula_right",
      "extras": {
        "NAEV_trail_generator": "nebula"
      },
      "translation": [
        -5.35414981842041,
        -2.9504146575927734,
        -12.970733642578125
      ],
      "scale": [
        0.9358285069465637,
        0.9358285069465637,
        0.9358285069465637
      ]
    },
    {
      "name": "mount_fb1",
      "extras": {
        "NAEV_weapon_mount": "1"
      },
      "translation": [
        0,
        -2.599903106689453,
        -5.266400337219238
      ]
    },
    {
      "name": "mount_medium2",
      "extras": {
        "NAEV_weapon_mount": "2"
      },
      "translation": [
        3.016695261001587,
        -2.9878597259521484,
        11.273177146911621
      ]
    },
    {
      "name": "mount_medium3",
      "extras": {
        "NAEV_weapon_mount": "3"
      },
      "translation": [
        -3.016700029373169,
        -2.9878597259521484,
        11.273177146911621
      ]
    },
    {
      "name": "mount_medium4",
      "extras": {
        "NAEV_weapon_mount": "4"
      },
      "translation": [
        1.0975401401519775,
        2.404287338256836,
        -4.217559814453125
      ]
    },
    {
      "name": "mount_medium5",
      "extras": {
        "NAEV_weapon_mount": "5"
      },
      "translation": [
        -1.097540020942688,
        2.404287338256836,
        -4.217559814453125
      ]
    }
  ],
  "scenes": [
    {
      "name": "base",
      "nodes": [
        0
      ]
    },
    {
      "name": "engine",
      "nodes": [
        1,
        2
      ]
    },
    {
      "name": "meta",
      "nodes": [
        3,
        4,
        5,
        6,
        7,
        8,
        9,
        10,
        11,
        12,
        13,
        14,
        15,
        16
      ]
    }
  ],
  "scene": 1,
  "extensionsUsed": [
    "EXT_texture_webp"
  ],
  "extensionsRequired": [
    "EXT_texture_webp"
  ]
}
