{
  "asset": {
    "generator": "glTF-Transform v4.0.1",
    "version": "2.0"
  },
  "accessors": [
    {
      "type": "VEC3",
      "componentType": 5126,
      "count": 6338,
      "max": [
        3.9143381118774414,
        1.0653986930847168,
        5.100000381469727
      ],
      "min": [
        -3.9143381118774414,
        -1.0653986930847168,
        -4.5
      ],
      "bufferView": 0,
      "byteOffset": 0
    },
    {
      "type": "VEC3",
      "componentType": 5126,
      "count": 6338,
      "bufferView": 0,
      "byteOffset": 12
    },
    {
      "type": "VEC2",
      "componentType": 5126,
      "count": 6338,
      "bufferView": 0,
      "byteOffset": 24
    },
    {
      "type": "SCALAR",
      "componentType": 5123,
      "count": 14760,
      "bufferView": 1,
      "byteOffset": 0
    },
    {
      "type": "SCALAR",
      "componentType": 5123,
      "count": 4032,
      "bufferView": 1,
      "byteOffset": 29520
    },
    {
      "type": "SCALAR",
      "componentType": 5123,
      "count": 1632,
      "bufferView": 1,
      "byteOffset": 37584
    },
    {
      "type": "VEC3",
      "componentType": 5126,
      "count": 790,
      "max": [
        1.7499998807907104,
        -2.766666889190674,
        0.49999991059303284
      ],
      "min": [
        -1.7499998807907104,
        -3.544451951980591,
        -0.49999916553497314
      ],
      "bufferView": 2,
      "byteOffset": 0
    },
    {
      "type": "VEC3",
      "componentType": 5126,
      "count": 790,
      "bufferView": 2,
      "byteOffset": 12
    },
    {
      "type": "VEC2",
      "componentType": 5126,
      "count": 790,
      "bufferView": 2,
      "byteOffset": 24
    },
    {
      "type": "VEC3",
      "componentType": 5126,
      "count": 1056,
      "max": [
        1.6744791269302368,
        -4.24875020980835,
        0.42447927594184875
      ],
      "min": [
        -1.6744791269302368,
        -4.974459171295166,
        -0.4244789183139801
      ],
      "bufferView": 3,
      "byteOffset": 0
    },
    {
      "type": "VEC3",
      "componentType": 5126,
      "count": 1056,
      "bufferView": 3,
      "byteOffset": 12
    },
    {
      "type": "VEC2",
      "componentType": 5126,
      "count": 1056,
      "bufferView": 3,
      "byteOffset": 24
    }
  ],
  "bufferViews": [
    {
      "buffer": 0,
      "byteOffset": 0,
      "byteLength": 202816,
      "byteStride": 32,
      "target": 34962
    },
    {
      "buffer": 0,
      "byteOffset": 202816,
      "byteLength": 40848,
      "target": 34963
    },
    {
      "buffer": 0,
      "byteOffset": 243664,
      "byteLength": 25280,
      "byteStride": 32,
      "target": 34962
    },
    {
      "buffer": 0,
      "byteOffset": 268944,
      "byteLength": 33792,
      "byteStride": 32,
      "target": 34962
    }
  ],
  "samplers": [
    {
      "magFilter": 9729,
      "minFilter": 9987,
      "wrapS": 10497,
      "wrapT": 10497
    }
  ],
  "textures": [
    {
      "sampler": 0,
      "extensions": {
        "EXT_texture_webp": {
          "source": 3
        }
      }
    },
    {
      "sampler": 0,
      "extensions": {
        "EXT_texture_webp": {
          "source": 0
        }
      }
    },
    {
      "sampler": 0,
      "extensions": {
        "EXT_texture_webp": {
          "source": 1
        }
      }
    },
    {
      "sampler": 0,
      "extensions": {
        "EXT_texture_webp": {
          "source": 2
        }
      }
    },
    {
      "sampler": 0,
      "extensions": {
        "EXT_texture_webp": {
          "source": 4
        }
      }
    },
    {
      "sampler": 0,
      "extensions": {
        "EXT_texture_webp": {
          "source": 5
        }
      }
    }
  ],
  "images": [
    {
      "name": "drone_carrier_emit",
      "mimeType": "image/webp",
      "uri": "drone_carrier_emit.webp"
    },
    {
      "name": "drone_carrier_normal",
      "mimeType": "image/webp",
      "uri": "drone_carrier_normal.webp"
    },
    {
      "name": "AO_bake-drone_carrier_roughness-drone_carrier_metallic",
      "mimeType": "image/webp",
      "uri": "AO_bake-drone_carrier_roughness-drone_carrier_metallic.webp"
    },
    {
      "name": "drone_carrier_diffuse",
      "mimeType": "image/webp",
      "uri": "drone_carrier_diffuse.webp"
    },
    {
      "name": "gradient_purple",
      "mimeType": "image/webp",
      "uri": "../textures/gradient_purple.webp"
    },
    {
      "name": "GLO_bake",
      "mimeType": "image/webp",
      "uri": "GLO_bake.webp"
    }
  ],
  "buffers": [
    {
      "uri": "drone_carrier.bin",
      "byteLength": 302736
    }
  ],
  "materials": [
    {
      "name": "base",
      "pbrMetallicRoughness": {
        "baseColorTexture": {
          "index": 0
        },
        "metallicRoughnessTexture": {
          "index": 3
        }
      },
      "emissiveFactor": [
        1,
        1,
        1
      ],
      "emissiveTexture": {
        "index": 1
      },
      "normalTexture": {
        "index": 2
      },
      "occlusionTexture": {
        "index": 3
      }
    },
    {
      "name": "engine glow.001",
      "alphaMode": "BLEND",
      "pbrMetallicRoughness": {
        "baseColorFactor": [
          0.45641109347343445,
          0.20155631005764008,
          1,
          1
        ],
        "roughnessFactor": 0.75,
        "metallicFactor": 0,
        "baseColorTexture": {
          "index": 4
        }
      },
      "emissiveFactor": [
        1,
        1,
        1
      ],
      "emissiveTexture": {
        "index": 4
      }
    },
    {
      "name": "base_glow.001",
      "pbrMetallicRoughness": {
        "baseColorTexture": {
          "index": 0
        },
        "metallicRoughnessTexture": {
          "index": 3
        }
      },
      "emissiveFactor": [
        1,
        1,
        1
      ],
      "emissiveTexture": {
        "index": 5
      },
      "normalTexture": {
        "index": 2
      },
      "occlusionTexture": {
        "index": 3
      }
    }
  ],
  "meshes": [
    {
      "name": "base",
      "primitives": [
        {
          "attributes": {
            "POSITION": 0,
            "NORMAL": 1,
            "TEXCOORD_0": 2
          },
          "mode": 4,
          "material": 0,
          "indices": 3
        }
      ]
    },
    {
      "name": "Sphere.002",
      "primitives": [
        {
          "attributes": {
            "POSITION": 6,
            "NORMAL": 7,
            "TEXCOORD_0": 8
          },
          "mode": 4,
          "material": 1,
          "indices": 4
        }
      ]
    },
    {
      "name": "Cylinder.001",
      "primitives": [
        {
          "attributes": {
            "POSITION": 9,
            "NORMAL": 10,
            "TEXCOORD_0": 11
          },
          "mode": 4,
          "material": 1,
          "indices": 5
        }
      ]
    },
    {
      "name": "Cube.001",
      "primitives": [
        {
          "attributes": {
            "POSITION": 0,
            "NORMAL": 1,
            "TEXCOORD_0": 2
          },
          "mode": 4,
          "material": 2,
          "indices": 3
        }
      ]
    }
  ],
  "nodes": [
    {
      "name": "base",
      "mesh": 0
    },
    {
      "name": "Sphere.002",
      "translation": [
        0,
        0,
        -1.4763243198394775
      ],
      "rotation": [
        0.7071068286895752,
        0,
        0,
        0.7071068286895752
      ],
      "mesh": 1
    },
    {
      "name": "Cylinder.001",
      "translation": [
        0,
        0,
        -0.00521126389503479
      ],
      "rotation": [
        0.7071068286895752,
        0,
        0,
        0.7071068286895752
      ],
      "mesh": 2
    },
    {
      "name": "base_glow",
      "mesh": 3
    },
    {
      "name": "mount_large_left",
      "extras": {
        "NAEV_weapon_mount": "0"
      },
      "translation": [
        1.941269874572754,
        -0.009722575545310974,
        2.1038546562194824
      ],
      "scale": [
        0.5168766975402832,
        0.5168766975402832,
        0.5168766975402832
      ]
    },
    {
      "name": "trail_left",
      "extras": {
        "NAEV_trail_generator": "default"
      },
      "translation": [
        1.2589014768600464,
        -0.0026565194129943848,
        -4.455054759979248
      ],
      "scale": [
        0.5168766975402832,
        0.5168766975402832,
        0.5168766975402832
      ]
    },
    {
      "name": "trail_right",
      "extras": {
        "NAEV_trail_generator": "default"
      },
      "translation": [
        -1.2589000463485718,
        -0.0026565194129943848,
        -4.455054759979248
      ],
      "scale": [
        0.5168766975402832,
        0.5168766975402832,
        0.5168766975402832
      ]
    },
    {
      "name": "trail_nebula_left",
      "extras": {
        "NAEV_trail_generator": "nebula"
      },
      "translation": [
        3.9477274417877197,
        -0.0026565194129943848,
        -1.8640042543411255
      ],
      "scale": [
        0.5168766975402832,
        0.5168766975402832,
        0.5168766975402832
      ]
    },
    {
      "name": "trail_nebula_right",
      "extras": {
        "NAEV_trail_generator": "nebula"
      },
      "translation": [
        -3.94773006439209,
        -0.0026565194129943848,
        -1.8640042543411255
      ],
      "scale": [
        0.5168766975402832,
        0.5168766975402832,
        0.5168766975402832
      ]
    },
    {
      "name": "mount_large_right",
      "extras": {
        "NAEV_weapon_mount": "1"
      },
      "translation": [
        -1.9412699937820435,
        -0.009722575545310974,
        2.1038546562194824
      ],
      "scale": [
        0.5168766975402832,
        0.5168766975402832,
        0.5168766975402832
      ]
    },
    {
      "name": "mount_large_forward_left",
      "extras": {
        "NAEV_weapon_mount": "2"
      },
      "translation": [
        1.3054344654083252,
        -0.009722575545310974,
        3.9568605422973633
      ],
      "scale": [
        0.5168766975402832,
        0.5168766975402832,
        0.5168766975402832
      ]
    },
    {
      "name": "mount_large_forward_right",
      "extras": {
        "NAEV_weapon_mount": "3"
      },
      "translation": [
        -1.3054300546646118,
        -0.009722575545310974,
        3.9568605422973633
      ],
      "scale": [
        0.5168766975402832,
        0.5168766975402832,
        0.5168766975402832
      ]
    },
    {
      "name": "mount_medium_top",
      "extras": {
        "NAEV_weapon_mount": "4"
      },
      "translation": [
        0,
        -0.6450672149658203,
        3.0225043296813965
      ],
      "scale": [
        0.5168766975402832,
        0.5168766975402832,
        0.5168766975402832
      ]
    },
    {
      "name": "mount_medium_bottom",
      "extras": {
        "NAEV_weapon_mount": "5"
      },
      "translation": [
        0,
        0.6370178461074829,
        3.0225043296813965
      ],
      "scale": [
        0.5168766975402832,
        0.5168766975402832,
        0.5168766975402832
      ]
    }
  ],
  "scenes": [
    {
      "name": "base",
      "nodes": [
        0
      ]
    },
    {
      "name": "engine",
      "nodes": [
        1,
        2,
        3
      ]
    },
    {
      "name": "meta",
      "nodes": [
        4,
        5,
        6,
        7,
        8,
        9,
        10,
        11,
        12,
        13
      ]
    }
  ],
  "scene": 0,
  "extensionsUsed": [
    "EXT_texture_webp"
  ],
  "extensionsRequired": [
    "EXT_texture_webp"
  ]
}
