{
  "asset": {
    "generator": "glTF-Transform v4.0.1",
    "version": "2.0"
  },
  "accessors": [
    {
      "type": "VEC3",
      "componentType": 5126,
      "count": 6482,
      "max": [
        9.316581726074219,
        12.67192268371582,
        10.42440128326416
      ],
      "min": [
        -9.788396835327148,
        -12.563952445983887,
        -11.099976539611816
      ],
      "bufferView": 0,
      "byteOffset": 0
    },
    {
      "type": "VEC3",
      "componentType": 5126,
      "count": 6482,
      "bufferView": 0,
      "byteOffset": 12
    },
    {
      "type": "VEC2",
      "componentType": 5126,
      "count": 6482,
      "bufferView": 0,
      "byteOffset": 24
    },
    {
      "type": "SCALAR",
      "componentType": 5123,
      "count": 9216,
      "bufferView": 1,
      "byteOffset": 0
    },
    {
      "type": "SCALAR",
      "componentType": 5123,
      "count": 384,
      "bufferView": 1,
      "byteOffset": 18432
    },
    {
      "type": "SCALAR",
      "componentType": 5123,
      "count": 336,
      "bufferView": 1,
      "byteOffset": 19200
    },
    {
      "type": "VEC3",
      "componentType": 5126,
      "count": 256,
      "max": [
        1.25,
        0.25,
        1.25
      ],
      "min": [
        -1.25,
        -0.25,
        -1.25
      ],
      "bufferView": 2,
      "byteOffset": 0
    },
    {
      "type": "VEC3",
      "componentType": 5126,
      "count": 256,
      "bufferView": 2,
      "byteOffset": 12
    },
    {
      "type": "VEC2",
      "componentType": 5126,
      "count": 256,
      "bufferView": 2,
      "byteOffset": 24
    },
    {
      "type": "VEC3",
      "componentType": 5126,
      "count": 240,
      "max": [
        0.9999999403953552,
        1,
        0.9999998807907104
      ],
      "min": [
        -0.9999998807907104,
        -1,
        -0.9999998807907104
      ],
      "bufferView": 3,
      "byteOffset": 0
    },
    {
      "type": "VEC3",
      "componentType": 5126,
      "count": 240,
      "bufferView": 3,
      "byteOffset": 12
    },
    {
      "type": "VEC2",
      "componentType": 5126,
      "count": 240,
      "bufferView": 3,
      "byteOffset": 24
    }
  ],
  "bufferViews": [
    {
      "buffer": 0,
      "byteOffset": 0,
      "byteLength": 207424,
      "byteStride": 32,
      "target": 34962
    },
    {
      "buffer": 0,
      "byteOffset": 207424,
      "byteLength": 19872,
      "target": 34963
    },
    {
      "buffer": 0,
      "byteOffset": 227296,
      "byteLength": 8192,
      "byteStride": 32,
      "target": 34962
    },
    {
      "buffer": 0,
      "byteOffset": 235488,
      "byteLength": 7680,
      "byteStride": 32,
      "target": 34962
    }
  ],
  "samplers": [
    {
      "magFilter": 9729,
      "minFilter": 9987,
      "wrapS": 10497,
      "wrapT": 10497
    },
    {
      "magFilter": 9729,
      "minFilter": 9987,
      "wrapS": 33648,
      "wrapT": 33648
    }
  ],
  "textures": [
    {
      "sampler": 0,
      "extensions": {
        "EXT_texture_webp": {
          "source": 2
        }
      }
    },
    {
      "sampler": 0,
      "extensions": {
        "EXT_texture_webp": {
          "source": 0
        }
      }
    },
    {
      "sampler": 0,
      "extensions": {
        "EXT_texture_webp": {
          "source": 1
        }
      }
    },
    {
      "sampler": 0,
      "extensions": {
        "EXT_texture_webp": {
          "source": 3
        }
      }
    },
    {
      "sampler": 1,
      "extensions": {
        "EXT_texture_webp": {
          "source": 4
        }
      }
    }
  ],
  "images": [
    {
      "name": "zalek_drone_bomberGLO",
      "mimeType": "image/webp",
      "uri": "zalek_drone_bomberGLO.webp"
    },
    {
      "name": "AO_bake_bomber",
      "mimeType": "image/webp",
      "uri": "AO_bake_bomber.webp"
    },
    {
      "name": "zalek_drone_bomber",
      "mimeType": "image/webp",
      "uri": "zalek_drone_bomber.webp"
    },
    {
      "name": "GLO_bake_bomber",
      "mimeType": "image/webp",
      "uri": "GLO_bake_bomber.webp"
    },
    {
      "name": "zalek_glow",
      "mimeType": "image/webp",
      "uri": "../textures/zalek_glow.webp"
    }
  ],
  "buffers": [
    {
      "uri": "zalek_drone_bomber.bin",
      "byteLength": 243168
    }
  ],
  "materials": [
    {
      "name": "base",
      "pbrMetallicRoughness": {
        "roughnessFactor": 0.699999988079071,
        "metallicFactor": 0.30000001192092896,
        "baseColorTexture": {
          "index": 0
        }
      },
      "emissiveFactor": [
        1,
        1,
        1
      ],
      "emissiveTexture": {
        "index": 1
      },
      "occlusionTexture": {
        "index": 2
      }
    },
    {
      "name": "base_glow",
      "pbrMetallicRoughness": {
        "roughnessFactor": 0.699999988079071,
        "metallicFactor": 0.30000001192092896,
        "baseColorTexture": {
          "index": 0
        }
      },
      "emissiveFactor": [
        1,
        1,
        1
      ],
      "emissiveTexture": {
        "index": 3
      },
      "occlusionTexture": {
        "index": 2
      }
    },
    {
      "name": "engine_glow_zalek_drone",
      "alphaMode": "BLEND",
      "pbrMetallicRoughness": {
        "metallicFactor": 0,
        "baseColorTexture": {
          "index": 4
        }
      },
      "emissiveFactor": [
        1,
        1,
        1
      ],
      "emissiveTexture": {
        "index": 4
      },
      "extensions": {
        "KHR_materials_emissive_strength": {
          "emissiveStrength": 2
        }
      }
    }
  ],
  "meshes": [
    {
      "name": "base",
      "primitives": [
        {
          "attributes": {
            "POSITION": 0,
            "NORMAL": 1,
            "TEXCOORD_0": 2
          },
          "mode": 4,
          "material": 0,
          "indices": 3
        }
      ]
    },
    {
      "name": "base",
      "primitives": [
        {
          "attributes": {
            "POSITION": 0,
            "NORMAL": 1,
            "TEXCOORD_0": 2
          },
          "mode": 4,
          "material": 1,
          "indices": 3
        }
      ]
    },
    {
      "name": "glow_torus",
      "primitives": [
        {
          "attributes": {
            "POSITION": 6,
            "NORMAL": 7,
            "TEXCOORD_0": 8
          },
          "mode": 4,
          "material": 2,
          "indices": 4
        }
      ]
    },
    {
      "name": "glow_jet",
      "primitives": [
        {
          "attributes": {
            "POSITION": 9,
            "NORMAL": 10,
            "TEXCOORD_0": 11
          },
          "mode": 4,
          "material": 2,
          "indices": 5
        }
      ]
    }
  ],
  "nodes": [
    {
      "name": "bose",
      "rotation": [
        0,
        0,
        0.9118561744689941,
        0.4105098843574524
      ],
      "scale": [
        0.3005445599555969,
        0.3005445599555969,
        0.3005445599555969
      ],
      "mesh": 0
    },
    {
      "name": "base_glow",
      "rotation": [
        0,
        0,
        0.9118561744689941,
        0.4105098843574524
      ],
      "scale": [
        0.3005445599555969,
        0.3005445599555969,
        0.3005445599555969
      ],
      "mesh": 1
    },
    {
      "name": "glow_torus",
      "translation": [
        0,
        0,
        -3.276623010635376
      ],
      "rotation": [
        0.7071068286895752,
        0,
        0,
        0.7071068286895752
      ],
      "scale": [
        0.8631265759468079,
        0.8631265759468079,
        0.8631265759468079
      ],
      "mesh": 2
    },
    {
      "name": "glow_jet",
      "translation": [
        0,
        0,
        -4.355030536651611
      ],
      "rotation": [
        0.7071068286895752,
        0,
        0,
        0.7071068286895752
      ],
      "scale": [
        0.47113654017448425,
        1.4185383319854736,
        0.47113654017448425
      ],
      "mesh": 3
    },
    {
      "name": "mount0",
      "extras": {
        "NAEV_weapon_mount": "0"
      },
      "translation": [
        2.7781238555908203,
        0.7789260149002075,
        2.8715076446533203
      ]
    },
    {
      "name": "trail_center",
      "extras": {
        "NAEV_trail_generator": "zalekS"
      },
      "translation": [
        0,
        0,
        -3.120497941970825
      ]
    },
    {
      "name": "trail_nebula_left",
      "extras": {
        "NAEV_trail_generator": "nebulaS"
      },
      "translation": [
        4.322718143463135,
        0.7249279618263245,
        0.9314630031585693
      ]
    },
    {
      "name": "trail_nebula_right",
      "extras": {
        "NAEV_trail_generator": "nebulaS"
      },
      "translation": [
        -4.266693592071533,
        -0.9111506342887878,
        0.9314632415771484
      ]
    },
    {
      "name": "mount1",
      "extras": {
        "NAEV_weapon_mount": "1"
      },
      "translation": [
        -2.5845789909362793,
        -0.7662591934204102,
        2.871507406234741
      ]
    }
  ],
  "scenes": [
    {
      "name": "base",
      "nodes": [
        0
      ]
    },
    {
      "name": "engine",
      "nodes": [
        1,
        2,
        3
      ]
    },
    {
      "name": "meta",
      "nodes": [
        4,
        5,
        6,
        7,
        8
      ]
    }
  ],
  "scene": 0,
  "extensionsUsed": [
    "EXT_texture_webp",
    "KHR_materials_emissive_strength"
  ],
  "extensionsRequired": [
    "EXT_texture_webp"
  ]
}
