{
  "asset": {
    "generator": "glTF-Transform v4.0.1",
    "version": "2.0"
  },
  "accessors": [
    {
      "type": "VEC3",
      "componentType": 5126,
      "count": 1964,
      "max": [
        6.344998836517334,
        7.621895790100098,
        7.647946834564209
      ],
      "min": [
        -6.344997882843018,
        -7.665706157684326,
        -7.6489739418029785
      ],
      "bufferView": 0,
      "byteOffset": 0
    },
    {
      "type": "VEC3",
      "componentType": 5126,
      "count": 1964,
      "bufferView": 0,
      "byteOffset": 12
    },
    {
      "type": "VEC2",
      "componentType": 5126,
      "count": 1964,
      "bufferView": 0,
      "byteOffset": 24
    },
    {
      "type": "SCALAR",
      "componentType": 5123,
      "count": 6066,
      "bufferView": 1,
      "byteOffset": 0
    },
    {
      "type": "SCALAR",
      "componentType": 5123,
      "count": 1260,
      "bufferView": 1,
      "byteOffset": 12132
    },
    {
      "type": "VEC3",
      "componentType": 5126,
      "count": 382,
      "max": [
        5.161675930023193,
        -4.868850231170654,
        -1.1936520338058472
      ],
      "min": [
        -5.161675930023193,
        -7.657608985900879,
        -3.8945279121398926
      ],
      "bufferView": 2,
      "byteOffset": 0
    },
    {
      "type": "VEC3",
      "componentType": 5126,
      "count": 382,
      "bufferView": 2,
      "byteOffset": 12
    },
    {
      "type": "VEC2",
      "componentType": 5126,
      "count": 382,
      "bufferView": 2,
      "byteOffset": 24
    }
  ],
  "bufferViews": [
    {
      "buffer": 0,
      "byteOffset": 0,
      "byteLength": 62848,
      "byteStride": 32,
      "target": 34962
    },
    {
      "buffer": 0,
      "byteOffset": 62848,
      "byteLength": 14652,
      "target": 34963
    },
    {
      "buffer": 0,
      "byteOffset": 77500,
      "byteLength": 12224,
      "byteStride": 32,
      "target": 34962
    }
  ],
  "samplers": [
    {
      "magFilter": 9729,
      "minFilter": 9987,
      "wrapS": 10497,
      "wrapT": 10497
    }
  ],
  "textures": [
    {
      "sampler": 0,
      "extensions": {
        "EXT_texture_webp": {
          "source": 2
        }
      }
    },
    {
      "sampler": 0,
      "extensions": {
        "EXT_texture_webp": {
          "source": 0
        }
      }
    },
    {
      "sampler": 0,
      "extensions": {
        "EXT_texture_webp": {
          "source": 1
        }
      }
    },
    {
      "sampler": 0,
      "extensions": {
        "EXT_texture_webp": {
          "source": 4
        }
      }
    },
    {
      "sampler": 0,
      "extensions": {
        "EXT_texture_webp": {
          "source": 3
        }
      }
    },
    {
      "sampler": 0,
      "extensions": {
        "EXT_texture_webp": {
          "source": 5
        }
      }
    }
  ],
  "images": [
    {
      "name": "tristanGLO",
      "mimeType": "image/webp",
      "uri": "tristanGLO.webp"
    },
    {
      "name": "AO_bake",
      "mimeType": "image/webp",
      "uri": "AO_bake.webp"
    },
    {
      "name": "tristan",
      "mimeType": "image/webp",
      "uri": "tristan.webp"
    },
    {
      "name": "gradient_cyan2",
      "mimeType": "image/webp",
      "uri": "../textures/gradient_cyan2.webp"
    },
    {
      "name": "gradient_cyan",
      "mimeType": "image/webp",
      "uri": "../textures/gradient_cyan.webp"
    },
    {
      "name": "GLO_bake",
      "mimeType": "image/webp",
      "uri": "GLO_bake.webp"
    }
  ],
  "buffers": [
    {
      "uri": "tristan.bin",
      "byteLength": 89724
    }
  ],
  "materials": [
    {
      "name": "base",
      "pbrMetallicRoughness": {
        "roughnessFactor": 0.20000000298023224,
        "metallicFactor": 0.699999988079071,
        "baseColorTexture": {
          "index": 0
        }
      },
      "emissiveFactor": [
        1,
        1,
        1
      ],
      "emissiveTexture": {
        "index": 1
      },
      "occlusionTexture": {
        "index": 2
      }
    },
    {
      "name": "engine_glow_nexus",
      "alphaMode": "BLEND",
      "pbrMetallicRoughness": {
        "baseColorFactor": [
          0,
          0.3277781903743744,
          1,
          1
        ],
        "roughnessFactor": 0.75,
        "metallicFactor": 0,
        "baseColorTexture": {
          "index": 3
        }
      },
      "emissiveFactor": [
        1,
        1,
        1
      ],
      "emissiveTexture": {
        "index": 4
      }
    },
    {
      "name": "base_glow",
      "pbrMetallicRoughness": {
        "roughnessFactor": 0.20000000298023224,
        "metallicFactor": 0.699999988079071,
        "baseColorTexture": {
          "index": 0
        }
      },
      "emissiveFactor": [
        1,
        1,
        1
      ],
      "emissiveTexture": {
        "index": 5
      },
      "occlusionTexture": {
        "index": 2
      }
    }
  ],
  "meshes": [
    {
      "name": "base",
      "primitives": [
        {
          "attributes": {
            "POSITION": 0,
            "NORMAL": 1,
            "TEXCOORD_0": 2
          },
          "mode": 4,
          "material": 0,
          "indices": 3
        }
      ]
    },
    {
      "name": "base.003",
      "primitives": [
        {
          "attributes": {
            "POSITION": 5,
            "NORMAL": 6,
            "TEXCOORD_0": 7
          },
          "mode": 4,
          "material": 1,
          "indices": 4
        }
      ]
    },
    {
      "name": "base",
      "primitives": [
        {
          "attributes": {
            "POSITION": 0,
            "NORMAL": 1,
            "TEXCOORD_0": 2
          },
          "mode": 4,
          "material": 2,
          "indices": 3
        }
      ]
    }
  ],
  "nodes": [
    {
      "name": "Base",
      "rotation": [
        0.7071068286895752,
        0,
        0,
        0.7071068286895752
      ],
      "mesh": 0
    },
    {
      "name": "Glow",
      "rotation": [
        0.7071068286895752,
        0,
        0,
        0.7071068286895752
      ],
      "mesh": 1
    },
    {
      "name": "Base Glow",
      "rotation": [
        0.7071068286895752,
        0,
        0,
        0.7071068286895752
      ],
      "mesh": 2
    },
    {
      "name": "trail_left",
      "extras": {
        "NAEV_trail_generator": "thin"
      },
      "translation": [
        3.3050146102905273,
        2.625180721282959,
        -4.588163375854492
      ]
    },
    {
      "name": "trail_nebula_left",
      "extras": {
        "NAEV_trail_generator": "nebulaS"
      },
      "translation": [
        4.695741653442383,
        7.382360458374023,
        -4.9792375564575195
      ]
    },
    {
      "name": "trail_right",
      "extras": {
        "NAEV_trail_generator": "thin"
      },
      "translation": [
        -3.3050100803375244,
        2.625180721282959,
        -4.588163375854492
      ]
    },
    {
      "name": "trail_nebula_right",
      "extras": {
        "NAEV_trail_generator": "nebulaS"
      },
      "translation": [
        -4.695740222930908,
        7.382360458374023,
        -4.9792375564575195
      ]
    },
    {
      "name": "trail_nebula_bottom",
      "extras": {
        "NAEV_trail_generator": "nebula"
      },
      "translation": [
        0,
        -7.422116279602051,
        -4.979235649108887
      ]
    },
    {
      "name": "mount_med0",
      "extras": {
        "NAEV_weapon_mount": "0"
      },
      "translation": [
        2.028465986251831,
        0.17339465022087097,
        3.4623475074768066
      ]
    },
    {
      "name": "mount_med1",
      "extras": {
        "NAEV_weapon_mount": "1"
      },
      "translation": [
        -2.028470039367676,
        0.17339465022087097,
        3.4623475074768066
      ]
    },
    {
      "name": "mount_sml2",
      "extras": {
        "NAEV_weapon_mount": "2"
      },
      "translation": [
        0,
        -3.7005488872528076,
        6.03573751449585
      ]
    }
  ],
  "scenes": [
    {
      "name": "base",
      "extras": {
        "BBB_props": {}
      },
      "nodes": [
        0
      ]
    },
    {
      "name": "engine",
      "extras": {
        "BBB_props": {}
      },
      "nodes": [
        1,
        2
      ]
    },
    {
      "name": "meta",
      "nodes": [
        3,
        4,
        5,
        6,
        7,
        8,
        9,
        10
      ]
    }
  ],
  "scene": 0,
  "extensionsUsed": [
    "EXT_texture_webp"
  ],
  "extensionsRequired": [
    "EXT_texture_webp"
  ]
}
