{
  "asset": {
    "generator": "glTF-Transform v4.0.1",
    "version": "2.0"
  },
  "accessors": [
    {
      "type": "VEC3",
      "componentType": 5126,
      "count": 7720,
      "max": [
        4.644822120666504,
        6.200000286102295,
        3.5
      ],
      "min": [
        -4.644822120666504,
        -6.286703586578369,
        -3.5
      ],
      "bufferView": 0,
      "byteOffset": 0
    },
    {
      "type": "VEC3",
      "componentType": 5126,
      "count": 7720,
      "bufferView": 0,
      "byteOffset": 12
    },
    {
      "type": "VEC2",
      "componentType": 5126,
      "count": 7720,
      "bufferView": 0,
      "byteOffset": 24
    },
    {
      "type": "SCALAR",
      "componentType": 5123,
      "count": 20208,
      "bufferView": 1,
      "byteOffset": 0
    },
    {
      "type": "SCALAR",
      "componentType": 5123,
      "count": 2016,
      "bufferView": 1,
      "byteOffset": 40416
    },
    {
      "type": "VEC3",
      "componentType": 5126,
      "count": 432,
      "max": [
        2.2361083030700684,
        -5.261432647705078,
        1.2405498027801514
      ],
      "min": [
        -2.2361083030700684,
        -7.6790924072265625,
        -1.2405498027801514
      ],
      "bufferView": 2,
      "byteOffset": 0
    },
    {
      "type": "VEC3",
      "componentType": 5126,
      "count": 432,
      "bufferView": 2,
      "byteOffset": 12
    },
    {
      "type": "VEC2",
      "componentType": 5126,
      "count": 432,
      "bufferView": 2,
      "byteOffset": 24
    }
  ],
  "bufferViews": [
    {
      "buffer": 0,
      "byteOffset": 0,
      "byteLength": 247040,
      "byteStride": 32,
      "target": 34962
    },
    {
      "buffer": 0,
      "byteOffset": 247040,
      "byteLength": 44448,
      "target": 34963
    },
    {
      "buffer": 0,
      "byteOffset": 291488,
      "byteLength": 13824,
      "byteStride": 32,
      "target": 34962
    }
  ],
  "samplers": [
    {
      "magFilter": 9729,
      "minFilter": 9987,
      "wrapS": 10497,
      "wrapT": 10497
    }
  ],
  "textures": [
    {
      "sampler": 0,
      "extensions": {
        "EXT_texture_webp": {
          "source": 3
        }
      }
    },
    {
      "sampler": 0,
      "extensions": {
        "EXT_texture_webp": {
          "source": 0
        }
      }
    },
    {
      "sampler": 0,
      "extensions": {
        "EXT_texture_webp": {
          "source": 1
        }
      }
    },
    {
      "sampler": 0,
      "extensions": {
        "EXT_texture_webp": {
          "source": 2
        }
      }
    },
    {
      "sampler": 0,
      "extensions": {
        "EXT_texture_webp": {
          "source": 4
        }
      }
    },
    {
      "sampler": 0,
      "extensions": {
        "EXT_texture_webp": {
          "source": 5
        }
      }
    }
  ],
  "images": [
    {
      "name": "certitude_emission",
      "mimeType": "image/webp",
      "uri": "certitude_emission.webp"
    },
    {
      "name": "certitude_normal",
      "mimeType": "image/webp",
      "uri": "certitude_normal.webp"
    },
    {
      "name": "AO_bake",
      "mimeType": "image/webp",
      "uri": "AO_bake.webp"
    },
    {
      "name": "certitude_diffuse",
      "mimeType": "image/webp",
      "uri": "certitude_diffuse.webp"
    },
    {
      "name": "gradient_pale",
      "mimeType": "image/webp",
      "uri": "../textures/gradient_pale.webp"
    },
    {
      "name": "GLO_bake",
      "mimeType": "image/webp",
      "uri": "GLO_bake.webp"
    }
  ],
  "buffers": [
    {
      "uri": "certitude.bin",
      "byteLength": 305312
    }
  ],
  "materials": [
    {
      "name": "base",
      "pbrMetallicRoughness": {
        "roughnessFactor": 0.699999988079071,
        "metallicFactor": 0.699999988079071,
        "baseColorTexture": {
          "index": 0
        }
      },
      "emissiveFactor": [
        1,
        1,
        1
      ],
      "emissiveTexture": {
        "index": 1
      },
      "normalTexture": {
        "index": 2
      },
      "occlusionTexture": {
        "index": 3
      }
    },
    {
      "name": "engine_glow_thurion_solid",
      "alphaMode": "BLEND",
      "pbrMetallicRoughness": {
        "roughnessFactor": 0.75,
        "metallicFactor": 0,
        "baseColorTexture": {
          "index": 4
        }
      },
      "emissiveFactor": [
        1,
        1,
        1
      ],
      "emissiveTexture": {
        "index": 4
      }
    },
    {
      "name": "base_glow",
      "pbrMetallicRoughness": {
        "roughnessFactor": 0.699999988079071,
        "metallicFactor": 0.699999988079071,
        "baseColorTexture": {
          "index": 0
        }
      },
      "emissiveFactor": [
        1,
        1,
        1
      ],
      "emissiveTexture": {
        "index": 5
      },
      "normalTexture": {
        "index": 2
      },
      "occlusionTexture": {
        "index": 3
      }
    }
  ],
  "meshes": [
    {
      "name": "base",
      "primitives": [
        {
          "attributes": {
            "POSITION": 0,
            "NORMAL": 1,
            "TEXCOORD_0": 2
          },
          "mode": 4,
          "material": 0,
          "indices": 3
        }
      ]
    },
    {
      "name": "Cylinder11_copy13.001",
      "primitives": [
        {
          "attributes": {
            "POSITION": 5,
            "NORMAL": 6,
            "TEXCOORD_0": 7
          },
          "mode": 4,
          "material": 1,
          "indices": 4
        }
      ]
    },
    {
      "name": "base",
      "primitives": [
        {
          "attributes": {
            "POSITION": 0,
            "NORMAL": 1,
            "TEXCOORD_0": 2
          },
          "mode": 4,
          "material": 2,
          "indices": 3
        }
      ]
    }
  ],
  "nodes": [
    {
      "name": "base",
      "translation": [
        0,
        0,
        0.5
      ],
      "rotation": [
        0.7071068286895752,
        0,
        0,
        0.7071068286895752
      ],
      "scale": [
        0.6000000238418579,
        0.6000000238418579,
        0.6000000238418579
      ],
      "mesh": 0
    },
    {
      "name": "glow",
      "translation": [
        0,
        0,
        0.5
      ],
      "rotation": [
        0.7071068286895752,
        0,
        0,
        0.7071068286895752
      ],
      "scale": [
        0.6000000238418579,
        0.6000000238418579,
        0.6000000238418579
      ],
      "mesh": 1
    },
    {
      "name": "base_glow",
      "translation": [
        0,
        0,
        0.5
      ],
      "rotation": [
        0.7071068286895752,
        0,
        0,
        0.7071068286895752
      ],
      "scale": [
        0.6000000238418579,
        0.6000000238418579,
        0.6000000238418579
      ],
      "mesh": 2
    },
    {
      "name": "mount_large_forward_left",
      "extras": {
        "NAEV_weapon_mount": "0"
      },
      "translation": [
        0.2354564219713211,
        0.01124938577413559,
        3.541335105895996
      ],
      "scale": [
        0.3229895830154419,
        0.3229900002479553,
        0.3229895830154419
      ]
    },
    {
      "name": "trail_bottom_left",
      "extras": {
        "NAEV_trail_generator": "thurion"
      },
      "translation": [
        1.1064997911453247,
        -0.572395920753479,
        -3.2183473110198975
      ],
      "scale": [
        0.3229895830154419,
        0.3229895830154419,
        0.3229895830154419
      ]
    },
    {
      "name": "trail_top_left",
      "extras": {
        "NAEV_trail_generator": "nebula"
      },
      "translation": [
        1.1064997911453247,
        0.5791580677032471,
        -3.2183473110198975
      ],
      "scale": [
        0.3229895830154419,
        0.3229895830154419,
        0.3229895830154419
      ]
    },
    {
      "name": "trail_bottom_right",
      "extras": {
        "NAEV_trail_generator": "thurion"
      },
      "translation": [
        -1.1065000295639038,
        -0.572395920753479,
        -3.2183473110198975
      ],
      "scale": [
        0.3229895830154419,
        0.3229895830154419,
        0.3229895830154419
      ]
    },
    {
      "name": "trail_top_right",
      "extras": {
        "NAEV_trail_generator": "thurion"
      },
      "translation": [
        -1.1065000295639038,
        0.5791580677032471,
        -3.2183473110198975
      ],
      "scale": [
        0.3229895830154419,
        0.3229895830154419,
        0.3229895830154419
      ]
    },
    {
      "name": "trail_nebula_left",
      "extras": {
        "NAEV_trail_generator": "thurion"
      },
      "translation": [
        2.429764747619629,
        0.0016459384933114052,
        -2.9352827072143555
      ],
      "scale": [
        0.3229895830154419,
        0.3229895830154419,
        0.3229895830154419
      ]
    },
    {
      "name": "trail_nebula_right",
      "extras": {
        "NAEV_trail_generator": "thurion"
      },
      "translation": [
        -2.429759979248047,
        0.0016459384933114052,
        -2.9352827072143555
      ],
      "scale": [
        0.3229895830154419,
        0.3229895830154419,
        0.3229895830154419
      ]
    },
    {
      "name": "mount_large_forward_right",
      "extras": {
        "NAEV_weapon_mount": "1"
      },
      "translation": [
        -0.23545600473880768,
        0.01124938577413559,
        3.541335105895996
      ],
      "scale": [
        0.3229895830154419,
        0.3229895830154419,
        0.3229895830154419
      ]
    },
    {
      "name": "mount_large_left",
      "extras": {
        "NAEV_weapon_mount": "2"
      },
      "translation": [
        2.277426242828369,
        0.01124938577413559,
        -0.2858297824859619
      ],
      "scale": [
        0.3229895830154419,
        0.3229900002479553,
        0.3229895830154419
      ]
    },
    {
      "name": "mount_large_right",
      "extras": {
        "NAEV_weapon_mount": "3"
      },
      "translation": [
        -2.2774300575256348,
        0.01124938577413559,
        -0.2858297824859619
      ],
      "scale": [
        0.3229895830154419,
        0.3229900002479553,
        0.3229895830154419
      ]
    },
    {
      "name": "mount_fb_left",
      "extras": {
        "NAEV_weapon_mount": "4"
      },
      "translation": [
        0.9935530424118042,
        0.01124938577413559,
        -0.481467604637146
      ],
      "scale": [
        0.3229895830154419,
        0.3229900002479553,
        0.3229895830154419
      ]
    },
    {
      "name": "mount_fb_right",
      "extras": {
        "NAEV_weapon_mount": "5"
      },
      "translation": [
        0.9935530424118042,
        0.01124938577413559,
        -0.481467604637146
      ],
      "scale": [
        0.3229895830154419,
        0.3229900002479553,
        0.3229895830154419
      ]
    }
  ],
  "scenes": [
    {
      "name": "base",
      "nodes": [
        0
      ]
    },
    {
      "name": "engine",
      "nodes": [
        1,
        2
      ]
    },
    {
      "name": "meta",
      "nodes": [
        3,
        4,
        5,
        6,
        7,
        8,
        9,
        10,
        11,
        12,
        13,
        14
      ]
    }
  ],
  "scene": 0,
  "extensionsUsed": [
    "EXT_texture_webp"
  ],
  "extensionsRequired": [
    "EXT_texture_webp"
  ]
}
