{
  "asset": {
    "generator": "glTF-Transform v4.0.10",
    "version": "2.0"
  },
  "accessors": [
    {
      "type": "VEC3",
      "componentType": 5126,
      "count": 1498,
      "max": [
        3.3999693393707275,
        3.1996989250183105,
        0.9530109763145447
      ],
      "min": [
        -3.3999693393707275,
        -2.122696876525879,
        -0.8135896325111389
      ],
      "bufferView": 0,
      "byteOffset": 0
    },
    {
      "type": "VEC3",
      "componentType": 5126,
      "count": 1498,
      "bufferView": 0,
      "byteOffset": 12
    },
    {
      "type": "VEC2",
      "componentType": 5126,
      "count": 1498,
      "bufferView": 0,
      "byteOffset": 24
    },
    {
      "type": "VEC2",
      "componentType": 5126,
      "count": 1498,
      "bufferView": 0,
      "byteOffset": 32
    },
    {
      "type": "SCALAR",
      "componentType": 5123,
      "count": 3954,
      "bufferView": 1,
      "byteOffset": 0
    },
    {
      "type": "SCALAR",
      "componentType": 5123,
      "count": 360,
      "bufferView": 1,
      "byteOffset": 7908
    },
    {
      "type": "VEC3",
      "componentType": 5126,
      "count": 264,
      "max": [
        1.7514078617095947,
        -2.6291449069976807,
        0.35430437326431274
      ],
      "min": [
        -1.5240600109100342,
        -4.511364459991455,
        -0.5488330125808716
      ],
      "bufferView": 2,
      "byteOffset": 0
    },
    {
      "type": "VEC3",
      "componentType": 5126,
      "count": 264,
      "bufferView": 2,
      "byteOffset": 12
    },
    {
      "type": "VEC2",
      "componentType": 5126,
      "count": 264,
      "bufferView": 2,
      "byteOffset": 24
    }
  ],
  "bufferViews": [
    {
      "buffer": 0,
      "byteOffset": 0,
      "byteLength": 59920,
      "byteStride": 40,
      "target": 34962
    },
    {
      "buffer": 0,
      "byteOffset": 59920,
      "byteLength": 8628,
      "target": 34963
    },
    {
      "buffer": 0,
      "byteOffset": 68548,
      "byteLength": 8448,
      "byteStride": 32,
      "target": 34962
    }
  ],
  "samplers": [
    {
      "magFilter": 9729,
      "minFilter": 9987,
      "wrapS": 10497,
      "wrapT": 10497
    }
  ],
  "textures": [
    {
      "sampler": 0,
      "extensions": {
        "EXT_texture_webp": {
          "source": 2
        }
      }
    },
    {
      "sampler": 0,
      "extensions": {
        "EXT_texture_webp": {
          "source": 0
        }
      }
    },
    {
      "sampler": 0,
      "extensions": {
        "EXT_texture_webp": {
          "source": 1
        }
      }
    },
    {
      "sampler": 0,
      "extensions": {
        "EXT_texture_webp": {
          "source": 3
        }
      }
    }
  ],
  "images": [
    {
      "name": "llama_voyagerGLO",
      "mimeType": "image/webp",
      "uri": "llama_voyagerGLO.webp"
    },
    {
      "name": "AO_bake_body",
      "mimeType": "image/webp",
      "uri": "AO_bake_body.webp"
    },
    {
      "name": "llama_voyager",
      "mimeType": "image/webp",
      "uri": "llama_voyager.webp"
    },
    {
      "name": "gradient_blue_orange",
      "mimeType": "image/webp",
      "uri": "../textures/gradient_blue_orange.webp"
    }
  ],
  "buffers": [
    {
      "uri": "llama_voyager.bin",
      "byteLength": 76996
    }
  ],
  "materials": [
    {
      "name": "base",
      "pbrMetallicRoughness": {
        "roughnessFactor": 0.4000000059604645,
        "metallicFactor": 0.6000000238418579,
        "baseColorTexture": {
          "index": 0,
          "texCoord": 1
        }
      },
      "emissiveFactor": [
        1,
        1,
        1
      ],
      "emissiveTexture": {
        "index": 1,
        "texCoord": 1
      },
      "occlusionTexture": {
        "index": 2
      }
    },
    {
      "name": "engine_glow_melendez",
      "alphaMode": "BLEND",
      "pbrMetallicRoughness": {
        "roughnessFactor": 0.75,
        "metallicFactor": 0,
        "baseColorTexture": {
          "index": 3
        }
      },
      "emissiveFactor": [
        1,
        1,
        1
      ],
      "emissiveTexture": {
        "index": 3
      }
    }
  ],
  "meshes": [
    {
      "name": "base",
      "primitives": [
        {
          "attributes": {
            "POSITION": 0,
            "NORMAL": 1,
            "TEXCOORD_0": 2,
            "TEXCOORD_1": 3
          },
          "mode": 4,
          "material": 0,
          "indices": 4
        }
      ]
    },
    {
      "name": "glow.001",
      "primitives": [
        {
          "attributes": {
            "POSITION": 6,
            "NORMAL": 7,
            "TEXCOORD_0": 8
          },
          "mode": 4,
          "material": 1,
          "indices": 5
        }
      ]
    }
  ],
  "nodes": [
    {
      "name": "base",
      "translation": [
        0.00035629738704301417,
        0.12527871131896973,
        0.2235007882118225
      ],
      "rotation": [
        0.7071068286895752,
        0,
        0,
        0.7071068286895752
      ],
      "scale": [
        1.0965317487716675,
        1.0965317487716675,
        1.0965317487716675
      ],
      "mesh": 0
    },
    {
      "name": "glow",
      "translation": [
        0,
        0,
        1.0727512836456299
      ],
      "rotation": [
        0.7071068286895752,
        0,
        0,
        0.7071068286895752
      ],
      "scale": [
        1.0965317487716675,
        1.0965317487716675,
        1.0965317487716675
      ],
      "mesh": 1
    },
    {
      "name": "base",
      "translation": [
        0.00035629738704301417,
        0.12527871131896973,
        0.2235007882118225
      ],
      "rotation": [
        0.7071068286895752,
        0,
        0,
        0.7071068286895752
      ],
      "scale": [
        1.0965317487716675,
        1.0965317487716675,
        1.0965317487716675
      ],
      "mesh": 0
    },
    {
      "name": "mount_small_left",
      "extras": {
        "NAEV_weapon_mount": "0"
      }
    },
    {
      "name": "trail_left",
      "extras": {
        "NAEV_trail_generator": "melendezS"
      }
    },
    {
      "name": "trail_right",
      "extras": {
        "NAEV_trail_generator": "melendezS"
      }
    },
    {
      "name": "trail_center",
      "extras": {
        "NAEV_trail_generator": "melendezS"
      }
    },
    {
      "name": "trail_nebula_left",
      "extras": {
        "NAEV_trail_generator": "nebulaS"
      }
    },
    {
      "name": "trail_nebula_right",
      "extras": {
        "NAEV_trail_generator": "nebulaS"
      }
    },
    {
      "name": "mount_small_right",
      "extras": {
        "NAEV_weapon_mount": "1"
      }
    }
  ],
  "scenes": [
    {
      "name": "base",
      "extras": {
        "BBB_props": {}
      },
      "nodes": [
        0
      ]
    },
    {
      "name": "engine",
      "extras": {
        "BBB_props": {}
      },
      "nodes": [
        1,
        2
      ]
    },
    {
      "name": "meta",
      "nodes": [
        3,
        4,
        5,
        6,
        7,
        8,
        9
      ]
    }
  ],
  "scene": 1,
  "extensionsUsed": [
    "EXT_texture_webp"
  ],
  "extensionsRequired": [
    "EXT_texture_webp"
  ]
}
