{
  "asset": {
    "generator": "glTF-Transform v4.0.1",
    "version": "2.0"
  },
  "accessors": [
    {
      "type": "VEC3",
      "componentType": 5126,
      "count": 808,
      "max": [
        90.02510070800781,
        107.92500305175781,
        29.136899948120117
      ],
      "min": [
        -89.97489929199219,
        -92.61599731445312,
        -58.7505989074707
      ],
      "bufferView": 0,
      "byteOffset": 0
    },
    {
      "type": "VEC3",
      "componentType": 5126,
      "count": 808,
      "bufferView": 0,
      "byteOffset": 12
    },
    {
      "type": "VEC2",
      "componentType": 5126,
      "count": 808,
      "bufferView": 0,
      "byteOffset": 24
    },
    {
      "type": "VEC2",
      "componentType": 5126,
      "count": 808,
      "bufferView": 0,
      "byteOffset": 32
    },
    {
      "type": "SCALAR",
      "componentType": 5123,
      "count": 1140,
      "bufferView": 1,
      "byteOffset": 0
    },
    {
      "type": "SCALAR",
      "componentType": 5123,
      "count": 120,
      "bufferView": 1,
      "byteOffset": 2280
    },
    {
      "type": "VEC3",
      "componentType": 5126,
      "count": 56,
      "max": [
        49.04759979248047,
        -88.6697998046875,
        32.96664810180664
      ],
      "min": [
        -49.04759979248047,
        -125.46900939941406,
        24.997150421142578
      ],
      "bufferView": 2,
      "byteOffset": 0
    },
    {
      "type": "VEC3",
      "componentType": 5126,
      "count": 56,
      "bufferView": 2,
      "byteOffset": 12
    },
    {
      "type": "VEC2",
      "componentType": 5126,
      "count": 56,
      "bufferView": 2,
      "byteOffset": 24
    }
  ],
  "bufferViews": [
    {
      "buffer": 0,
      "byteOffset": 0,
      "byteLength": 32320,
      "byteStride": 40,
      "target": 34962
    },
    {
      "buffer": 0,
      "byteOffset": 32320,
      "byteLength": 2520,
      "target": 34963
    },
    {
      "buffer": 0,
      "byteOffset": 34840,
      "byteLength": 1792,
      "byteStride": 32,
      "target": 34962
    }
  ],
  "samplers": [
    {
      "magFilter": 9729,
      "minFilter": 9987,
      "wrapS": 10497,
      "wrapT": 10497
    }
  ],
  "textures": [
    {
      "sampler": 0,
      "extensions": {
        "EXT_texture_webp": {
          "source": 2
        }
      }
    },
    {
      "sampler": 0,
      "extensions": {
        "EXT_texture_webp": {
          "source": 0
        }
      }
    },
    {
      "sampler": 0,
      "extensions": {
        "EXT_texture_webp": {
          "source": 1
        }
      }
    },
    {
      "sampler": 0,
      "extensions": {
        "EXT_texture_webp": {
          "source": 3
        }
      }
    },
    {
      "sampler": 0,
      "extensions": {
        "EXT_texture_webp": {
          "source": 4
        }
      }
    }
  ],
  "images": [
    {
      "name": "hyenaGLO",
      "mimeType": "image/webp",
      "uri": "hyenaGLO.webp"
    },
    {
      "name": "AO_bake",
      "mimeType": "image/webp",
      "uri": "AO_bake.webp"
    },
    {
      "name": "hyena_pirate",
      "mimeType": "image/webp",
      "uri": "hyena_pirate.webp"
    },
    {
      "name": "GLO_bake",
      "mimeType": "image/webp",
      "uri": "GLO_bake.webp"
    },
    {
      "name": "gradient_orange",
      "mimeType": "image/webp",
      "uri": "../textures/gradient_orange.webp"
    }
  ],
  "buffers": [
    {
      "uri": "hyena.bin",
      "byteLength": 36632
    }
  ],
  "materials": [
    {
      "name": "base",
      "pbrMetallicRoughness": {
        "roughnessFactor": 0.5,
        "metallicFactor": 0.5,
        "baseColorTexture": {
          "index": 0
        }
      },
      "emissiveFactor": [
        1,
        1,
        1
      ],
      "emissiveTexture": {
        "index": 1
      },
      "occlusionTexture": {
        "index": 2,
        "texCoord": 1
      }
    },
    {
      "name": "base_glow",
      "pbrMetallicRoughness": {
        "roughnessFactor": 0.6000000238418579,
        "metallicFactor": 0.699999988079071,
        "baseColorTexture": {
          "index": 0
        }
      },
      "emissiveFactor": [
        1,
        1,
        1
      ],
      "emissiveTexture": {
        "index": 3,
        "texCoord": 1
      },
      "occlusionTexture": {
        "index": 2,
        "texCoord": 1
      }
    },
    {
      "name": "engine_glow_dvaered",
      "alphaMode": "BLEND",
      "pbrMetallicRoughness": {
        "roughnessFactor": 0.75,
        "metallicFactor": 0,
        "baseColorTexture": {
          "index": 4
        }
      },
      "emissiveFactor": [
        1,
        1,
        1
      ],
      "emissiveTexture": {
        "index": 4
      }
    }
  ],
  "meshes": [
    {
      "name": "base",
      "primitives": [
        {
          "attributes": {
            "POSITION": 0,
            "NORMAL": 1,
            "TEXCOORD_0": 2,
            "TEXCOORD_1": 3
          },
          "mode": 4,
          "material": 0,
          "indices": 4
        }
      ]
    },
    {
      "name": "base",
      "primitives": [
        {
          "attributes": {
            "POSITION": 0,
            "NORMAL": 1,
            "TEXCOORD_0": 2,
            "TEXCOORD_1": 3
          },
          "mode": 4,
          "material": 1,
          "indices": 4
        }
      ]
    },
    {
      "name": "hyena.001",
      "primitives": [
        {
          "attributes": {
            "POSITION": 6,
            "NORMAL": 7,
            "TEXCOORD_0": 8
          },
          "mode": 4,
          "material": 2,
          "indices": 5
        }
      ]
    }
  ],
  "nodes": [
    {
      "name": "hyena",
      "rotation": [
        0.7071068286895752,
        0,
        0,
        0.7071068286895752
      ],
      "mesh": 0
    },
    {
      "name": "base_glow",
      "rotation": [
        0.7071068286895752,
        0,
        0,
        0.7071068286895752
      ],
      "mesh": 1
    },
    {
      "name": "glow",
      "translation": [
        -0.025104522705078125,
        14.806838989257812,
        7.637704849243164
      ],
      "rotation": [
        0.7071068286895752,
        0,
        0,
        0.7071068286895752
      ],
      "mesh": 2
    },
    {
      "name": "hyena",
      "rotation": [
        0.7071068286895752,
        0,
        0,
        0.7071068286895752
      ],
      "mesh": 0
    },
    {
      "name": "mount_small_center",
      "extras": {
        "NAEV_weapon_mount": "0"
      },
      "translation": [
        0,
        -24.792142868041992,
        84.9344482421875
      ],
      "scale": [
        12.61178207397461,
        12.61178207397461,
        12.61178207397461
      ]
    },
    {
      "name": "mount_small_left",
      "extras": {
        "NAEV_weapon_mount": "1"
      },
      "translation": [
        40.71189880371094,
        -19.09817123413086,
        11.126388549804688
      ],
      "scale": [
        12.61178207397461,
        12.61178207397461,
        12.61178207397461
      ]
    },
    {
      "name": "mount_small_right",
      "extras": {
        "NAEV_weapon_mount": "2"
      },
      "translation": [
        40.71189880371094,
        -19.09817123413086,
        11.126388549804688
      ],
      "scale": [
        12.61178207397461,
        12.61178207397461,
        12.61178207397461
      ]
    },
    {
      "name": "trail_nebula_left",
      "extras": {
        "NAEV_trail_generator": "nebulaS"
      },
      "translation": [
        89.70698547363281,
        -14.225143432617188,
        -18.765262603759766
      ],
      "scale": [
        12.61178207397461,
        12.61178207397461,
        12.61178207397461
      ]
    },
    {
      "name": "trail_nebula_right",
      "extras": {
        "NAEV_trail_generator": "nebulaS"
      },
      "translation": [
        -89.70700073242188,
        -14.225143432617188,
        -18.765262603759766
      ],
      "scale": [
        12.61178207397461,
        12.61178207397461,
        12.61178207397461
      ]
    },
    {
      "name": "trail_nebula_top",
      "extras": {
        "NAEV_trail_generator": "nebulaS"
      },
      "translation": [
        0,
        58.647911071777344,
        -2.5622875690460205
      ],
      "scale": [
        12.61178207397461,
        12.61178207397461,
        12.61178207397461
      ]
    },
    {
      "name": "trail_left",
      "extras": {
        "NAEV_trail_generator": "pirateS"
      },
      "translation": [
        40.16942596435547,
        -14.225143432617188,
        -77.6978759765625
      ],
      "scale": [
        12.61178207397461,
        12.61178207397461,
        12.61178207397461
      ]
    },
    {
      "name": "trail_right",
      "extras": {
        "NAEV_trail_generator": "pirateS"
      },
      "translation": [
        -40.16939926147461,
        -14.225143432617188,
        -77.6978759765625
      ],
      "scale": [
        12.61178207397461,
        12.61178207397461,
        12.61178207397461
      ]
    }
  ],
  "scenes": [
    {
      "name": "base",
      "nodes": [
        0
      ]
    },
    {
      "name": "engine",
      "nodes": [
        1,
        2
      ]
    },
    {
      "name": "meta",
      "nodes": [
        3,
        4,
        5,
        6,
        7,
        8,
        9,
        10,
        11
      ]
    }
  ],
  "scene": 2,
  "extensionsUsed": [
    "EXT_texture_webp"
  ],
  "extensionsRequired": [
    "EXT_texture_webp"
  ]
}
