{
  "asset": {
    "generator": "glTF-Transform v4.0.1",
    "version": "2.0"
  },
  "accessors": [
    {
      "type": "VEC3",
      "componentType": 5126,
      "count": 1703,
      "max": [
        15.520953178405762,
        17.62078094482422,
        14.68662166595459
      ],
      "min": [
        -15.520953178405762,
        -20.01504135131836,
        -14.68862533569336
      ],
      "bufferView": 0,
      "byteOffset": 0
    },
    {
      "type": "VEC3",
      "componentType": 5126,
      "count": 1703,
      "bufferView": 0,
      "byteOffset": 12
    },
    {
      "type": "VEC2",
      "componentType": 5126,
      "count": 1703,
      "bufferView": 0,
      "byteOffset": 24
    },
    {
      "type": "SCALAR",
      "componentType": 5123,
      "count": 5148,
      "bufferView": 1,
      "byteOffset": 0
    },
    {
      "type": "SCALAR",
      "componentType": 5123,
      "count": 720,
      "bufferView": 1,
      "byteOffset": 10296
    },
    {
      "type": "VEC3",
      "componentType": 5126,
      "count": 528,
      "max": [
        7.71336555480957,
        -11.802801132202148,
        6.8929924964904785
      ],
      "min": [
        -7.71336555480957,
        -21.072904586791992,
        -3.174297571182251
      ],
      "bufferView": 2,
      "byteOffset": 0
    },
    {
      "type": "VEC3",
      "componentType": 5126,
      "count": 528,
      "bufferView": 2,
      "byteOffset": 12
    },
    {
      "type": "VEC2",
      "componentType": 5126,
      "count": 528,
      "bufferView": 2,
      "byteOffset": 24
    }
  ],
  "bufferViews": [
    {
      "buffer": 0,
      "byteOffset": 0,
      "byteLength": 54496,
      "byteStride": 32,
      "target": 34962
    },
    {
      "buffer": 0,
      "byteOffset": 54496,
      "byteLength": 11736,
      "target": 34963
    },
    {
      "buffer": 0,
      "byteOffset": 66232,
      "byteLength": 16896,
      "byteStride": 32,
      "target": 34962
    }
  ],
  "samplers": [
    {
      "magFilter": 9729,
      "minFilter": 9987,
      "wrapS": 10497,
      "wrapT": 10497
    }
  ],
  "textures": [
    {
      "sampler": 0,
      "extensions": {
        "EXT_texture_webp": {
          "source": 2
        }
      }
    },
    {
      "sampler": 0,
      "extensions": {
        "EXT_texture_webp": {
          "source": 0
        }
      }
    },
    {
      "sampler": 0,
      "extensions": {
        "EXT_texture_webp": {
          "source": 1
        }
      }
    },
    {
      "sampler": 0,
      "extensions": {
        "EXT_texture_webp": {
          "source": 3
        }
      }
    },
    {
      "sampler": 0,
      "extensions": {
        "EXT_texture_webp": {
          "source": 5
        }
      }
    },
    {
      "sampler": 0,
      "extensions": {
        "EXT_texture_webp": {
          "source": 4
        }
      }
    }
  ],
  "images": [
    {
      "name": "pacifierGLO",
      "mimeType": "image/webp",
      "uri": "pacifierGLO.webp"
    },
    {
      "name": "AO_bake",
      "mimeType": "image/webp",
      "uri": "AO_bake.webp"
    },
    {
      "name": "pacifier",
      "mimeType": "image/webp",
      "uri": "pacifier.webp"
    },
    {
      "name": "GLO_bake",
      "mimeType": "image/webp",
      "uri": "GLO_bake.webp"
    },
    {
      "name": "gradient_cyan2",
      "mimeType": "image/webp",
      "uri": "../textures/gradient_cyan2.webp"
    },
    {
      "name": "gradient_cyan",
      "mimeType": "image/webp",
      "uri": "../textures/gradient_cyan.webp"
    }
  ],
  "buffers": [
    {
      "uri": "pacifier.bin",
      "byteLength": 83128
    }
  ],
  "materials": [
    {
      "name": "base",
      "pbrMetallicRoughness": {
        "roughnessFactor": 0.20000000298023224,
        "metallicFactor": 0.699999988079071,
        "baseColorTexture": {
          "index": 0
        }
      },
      "emissiveFactor": [
        1,
        1,
        1
      ],
      "emissiveTexture": {
        "index": 1
      },
      "occlusionTexture": {
        "index": 2
      }
    },
    {
      "name": "base_glow",
      "pbrMetallicRoughness": {
        "roughnessFactor": 0.20000000298023224,
        "metallicFactor": 0.699999988079071,
        "baseColorTexture": {
          "index": 0
        }
      },
      "emissiveFactor": [
        1,
        1,
        1
      ],
      "emissiveTexture": {
        "index": 3
      },
      "occlusionTexture": {
        "index": 2
      }
    },
    {
      "name": "engine_glow_nexus",
      "alphaMode": "BLEND",
      "pbrMetallicRoughness": {
        "baseColorFactor": [
          0,
          0.3277781903743744,
          1,
          1
        ],
        "roughnessFactor": 0.75,
        "metallicFactor": 0,
        "baseColorTexture": {
          "index": 4
        }
      },
      "emissiveFactor": [
        1,
        1,
        1
      ],
      "emissiveTexture": {
        "index": 5
      }
    }
  ],
  "meshes": [
    {
      "name": "base",
      "primitives": [
        {
          "attributes": {
            "POSITION": 0,
            "NORMAL": 1,
            "TEXCOORD_0": 2
          },
          "mode": 4,
          "material": 0,
          "indices": 3
        }
      ]
    },
    {
      "name": "base",
      "primitives": [
        {
          "attributes": {
            "POSITION": 0,
            "NORMAL": 1,
            "TEXCOORD_0": 2
          },
          "mode": 4,
          "material": 1,
          "indices": 3
        }
      ]
    },
    {
      "name": "pacifier.001",
      "primitives": [
        {
          "attributes": {
            "POSITION": 5,
            "NORMAL": 6,
            "TEXCOORD_0": 7
          },
          "mode": 4,
          "material": 2,
          "indices": 4
        }
      ]
    }
  ],
  "nodes": [
    {
      "name": "base",
      "translation": [
        0,
        2.676279067993164,
        3.932492256164551
      ],
      "rotation": [
        0.7071068286895752,
        0,
        0,
        0.7071068286895752
      ],
      "mesh": 0
    },
    {
      "name": "base_glow",
      "translation": [
        0,
        2.676279067993164,
        3.932492256164551
      ],
      "rotation": [
        0.7071068286895752,
        0,
        0,
        0.7071068286895752
      ],
      "mesh": 1
    },
    {
      "name": "glow",
      "translation": [
        0,
        2.26511549949646,
        0
      ],
      "rotation": [
        0.7071068286895752,
        0,
        0,
        0.7071068286895752
      ],
      "scale": [
        0.9003337025642395,
        0.9003337025642395,
        0.9003337025642395
      ],
      "mesh": 2
    },
    {
      "name": "mount_large_left",
      "extras": {
        "NAEV_weapon_mount": "0"
      },
      "translation": [
        11.18211555480957,
        -0.870189905166626,
        -1.61393404006958
      ],
      "scale": [
        2.2031123638153076,
        2.2031123638153076,
        2.2031123638153076
      ]
    },
    {
      "name": "trail_left",
      "extras": {
        "NAEV_trail_generator": "default"
      },
      "translation": [
        3.9929208755493164,
        0.3677794933319092,
        -11.735868453979492
      ],
      "scale": [
        2.2031123638153076,
        2.2031123638153076,
        2.2031123638153076
      ]
    },
    {
      "name": "trail_right",
      "extras": {
        "NAEV_trail_generator": "default"
      },
      "translation": [
        -3.992919921875,
        0.3677794933319092,
        -11.735868453979492
      ],
      "scale": [
        2.2031123638153076,
        2.2031123638153076,
        2.2031123638153076
      ]
    },
    {
      "name": "trail_nebula_left",
      "extras": {
        "NAEV_trail_generator": "nebula"
      },
      "translation": [
        15.24152660369873,
        0.3677794933319092,
        -7.054771423339844
      ],
      "scale": [
        2.2031123638153076,
        2.2031123638153076,
        2.2031123638153076
      ]
    },
    {
      "name": "trail_nebula_right",
      "extras": {
        "NAEV_trail_generator": "nebula"
      },
      "translation": [
        -15.241499900817871,
        0.3677794933319092,
        -7.054771423339844
      ],
      "scale": [
        2.2031123638153076,
        2.2031123638153076,
        2.2031123638153076
      ]
    },
    {
      "name": "trail_nebula_top",
      "extras": {
        "NAEV_trail_generator": "nebula"
      },
      "translation": [
        0,
        16.996150970458984,
        -8.382246971130371
      ],
      "scale": [
        2.2031123638153076,
        2.2031123638153076,
        2.2031123638153076
      ]
    },
    {
      "name": "trail_nebula_bottom",
      "extras": {
        "NAEV_trail_generator": "nebula"
      },
      "translation": [
        0,
        -11.588188171386719,
        -10.771140098571777
      ],
      "scale": [
        2.2031123638153076,
        2.2031123638153076,
        2.2031123638153076
      ]
    },
    {
      "name": "mount_large_right",
      "extras": {
        "NAEV_weapon_mount": "1"
      },
      "translation": [
        -11.182100296020508,
        -0.870189905166626,
        -1.61393404006958
      ],
      "scale": [
        2.2031123638153076,
        2.2031123638153076,
        2.2031123638153076
      ]
    },
    {
      "name": "mount_fb_left",
      "extras": {
        "NAEV_weapon_mount": "3"
      },
      "translation": [
        4.355540752410889,
        -0.870189905166626,
        4.251863956451416
      ],
      "scale": [
        2.2031123638153076,
        2.2031123638153076,
        2.2031123638153076
      ]
    },
    {
      "name": "mount_fb_right",
      "extras": {
        "NAEV_weapon_mount": "4"
      },
      "translation": [
        -4.355539798736572,
        -0.870189905166626,
        4.251863956451416
      ],
      "scale": [
        2.2031123638153076,
        2.2031123638153076,
        2.2031123638153076
      ]
    },
    {
      "name": "mount_medum_front",
      "extras": {
        "NAEV_weapon_mount": "2"
      },
      "translation": [
        0,
        -4.157059669494629,
        17.348773956298828
      ],
      "scale": [
        2.2031123638153076,
        2.2031123638153076,
        2.2031123638153076
      ]
    }
  ],
  "scenes": [
    {
      "name": "base",
      "nodes": [
        0
      ]
    },
    {
      "name": "engine",
      "nodes": [
        1,
        2
      ]
    },
    {
      "name": "meta",
      "nodes": [
        3,
        4,
        5,
        6,
        7,
        8,
        9,
        10,
        11,
        12,
        13
      ]
    }
  ],
  "scene": 0,
  "extensionsUsed": [
    "EXT_texture_webp"
  ],
  "extensionsRequired": [
    "EXT_texture_webp"
  ]
}
